<svg width="28" height="28" viewBox="0 0 28 28" fill="none" xmlns="http://www.w3.org/2000/svg">
<g opacity="0.4" clip-path="url(#clip0_859_3964)">
<path d="M19.6901 0.0078125C19.907 0.0658742 20.1278 0.113529 20.3408 0.183641C21.7529 0.648683 22.7373 1.94466 22.7444 3.43619C22.7608 6.98015 22.7663 10.5247 22.7433 14.0686C22.7307 16.0186 21.1597 17.4981 19.1626 17.5003C15.1175 17.5041 11.0718 17.5074 7.02662 17.4926C6.61745 17.491 6.3129 17.5978 6.00178 17.8629C4.55242 19.0975 3.08335 20.3092 1.61811 21.5241C1.47953 21.6385 1.32726 21.7541 1.16184 21.8155C0.672694 21.9957 0.164928 21.7103 0.0449703 21.1993C0.0121052 21.0596 0.0115574 20.91 0.0115574 20.7654C0.00936639 15.0803 0.02799 9.39464 5.46048e-05 3.70952C-0.0103527 1.62971 1.46858 0.23513 3.00448 0.0494417C3.02803 0.0467029 3.04884 0.0220541 3.0713 0.0078125C8.61127 0.0078125 14.1507 0.0078125 19.6907 0.0078125H19.6901ZM1.75889 19.1216C1.87611 19.0285 1.94677 18.9754 2.01524 18.9184C3.13539 17.9861 4.25883 17.0577 5.37186 16.1172C5.67312 15.8625 5.99575 15.7469 6.39232 15.7475C10.6007 15.7551 14.8096 15.7524 19.018 15.7519C20.3069 15.7519 21.0025 15.0518 21.0025 13.7548C21.0025 10.4206 21.0025 7.08642 21.0025 3.75279C21.0025 2.45681 20.3063 1.75733 19.0164 1.75733C13.9239 1.75733 8.83201 1.75733 3.73956 1.75733C2.46384 1.75733 1.75889 2.45955 1.75889 3.73088C1.75889 8.74117 1.75889 13.7515 1.75889 18.7618V19.1216Z" fill="white"/>
<path d="M27.9995 27.3421C27.9638 27.4034 27.9266 27.4642 27.8932 27.5267C27.6604 27.9599 27.1608 28.1177 26.7248 27.8855C26.5978 27.8175 26.48 27.7288 26.3666 27.6379C25.1353 26.6547 23.9034 25.672 22.678 24.6806C22.5115 24.5458 22.3461 24.4949 22.1341 24.4949C18.2894 24.5003 14.4442 24.5009 10.5996 24.4982C8.85825 24.4965 7.45107 23.4142 7.10434 21.7441C6.98767 21.1826 7.00739 20.5845 7.02547 20.0055C7.03971 19.5596 7.47079 19.2364 7.91557 19.254C8.35979 19.2715 8.7235 19.621 8.74979 20.0751C8.76513 20.3385 8.75417 20.6031 8.75582 20.8677C8.7613 22.0125 9.49254 22.7492 10.6363 22.7497C14.5905 22.7519 18.5447 22.7536 22.4989 22.7459C22.8851 22.7453 23.2022 22.856 23.4997 23.0986C24.3251 23.7729 25.1621 24.4324 25.9947 25.0974C26.0637 25.1522 26.1354 25.2037 26.2499 25.2891C26.2499 25.1582 26.2499 25.0717 26.2499 24.9857C26.2499 20.2208 26.2499 15.4553 26.2499 10.6904C26.2499 9.53466 25.6233 8.85216 24.4763 8.75411C23.9614 8.71029 23.6026 8.32029 23.6289 7.83334C23.6552 7.34803 24.0496 7.0024 24.5711 7.00788C26.2121 7.02595 27.6686 8.27264 27.9441 9.89234C27.9545 9.95205 27.9808 10.009 27.9995 10.0671V27.3421Z" fill="white"/>
<path d="M11.3795 7.00536C9.64911 7.00536 7.91821 7.00865 6.18786 7.00372C5.52782 7.00153 5.10057 6.42913 5.31255 5.84303C5.43908 5.49247 5.70036 5.3035 6.06735 5.26132C6.15719 5.25091 6.24921 5.25639 6.34014 5.25584C9.70114 5.25584 13.0616 5.25584 16.4226 5.25639C16.5497 5.25639 16.6801 5.25201 16.8033 5.2772C17.2464 5.36813 17.5439 5.77894 17.4973 6.21989C17.4507 6.66192 17.092 6.99769 16.6253 7.00098C15.5506 7.0092 14.4759 7.00427 13.4012 7.00427C12.7275 7.00427 12.0532 7.00427 11.3795 7.00427V7.00536Z" fill="white"/>
<path d="M9.60298 10.5036C8.45544 10.5036 7.3079 10.5101 6.1609 10.5008C5.50032 10.4953 5.07635 9.87146 5.33051 9.29084C5.48881 8.92932 5.78241 8.75569 6.17569 8.75514C7.10468 8.75404 8.03367 8.75459 8.96211 8.75459C10.337 8.75459 11.7124 8.74966 13.0872 8.75678C13.7511 8.76007 14.1827 9.37246 13.9368 9.95526C13.7785 10.3294 13.4772 10.5041 13.0724 10.5041C11.9161 10.5041 10.7593 10.5041 9.60298 10.5041V10.5036Z" fill="white"/>
</g>
<defs>
<clipPath id="clip0_859_3964">
<rect width="28" height="27.9841" fill="white" transform="translate(0 0.0078125)"/>
</clipPath>
</defs>
</svg>
