<svg width="18" height="18" viewBox="0 0 18 18" fill="none" xmlns="http://www.w3.org/2000/svg">
<path fill-rule="evenodd" clip-rule="evenodd" d="M11.0925 2.4675L11.625 3H13.5C13.9125 3 14.25 3.3375 14.25 3.75C14.25 4.1625 13.9125 4.5 13.5 4.5H4.5C4.0875 4.5 3.75 4.1625 3.75 3.75C3.75 3.3375 4.0875 3 4.5 3H6.375L6.9075 2.4675C7.0425 2.3325 7.2375 2.25 7.4325 2.25H10.5675C10.7625 2.25 10.9575 2.3325 11.0925 2.4675ZM4.5 14.25C4.5 15.075 5.175 15.75 6 15.75H12C12.825 15.75 13.5 15.075 13.5 14.25V6.75C13.5 5.925 12.825 5.25 12 5.25H6C5.175 5.25 4.5 5.925 4.5 6.75V14.25ZM6.75 6.75H11.25C11.6625 6.75 12 7.0875 12 7.5V13.5C12 13.9125 11.6625 14.25 11.25 14.25H6.75C6.3375 14.25 6 13.9125 6 13.5V7.5C6 7.0875 6.3375 6.75 6.75 6.75Z" fill="#0F0F0F"/>
</svg>
