<svg width="16" height="16" viewBox="0 0 16 16" fill="none" xmlns="http://www.w3.org/2000/svg">
<mask id="mask0_142_5944" style="mask-type:alpha" maskUnits="userSpaceOnUse" x="0" y="0" width="16" height="16">
<rect width="16" height="16" fill="#D9D9D9"/>
</mask>
<g mask="url(#mask0_142_5944)">
<path d="M3.99935 2H11.3327V10.6667L6.66602 15.3333L5.83268 14.5C5.7549 14.4222 5.69102 14.3167 5.64102 14.1833C5.59102 14.05 5.56602 13.9222 5.56602 13.8V13.5667L6.29935 10.6667H1.99935C1.64379 10.6667 1.33268 10.5333 1.06602 10.2667C0.799349 10 0.666016 9.68889 0.666016 9.33333V8C0.666016 7.92222 0.677127 7.83889 0.699349 7.75C0.721571 7.66111 0.743793 7.57778 0.766016 7.5L2.76602 2.8C2.86602 2.57778 3.03268 2.38889 3.26602 2.23333C3.49935 2.07778 3.74379 2 3.99935 2ZM9.99935 3.33333H3.99935L1.99935 8V9.33333H7.99935L7.09935 13L9.99935 10.1V3.33333ZM11.3327 10.6667V9.33333H13.3327V3.33333H11.3327V2H14.666V10.6667H11.3327Z" fill="#464646"/>
</g>
</svg>
