<svg width="48" height="54" viewBox="0 0 48 54" fill="none" xmlns="http://www.w3.org/2000/svg">
<path d="M24.0661 6.82673C28.7352 6.82673 33.1401 7.82883 37.2807 9.83305C41.4213 11.8373 44.8791 14.7335 47.6542 18.5217C47.9625 18.9181 48.0616 19.2705 47.9515 19.5788C47.8414 19.8872 47.6542 20.1515 47.3899 20.3717C47.1256 20.592 46.8172 20.6911 46.4649 20.669C46.1125 20.647 45.8041 20.4598 45.5398 20.1074C43.1171 16.6716 40.0007 14.0397 36.1905 12.2117C32.3803 10.3837 28.3388 9.46965 24.0661 9.46965C19.7933 9.46965 15.7849 10.3837 12.0408 12.2117C8.29663 14.0397 5.19119 16.6716 2.72446 20.1074C2.46017 20.5039 2.15183 20.7241 1.79944 20.7681C1.44705 20.8122 1.1387 20.7241 0.874412 20.5039C0.566071 20.2836 0.378864 20.0083 0.312791 19.6779C0.246718 19.3476 0.345827 19.0062 0.61012 18.6538C3.34114 14.9097 6.76593 12.0025 10.8845 9.93216C15.003 7.86187 19.3969 6.82673 24.0661 6.82673ZM24.0661 13.0376C30.0127 13.0376 35.1223 15.0198 39.395 18.9842C43.6678 22.9486 45.8041 27.86 45.8041 33.7185C45.8041 35.9209 45.0223 37.7599 43.4585 39.2356C41.8948 40.7112 39.9897 41.449 37.7432 41.449C35.4967 41.449 33.5696 40.7112 31.9618 39.2356C30.354 37.7599 29.5501 35.9209 29.5501 33.7185C29.5501 32.2649 29.0105 31.0425 27.9313 30.0514C26.8522 29.0603 25.5637 28.5648 24.0661 28.5648C22.5684 28.5648 21.28 29.0603 20.2008 30.0514C19.1216 31.0425 18.582 32.2649 18.582 33.7185C18.582 37.9912 19.8484 41.5592 22.3812 44.4223C24.914 47.2855 28.1846 49.2897 32.1931 50.435C32.5895 50.5671 32.8538 50.7874 32.9859 51.0957C33.1181 51.404 33.1401 51.7344 33.052 52.0868C32.9639 52.3951 32.7877 52.6594 32.5234 52.8797C32.2591 53.0999 31.9288 53.166 31.5323 53.0779C26.9513 51.9326 23.2071 49.6531 20.2999 46.2393C17.3927 42.8256 15.9391 38.6519 15.9391 33.7185C15.9391 31.516 16.732 29.666 18.3177 28.1683C19.9035 26.6707 21.8196 25.9219 24.0661 25.9219C26.3126 25.9219 28.2287 26.6707 29.8144 28.1683C31.4002 29.666 32.1931 31.516 32.1931 33.7185C32.1931 35.1721 32.7437 36.3944 33.8449 37.3855C34.9461 38.3766 36.2455 38.8722 37.7432 38.8722C39.2409 38.8722 40.5183 38.3766 41.5754 37.3855C42.6326 36.3944 43.1612 35.1721 43.1612 33.7185C43.1612 28.6088 41.2891 24.3141 37.545 20.8342C33.8008 17.3544 29.3299 15.6144 24.1321 15.6144C18.9344 15.6144 14.4634 17.3544 10.7193 20.8342C6.97516 24.3141 5.10309 28.5868 5.10309 33.6524C5.10309 34.7096 5.2022 36.031 5.40042 37.6168C5.59864 39.2025 6.07216 41.0526 6.82099 43.1669C6.95314 43.5634 6.94213 43.9158 6.78796 44.2241C6.63378 44.5324 6.3805 44.7527 6.02811 44.8848C5.67572 45.017 5.33435 45.006 5.00398 44.8518C4.67362 44.6976 4.44236 44.4443 4.31021 44.092C3.64948 42.3741 3.17596 40.6672 2.88964 38.9713C2.60333 37.2754 2.46017 35.5245 2.46017 33.7185C2.46017 27.86 4.58552 22.9486 8.83622 18.9842C13.0869 15.0198 18.1635 13.0376 24.0661 13.0376ZM24.0661 0.351562C26.8852 0.351562 29.6382 0.69294 32.3252 1.3757C35.0122 2.05845 37.6111 3.03854 40.1218 4.31595C40.5183 4.53619 40.7495 4.80048 40.8156 5.10883C40.8817 5.41717 40.8486 5.72551 40.7165 6.03385C40.5844 6.34219 40.3641 6.58446 40.0558 6.76065C39.7474 6.93685 39.373 6.91482 38.9325 6.69458C36.5979 5.50526 34.1863 4.59125 31.6975 3.95255C29.2088 3.31384 26.6649 2.99449 24.0661 2.99449C21.5112 2.99449 19.0005 3.29182 16.5337 3.88647C14.067 4.48113 11.7104 5.41717 9.46392 6.69458C9.11153 6.91482 8.75914 6.96988 8.40675 6.85976C8.05436 6.74964 7.79006 6.51838 7.61387 6.166C7.43767 5.81361 7.39363 5.49425 7.48172 5.20793C7.56982 4.92162 7.79006 4.66834 8.14245 4.44809C10.6092 3.12663 13.186 2.11351 15.873 1.40873C18.56 0.703952 21.291 0.351562 24.0661 0.351562ZM24.0661 19.4467C28.1626 19.4467 31.6865 20.8232 34.6378 23.5763C37.589 26.3293 39.0647 29.71 39.0647 33.7185C39.0647 34.1149 38.9435 34.4343 38.7013 34.6765C38.459 34.9188 38.1396 35.0399 37.7432 35.0399C37.3908 35.0399 37.0825 34.9188 36.8182 34.6765C36.5539 34.4343 36.4217 34.1149 36.4217 33.7185C36.4217 30.4148 35.1994 27.6508 32.7547 25.4263C30.31 23.2018 27.4138 22.0896 24.0661 22.0896C20.7184 22.0896 17.8442 23.2018 15.4435 25.4263C13.0429 27.6508 11.8425 30.4148 11.8425 33.7185C11.8425 37.2864 12.4592 40.3148 13.6926 42.8035C14.926 45.2923 16.732 47.792 19.1106 50.3028C19.3749 50.5671 19.507 50.8755 19.507 51.2278C19.507 51.5802 19.3749 51.8886 19.1106 52.1529C18.8463 52.4172 18.538 52.5493 18.1856 52.5493C17.8332 52.5493 17.5248 52.4172 17.2605 52.1529C14.6617 49.4218 12.6685 46.6358 11.2809 43.7946C9.89339 40.9535 9.19962 37.5948 9.19962 33.7185C9.19962 29.71 10.6532 26.3293 13.5604 23.5763C16.4677 20.8232 19.9695 19.4467 24.0661 19.4467ZM24 32.397C24.3964 32.397 24.7158 32.5292 24.9581 32.7935C25.2003 33.0577 25.3215 33.3661 25.3215 33.7185C25.3215 37.0221 26.5108 39.7311 28.8894 41.8455C31.268 43.9598 34.0431 45.017 37.2146 45.017C37.4789 45.017 37.8533 44.9949 38.3379 44.9509C38.8224 44.9069 39.329 44.8408 39.8575 44.7527C40.254 44.6646 40.5954 44.7197 40.8817 44.9179C41.168 45.1161 41.3552 45.4134 41.4433 45.8099C41.5314 46.1622 41.4653 46.4706 41.2451 46.7349C41.0248 46.9992 40.7385 47.1754 40.3861 47.2635C39.5933 47.4837 38.8995 47.6048 38.3048 47.6269C37.7102 47.6489 37.3468 47.6599 37.2146 47.6599C33.2943 47.6599 29.8915 46.3384 27.0063 43.6955C24.1211 41.0526 22.6785 37.7269 22.6785 33.7185C22.6785 33.3661 22.7997 33.0577 23.0419 32.7935C23.2842 32.5292 23.6036 32.397 24 32.397Z" fill="#44546F"/>
</svg>
