<svg width="28" height="28" viewBox="0 0 28 28" fill="none" xmlns="http://www.w3.org/2000/svg">
<path d="M27.9992 14.554C27.8379 15.0177 27.62 15.448 27.2387 15.7857C26.747 16.2203 26.1713 16.45 25.5035 16.459C25.3669 16.4612 25.2302 16.459 25.0453 16.459C25.0453 16.5713 25.0453 16.6718 25.0453 16.7724C25.0453 19.3609 25.0497 21.9499 25.0431 24.5383C25.0393 25.9554 24.1091 27.0977 22.7049 27.4174C22.459 27.4735 22.1995 27.4942 21.9459 27.4952C20.5219 27.5026 19.0974 27.4995 17.6734 27.4984C17.0538 27.4984 16.7246 27.1845 16.724 26.5885C16.7224 24.5632 16.7004 22.538 16.7339 20.5133C16.7482 19.6303 16.1243 18.9639 15.1464 18.9999C14.3809 19.0279 13.6126 19.0036 12.846 19.0062C11.8912 19.0089 11.3359 19.5462 11.3353 20.4704C11.3337 22.4866 11.3353 24.5029 11.3348 26.5191C11.3348 27.2073 11.0318 27.4984 10.3196 27.4989C8.93178 27.4989 7.54454 27.5005 6.15675 27.4989C4.31788 27.4963 3.01735 26.2481 3.01515 24.4759C3.01131 21.9224 3.01405 19.3688 3.01405 16.8158C3.01405 16.711 3.01405 16.6067 3.01405 16.4882C2.70181 16.4628 2.40055 16.4638 2.11081 16.4093C1.13403 16.2256 0.465106 15.6682 0.147929 14.7636C-0.165957 13.8679 0.0266546 13.0459 0.659364 12.3228C0.741677 12.2291 0.834416 12.1433 0.924959 12.056C4.49403 8.61212 8.0653 5.17089 11.6316 1.72489C12.1475 1.22678 12.6479 0.717558 13.3728 0.5H14.6876C15.3801 0.714382 15.874 1.18814 16.3717 1.66931C19.8815 5.06396 23.3957 8.45438 26.9171 11.8379C27.3885 12.291 27.8126 12.7606 27.9998 13.3915V14.554H27.9992ZM18.3664 25.9136H18.6908C19.7317 25.9136 20.7722 25.9136 21.8132 25.9136C22.8657 25.9136 23.4012 25.4012 23.4012 24.3938C23.4012 21.5587 23.4012 18.7236 23.4012 15.8884C23.4012 15.1521 23.6915 14.8753 24.4642 14.8753C24.811 14.8753 25.1583 14.8821 25.5046 14.8721C25.8745 14.8615 26.1455 14.6852 26.3085 14.3666C26.4775 14.0357 26.4353 13.7165 26.2092 13.4233C26.1335 13.3248 26.0391 13.2396 25.9485 13.1528C22.25 9.58505 18.5508 6.0173 14.8517 2.45009C14.2662 1.88528 13.7932 1.88422 13.2104 2.44638C9.90526 5.63406 6.60014 8.82174 3.29446 12.0094C2.83626 12.4514 2.37311 12.8892 1.92149 13.3375C1.6334 13.6239 1.56151 13.9696 1.72998 14.3359C1.89296 14.6895 2.19148 14.8705 2.59645 14.8742C2.94326 14.8774 3.29007 14.8753 3.63743 14.8753C4.34861 14.8758 4.65482 15.1701 4.65482 15.8545C4.65482 18.7336 4.65372 21.6132 4.65592 24.4923C4.65646 25.3599 5.22881 25.9115 6.12547 25.9136C7.22078 25.9157 8.31663 25.9146 9.41194 25.9136C9.49919 25.9136 9.58589 25.9046 9.68906 25.8987C9.68906 25.7685 9.68906 25.6637 9.68906 25.5589C9.68906 23.8417 9.68247 22.1251 9.69125 20.4079C9.69948 18.759 10.8694 17.532 12.5727 17.4394C13.5374 17.387 14.5071 17.4267 15.4745 17.432C15.6375 17.433 15.8032 17.4563 15.9624 17.4902C17.3979 17.7946 18.3527 18.9326 18.3615 20.3746C18.3719 22.1092 18.3643 23.8439 18.3643 25.5785C18.3643 25.6817 18.3643 25.7844 18.3643 25.9141L18.3664 25.9136Z" fill="white"/>
</svg>
