<svg width="48" height="48" viewBox="0 0 48 48" fill="none" xmlns="http://www.w3.org/2000/svg">
<path d="M23.9762 40.5839C19.7042 40.5839 15.4322 40.5839 11.1602 40.5839C10.3682 40.5839 10.2002 40.4159 10.2002 39.6119C10.2002 32.6939 10.2002 25.7699 10.2002 18.8519C10.2002 18.5079 10.0482 18.4099 9.74424 18.5579C8.85024 19.0019 7.95624 19.4459 7.05624 19.8899C6.49824 20.1659 6.32424 20.1299 5.90424 19.6919C5.47824 19.2419 5.05224 18.7919 4.62024 18.3419C3.94824 17.6339 4.01424 17.2559 4.90224 16.8119C9.89424 14.3279 14.8862 11.8379 19.8722 9.35394C21.0842 8.75394 22.2962 8.15394 23.4962 7.54194C23.8442 7.36194 24.1502 7.36794 24.4982 7.54194C30.7322 10.6559 36.9722 13.7579 43.2062 16.8719C43.9382 17.2379 44.0102 17.6699 43.4582 18.2519C43.0322 18.7019 42.6062 19.1519 42.1802 19.6019C41.6642 20.1419 41.5142 20.1719 40.8602 19.8479C40.0022 19.4219 39.1442 18.9959 38.2862 18.5699C37.8002 18.3299 37.8002 18.3299 37.8002 18.8579C37.8002 25.7339 37.8002 32.6159 37.8002 39.4919C37.8002 39.6299 37.8002 39.7739 37.8002 39.9119C37.7762 40.3199 37.5422 40.5599 37.1282 40.5719C36.6062 40.5839 36.0842 40.5719 35.5622 40.5719C31.6982 40.5719 27.8342 40.5719 23.9762 40.5719V40.5839ZM24.0062 39.2279C27.9962 39.2279 31.9802 39.2279 35.9702 39.2339C36.3542 39.2339 36.4622 39.1379 36.4562 38.7479C36.4442 31.8599 36.4442 24.9659 36.4562 18.0779C36.4562 17.7419 36.3422 17.5919 36.0482 17.4479C32.1482 15.5219 28.2542 13.5899 24.3662 11.6459C24.0962 11.5139 23.8922 11.5199 23.6282 11.6519C19.7222 13.6019 15.8162 15.5399 11.9042 17.4719C11.6402 17.6039 11.5442 17.7479 11.5442 18.0479C11.5502 24.9659 11.5562 31.8839 11.5442 38.8019C11.5442 39.1679 11.6582 39.2339 12.0002 39.2339C16.0022 39.2219 20.0042 39.2279 24.0062 39.2279ZM41.9462 17.8139C41.8922 17.6759 41.7362 17.6579 41.6222 17.5979C35.8802 14.7299 30.1322 11.8679 24.3962 8.99994C24.1082 8.85594 23.8982 8.86194 23.6162 8.99994C18.3542 11.6339 13.0922 14.2559 7.82424 16.8779C7.30824 17.1359 6.78624 17.3879 6.27624 17.6519C6.19224 17.6939 6.03624 17.6999 6.07224 17.8679C6.14424 18.2219 6.75624 18.5219 7.07424 18.3659C12.4982 15.6779 17.9162 12.9899 23.3342 10.2899C23.7842 10.0619 24.1682 10.0259 24.6362 10.2659C26.5382 11.2439 28.4642 12.1799 30.3782 13.1279C33.9062 14.8799 37.4402 16.6319 40.9682 18.3839C41.2562 18.5279 41.9582 18.1319 41.9462 17.8139Z" fill="#FF7E35"/>
<path d="M23.9285 38.8742C22.8125 38.8742 21.7025 38.8742 20.5865 38.8742C19.9985 38.8742 19.7825 38.6762 19.6865 38.0942C19.4285 36.4682 19.1585 34.8482 18.9125 33.2162C18.8585 32.8562 18.7205 32.7722 18.3725 32.7782C17.5625 32.8022 17.3885 32.6162 17.3885 31.7942C17.3885 31.1882 17.3885 30.5822 17.3885 29.9762C17.3945 29.4662 17.6345 29.2322 18.1445 29.2262C19.7105 29.2262 21.2705 29.2142 22.8365 29.2262C23.1605 29.2262 23.2805 29.1542 23.2685 28.8062C23.2385 28.1762 23.2505 27.5402 23.2685 26.9042C23.2685 26.6702 23.1965 26.5382 22.9745 26.4662C22.7105 26.3762 22.4465 26.2682 22.1945 26.1482C22.0805 26.0942 21.9965 26.0822 21.8825 26.1482C21.2945 26.4482 20.6705 26.4782 20.0285 26.3582C17.6765 25.9322 16.4825 24.6422 15.8285 22.4762C15.7145 22.0982 15.8885 21.7562 16.2665 21.6302C18.6545 20.8262 20.9285 21.4502 22.4045 23.7302C22.5905 24.0182 22.6745 24.3482 22.7045 24.6902C22.7165 24.8582 22.7885 24.9302 22.9325 25.0022C23.1905 25.1222 23.2865 25.0682 23.2685 24.7742C23.2505 24.5342 23.2565 24.2942 23.2685 24.0542C23.2925 23.3582 23.3765 22.6382 22.6145 22.2242C21.6125 20.7182 21.4205 19.1222 22.1285 17.4482C22.4225 16.7522 22.8845 16.1642 23.4245 15.6422C23.7605 15.3182 24.1205 15.2942 24.4385 15.6002C26.2265 17.3282 26.6945 19.3682 25.6505 21.6782C25.4765 22.0562 25.2245 22.3802 24.8825 22.6142C24.6965 22.7402 24.6365 22.8842 24.6365 23.1002C24.6485 24.1982 24.6365 25.2962 24.6425 26.4002C24.6425 26.5202 24.5585 26.7482 24.7505 26.7482C24.9365 26.7482 25.2365 26.7122 25.2665 26.4782C25.4585 24.9362 26.5325 24.1082 27.7505 23.4362C28.9445 22.7762 30.2225 22.8782 31.4885 23.2202C31.5545 23.2382 31.6265 23.2562 31.6925 23.2802C32.1065 23.4422 32.2685 23.7602 32.1605 24.1862C31.5725 26.4542 29.7845 27.9482 27.4625 28.0802C27.0725 28.1042 26.6645 28.0922 26.3045 27.9002C26.0525 27.7622 25.8365 27.7742 25.5965 27.9002C25.4465 27.9782 25.2845 28.0322 25.1285 28.0982C24.6305 28.3022 24.5405 28.4882 24.6305 29.0282C24.6785 29.3042 24.8765 29.2142 25.0205 29.2142C26.5445 29.2202 28.0625 29.2142 29.5865 29.2142C30.3125 29.2142 30.5105 29.4122 30.5105 30.1382C30.5105 30.7562 30.5105 31.3802 30.5105 31.9982C30.5105 32.5262 30.2645 32.7602 29.7305 32.7722C29.6765 32.7722 29.6165 32.7842 29.5625 32.7722C29.1605 32.6882 29.0405 32.8862 28.9865 33.2582C28.7405 34.8842 28.4705 36.5102 28.2065 38.1362C28.1225 38.6642 27.8885 38.8562 27.3425 38.8622C26.2025 38.8622 25.0565 38.8622 23.9165 38.8622L23.9285 38.8742ZM27.7205 32.7902H27.2285C25.9325 32.7902 24.6365 32.7902 23.3405 32.7902C22.3985 32.7902 21.4505 32.7902 20.5085 32.7902C20.3285 32.7902 20.1965 32.7722 20.2445 33.0542C20.4905 34.4402 20.7125 35.8262 20.9285 37.2182C20.9645 37.4342 21.0185 37.5302 21.2645 37.5302C23.0705 37.5182 24.8705 37.5182 26.6765 37.5302C26.8925 37.5302 26.9585 37.4582 26.9885 37.2482C27.2225 35.7782 27.4685 34.3082 27.7205 32.7962V32.7902ZM24.0005 30.5822C22.3805 30.5822 20.7605 30.5942 19.1465 30.5702C18.7865 30.5702 18.7385 30.7022 18.7385 31.0082C18.7385 31.3142 18.7865 31.4462 19.1465 31.4462C22.3565 31.4282 25.5665 31.4282 28.7765 31.4462C29.1365 31.4462 29.1785 31.3142 29.1785 31.0082C29.1785 30.7022 29.1365 30.5642 28.7765 30.5702C27.1865 30.5942 25.5965 30.5822 24.0065 30.5822H24.0005ZM24.8465 19.3982C24.8585 18.5282 24.5465 17.8802 24.1085 17.2742C23.9885 17.1062 23.9165 17.1362 23.7965 17.2802C22.9325 18.3002 22.8365 20.1782 23.5985 21.2822C23.8625 21.6662 24.0665 21.6662 24.3245 21.2642C24.7145 20.6642 24.8105 19.9862 24.8465 19.3922V19.3982ZM18.1505 22.6502C18.0365 22.6622 17.8565 22.6982 17.6765 22.7042C17.4185 22.7102 17.3645 22.7882 17.4785 23.0342C18.0185 24.2282 19.4285 25.1222 20.7365 25.0742C21.3785 25.0502 21.5225 24.8222 21.1565 24.3002C20.4485 23.2922 19.4945 22.6802 18.1505 22.6442V22.6502ZM29.7965 24.3302C28.6325 24.3242 27.3005 25.0862 26.7845 26.0582C26.5445 26.5082 26.6225 26.7062 27.1265 26.7122C28.4285 26.7302 29.5265 26.2922 30.2585 25.1582C30.3965 24.9422 30.6785 24.6782 30.5525 24.4622C30.4325 24.2642 30.0605 24.3422 29.7965 24.3302Z" fill="#FF7E35"/>
</svg>
