<svg width="52" height="50" viewBox="0 0 52 50" fill="none" xmlns="http://www.w3.org/2000/svg">
<path d="M51.2718 16.9951C50.5902 18.4644 49.6355 19.5782 47.8506 19.5888C46.026 19.6021 44.5169 18.2469 44.4374 16.4196C44.3711 14.9291 44.4241 13.4333 44.204 11.8394C43.2174 12.8233 42.2308 13.8046 41.2442 14.7885C40.2444 15.7857 39.2446 16.7803 38.3747 17.6449C39.2419 19.6604 40.2417 21.509 40.8517 23.4795C44.4241 35.0373 37.1255 47.2025 25.2627 49.5947C13.62 51.9418 2.43874 43.8794 0.900521 32.0272C-0.481222 21.3737 6.59988 11.4204 17.1738 9.31461C22.6849 8.21665 27.8644 9.21914 32.5692 12.346C33.2004 12.7676 33.5452 12.7836 34.0889 12.2107C35.7093 10.5001 37.404 8.8611 39.2286 7.03381C37.8177 7.03381 36.611 7.04972 35.4017 7.03116C33.6751 7.00198 32.312 6.01806 31.9168 4.54614C31.328 2.3449 32.8212 0.263005 35.1338 0.191398C38.3879 0.0906184 41.6474 0.0773579 44.9015 0.026968C45.7316 0.0137075 46.5617 0.0190117 47.3891 0.00044705C49.235 -0.0366823 50.325 0.650211 51.0756 2.32634C51.1206 2.42977 51.2055 2.51464 51.2718 2.60746V16.9924V16.9951ZM34.8712 29.452C34.8792 21.8988 28.782 15.791 21.2315 15.7857C13.7181 15.7804 7.55729 21.9545 7.5785 29.4653C7.59972 37.0052 13.6439 42.9803 21.2448 42.9724C28.8695 42.9644 34.8633 37.0184 34.8712 29.452Z" fill="white"/>
</svg>
