<svg width="32" height="32" viewBox="0 0 32 32" fill="none" xmlns="http://www.w3.org/2000/svg">
<path fill-rule="evenodd" clip-rule="evenodd" d="M9.33268 5.33366C7.12354 5.33366 5.33268 7.12452 5.33268 9.33366V22.667C5.33268 24.8761 7.12354 26.667 9.33268 26.667H22.666C24.8752 26.667 26.666 24.8761 26.666 22.667V14.667C26.666 13.9306 27.263 13.3337 27.9993 13.3337C28.7357 13.3337 29.3327 13.9306 29.3327 14.667V22.667C29.3327 26.3489 26.3479 29.3337 22.666 29.3337H9.33268C5.65078 29.3337 2.66602 26.3489 2.66602 22.667V9.33366C2.66602 5.65176 5.65078 2.66699 9.33268 2.66699H17.3327C18.0691 2.66699 18.666 3.26395 18.666 4.00033C18.666 4.73671 18.0691 5.33366 17.3327 5.33366H9.33268Z" fill="#F47530"/>
<path fill-rule="evenodd" clip-rule="evenodd" d="M25.5958 5.33366C25.312 5.33366 25.0398 5.44641 24.8391 5.64711L14.3364 16.1498L13.8319 18.1678L15.8499 17.6633L26.3526 7.16061C26.5533 6.95991 26.666 6.6877 26.666 6.40386C26.666 6.12003 26.5533 5.84782 26.3526 5.64711C26.1519 5.44641 25.8797 5.33366 25.5958 5.33366ZM22.9535 3.7615C23.6543 3.0607 24.6048 2.66699 25.5958 2.66699C26.5869 2.66699 27.5374 3.0607 28.2382 3.7615C28.939 4.4623 29.3327 5.41278 29.3327 6.40386C29.3327 7.39494 28.939 8.34543 28.2382 9.04623L17.4743 19.8101C17.3035 19.981 17.0894 20.1022 16.8549 20.1608L12.3228 21.2938C11.8684 21.4074 11.3877 21.2743 11.0566 20.9431C10.7254 20.612 10.5923 20.1313 10.7059 19.6769L11.8389 15.1448C11.8975 14.9103 12.0187 14.6962 12.1896 14.5254L22.9535 3.7615Z" fill="#F47530"/>
<path fill-rule="evenodd" clip-rule="evenodd" d="M20.3905 7.05752C20.9112 6.53682 21.7554 6.53682 22.2761 7.05752L24.9428 9.72418C25.4635 10.2449 25.4635 11.0891 24.9428 11.6098C24.4221 12.1305 23.5779 12.1305 23.0572 11.6098L20.3905 8.94313C19.8698 8.42244 19.8698 7.57822 20.3905 7.05752Z" fill="#F47530"/>
</svg>
