<svg width="38" height="56" viewBox="0 0 38 56" fill="none" xmlns="http://www.w3.org/2000/svg">
<path d="M16.8708 21.3318V13.0307C16.6079 13.1614 16.3972 13.2622 16.1913 13.37C14.5299 14.2526 12.8733 15.1421 11.2094 16.0224C10.0339 16.6437 8.79403 16.3709 8.19391 15.369C7.60619 14.3879 7.98312 13.2989 9.13376 12.6822C10.949 11.7079 12.7667 10.7359 14.5844 9.76388C14.6166 9.74554 14.6414 9.71344 14.7307 9.62633C14.5447 9.51858 14.3687 9.41312 14.1901 9.31684C12.4443 8.3815 10.6936 7.45533 8.95273 6.51082C8.12199 6.05919 7.72026 5.24077 7.89881 4.45444C8.08232 3.63373 8.73203 2.98724 9.63468 2.93222C10.1306 2.90242 10.6985 3.0308 11.1375 3.25088C12.856 4.11515 14.5373 5.04362 16.231 5.94686C16.422 6.04773 16.6154 6.14172 16.9006 6.28615C16.9006 5.48836 16.9006 4.76164 16.9006 4.03721C16.9006 3.35863 16.8931 2.67776 16.9006 1.99918C16.9204 0.832293 17.8082 -0.0113471 18.9935 0.0001154C20.169 0.0115779 21.0617 0.871266 21.0716 2.02669C21.084 3.23483 21.0741 4.44069 21.0741 5.64884C21.0741 5.83224 21.0741 6.01564 21.0741 6.29991C21.6941 5.97208 22.2371 5.6901 22.7753 5.40125C24.1168 4.68599 25.4535 3.96156 26.8 3.25088C27.9804 2.62732 29.2302 2.8772 29.8353 3.84693C30.4429 4.81895 30.061 5.96062 28.8979 6.58876C27.0331 7.59517 25.1584 8.58782 23.2018 9.6355C23.4374 9.77305 23.611 9.88309 23.7945 9.98166C25.5229 10.9078 27.2588 11.8225 28.9822 12.7556C29.7857 13.1912 30.1329 13.8652 30.0139 14.7134C29.9023 15.4951 29.4063 16.0178 28.6004 16.2654C27.963 16.4626 27.3629 16.3525 26.7851 16.0385C25.0964 15.126 23.3977 14.2251 21.704 13.3195C21.5329 13.2278 21.3518 13.1476 21.1187 13.033V21.3112C27.7027 22.2099 32.697 25.3024 35.7794 30.8251C37.9121 34.6467 38.3386 38.6998 37.2227 42.8653C35.1322 50.6575 27.172 56.6982 17.3519 55.9348C8.47413 55.2471 1.20825 48.8396 0.28576 40.3848C-0.230043 35.6714 1.13634 31.4097 4.36259 27.7142C7.57147 24.0347 11.7822 21.9691 16.8708 21.3341V21.3318ZM18.9737 27.1662C12.1244 27.1846 6.5845 32.3267 6.60434 38.6448C6.62418 44.9629 12.1616 50.0752 18.9712 50.066C25.8577 50.0546 31.3852 44.9308 31.3678 38.5737C31.3505 32.2762 25.7783 27.1479 18.9737 27.1662Z" fill="#C70101"/>
</svg>
