<svg width="12" height="13" viewBox="0 0 12 13" fill="none" xmlns="http://www.w3.org/2000/svg">
<path d="M5.33268 12.9665C3.98824 12.7998 2.87435 12.2137 1.99102 11.2082C1.10768 10.2026 0.666016 9.02206 0.666016 7.6665C0.666016 6.93317 0.81046 6.23039 1.09935 5.55817C1.38824 4.88595 1.79935 4.29984 2.33268 3.79984L3.28268 4.74984C2.86046 5.12762 2.54102 5.5665 2.32435 6.0665C2.10768 6.5665 1.99935 7.09984 1.99935 7.6665C1.99935 8.64428 2.31046 9.50817 2.93268 10.2582C3.5549 11.0082 4.3549 11.4665 5.33268 11.6332V12.9665ZM6.66602 12.9665V11.6332C7.63268 11.4554 8.42991 10.9943 9.05768 10.2498C9.68546 9.50539 9.99935 8.64428 9.99935 7.6665C9.99935 6.55539 9.61046 5.61095 8.83268 4.83317C8.0549 4.05539 7.11046 3.6665 5.99935 3.6665H5.94935L6.68268 4.39984L5.74935 5.33317L3.41602 2.99984L5.74935 0.666504L6.68268 1.59984L5.94935 2.33317H5.99935C7.48824 2.33317 8.74935 2.84984 9.78268 3.88317C10.816 4.9165 11.3327 6.17762 11.3327 7.6665C11.3327 9.01095 10.891 10.1859 10.0077 11.1915C9.12435 12.1971 8.01046 12.7887 6.66602 12.9665Z" fill="#464646"/>
</svg>
