<svg width="48" height="48" viewBox="0 0 48 48" fill="none" xmlns="http://www.w3.org/2000/svg">
<path d="M35.6462 9.13789C34.9862 6.23989 33.1562 4.25989 30.3482 3.40789C30.2162 3.36589 30.0842 3.34789 29.9522 3.32989C29.8382 3.31189 29.7302 3.29989 29.6762 3.26989L29.5442 3.19189H27.2162L27.1742 3.31789C26.0042 3.57589 24.9482 4.10989 23.9702 4.94389C23.9582 4.93789 23.9522 4.92589 23.9402 4.91989C23.6522 4.67989 23.3522 4.43389 23.0042 4.22389C22.2602 3.77989 21.4622 3.46789 20.6282 3.31189L20.5862 3.19789H18.1682L18.0962 3.31789C18.0962 3.31789 18.0602 3.31789 18.0422 3.32989C16.0262 3.76189 14.4302 4.90789 13.2962 6.74389C12.1442 8.60389 11.8322 10.7999 12.3482 13.4399C12.8882 16.2299 14.2982 18.6659 16.6562 20.8979C17.8502 22.0259 19.2722 23.0459 21.0122 24.0179L20.9762 24.0539C20.5502 24.4859 20.1182 24.9179 19.6982 25.3559C18.9602 26.1119 18.9182 27.1679 19.5962 27.8639C19.9202 28.1939 20.3402 28.3799 20.7842 28.3859C21.2462 28.3799 21.7562 28.1819 22.1462 27.7979L22.2602 27.6839V41.5139C22.2602 42.3359 22.6622 42.7799 22.9982 43.0139C23.3162 43.2299 23.6522 43.3379 23.9882 43.3379C24.3062 43.3379 24.6242 43.2419 24.9242 43.0439C25.4522 42.7079 25.7162 42.1799 25.7162 41.4839V27.6959C25.7822 27.7619 25.8542 27.8279 25.9202 27.8939C26.2802 28.2359 26.7182 28.4039 27.1502 28.4039C27.5822 28.4039 27.9962 28.2419 28.3382 27.9179C29.0342 27.2579 29.0702 26.2139 28.4342 25.4939C28.1942 25.2179 27.9302 24.9659 27.6662 24.7079L27.3962 24.4379C27.2582 24.2999 27.1142 24.1619 26.9762 24.0239C27.3122 23.8379 27.6302 23.6519 27.9482 23.4599C30.9062 21.6419 33.0002 19.5419 34.3382 17.0459C35.8082 14.3039 36.2402 11.7119 35.6522 9.13789H35.6462ZM13.5002 13.2119C13.0382 10.8419 13.2902 8.98189 14.2982 7.35589C15.2702 5.78389 16.5782 4.83589 18.3002 4.46989C18.3782 4.46989 18.5522 4.45789 18.7202 4.36189H19.9682C20.0522 4.40389 20.1542 4.42789 20.2742 4.43389C21.0182 4.55989 21.7322 4.82989 22.3982 5.22589C22.6682 5.38789 22.9202 5.59789 23.1902 5.81989C23.2622 5.87989 23.3282 5.93389 23.4002 5.99389V23.8499C23.1662 23.7539 22.9322 23.6459 22.6982 23.5439L22.2542 23.3519C20.3102 22.3319 18.7442 21.2459 17.4662 20.0399C15.2942 17.9819 13.9982 15.7499 13.5062 13.2119H13.5002ZM21.3182 26.9639C21.1502 27.1259 20.9822 27.2159 20.7902 27.2159C20.6582 27.2159 20.5382 27.1559 20.4362 27.0479C20.1602 26.7659 20.3162 26.3999 20.5382 26.1779C20.9642 25.7459 21.3902 25.3139 21.8162 24.8819L22.1162 24.5819L22.2242 24.6299C22.5602 24.7799 22.8962 24.9239 23.2322 25.0619C23.0582 25.2479 22.8782 25.4339 22.6982 25.6139L21.3182 26.9699V26.9639ZM24.5402 41.4959C24.5402 41.8379 24.4382 41.9699 24.2882 42.0659C24.0602 42.2159 23.8862 42.2099 23.6582 42.0539C23.5382 41.9759 23.4302 41.8559 23.4302 41.5259V26.8799V26.5499L23.5382 26.4419C23.6882 26.2919 23.8322 26.1359 23.9822 25.9859C24.1322 26.1419 24.2822 26.2979 24.4322 26.4479L24.5402 26.5619V41.5019V41.4959ZM33.2942 16.4999C32.0522 18.8099 30.1022 20.7599 27.3242 22.4699C26.9822 22.6799 26.6282 22.8779 26.2562 23.0879L25.0322 23.7839L25.8482 24.5879C26.0882 24.8279 26.3282 25.0559 26.5622 25.2899L26.8442 25.5659C27.0842 25.8059 27.3302 26.0399 27.5522 26.2919C27.7682 26.5319 27.7562 26.8679 27.5282 27.0839C27.2942 27.3059 26.9822 27.2999 26.7302 27.0599C26.4482 26.7959 26.1782 26.5259 25.9022 26.2559L25.2782 25.6319C25.0382 25.3859 24.8042 25.1459 24.5702 24.8939C24.5522 24.8759 24.5282 24.8519 24.4982 24.8219C24.5042 24.8039 24.5042 24.7859 24.5102 24.7679C24.5342 24.7019 24.5462 24.6419 24.5582 24.5759C24.5582 24.5459 24.5702 24.5219 24.5702 24.4919C24.5762 24.4019 24.5762 24.3179 24.5762 24.2339V5.96989C25.4702 5.17189 26.4302 4.67389 27.4982 4.45189C27.6542 4.45189 27.7742 4.41589 27.8702 4.36789H29.2622C29.4542 4.44589 29.6342 4.46989 29.7902 4.49389C29.8682 4.50589 29.9402 4.51189 30.0122 4.53589C32.4242 5.26789 33.9362 6.90589 34.5062 9.4019C35.0282 11.6939 34.6322 14.0099 33.3002 16.4939L33.2942 16.4999Z" fill="#FF7E35"/>
</svg>
