<svg width="30" height="30" viewBox="0 0 30 30" fill="none" xmlns="http://www.w3.org/2000/svg">
<g clip-path="url(#clip0_101_5560)">
<path d="M15.697 29.044H14.0351C13.9641 29.0284 13.8936 29.0029 13.8215 28.9985C11.8233 28.8642 9.93171 28.3348 8.18492 27.3649C4.19805 25.1503 1.75599 21.7977 0.905904 17.307C0.805469 16.7754 0.757194 16.2333 0.685059 15.6967C0.685059 15.1429 0.685059 14.5891 0.685059 14.0354C0.701705 13.9555 0.72723 13.8761 0.732779 13.7951C0.894251 11.5861 1.51573 9.51303 2.68099 7.63251C5.34001 3.34268 9.20813 1.01049 14.246 0.710846C17.0615 0.54327 19.7194 1.20858 22.1198 2.69512C26.4096 5.35082 28.7274 9.23114 29.0237 14.2684C29.1741 16.8259 28.6175 19.2652 27.3813 21.5141C25.1822 25.5138 21.8263 27.9575 17.3361 28.8203C16.7951 28.9241 16.243 28.9713 15.6964 29.0445L15.697 29.044ZM14.8708 3.05858C8.35305 3.05636 3.07662 8.32224 3.05942 14.8466C3.04222 21.3665 8.33363 26.6674 14.8613 26.6702C21.3813 26.6729 26.656 21.4087 26.6716 14.8838C26.6871 8.36164 21.3973 3.06135 14.8702 3.05913L14.8708 3.05858Z" fill="#464646"/>
<path d="M10.7952 14.8807C10.7952 13.6905 10.7946 12.5002 10.7952 11.31C10.7952 10.8517 10.8756 10.7701 11.3201 10.7695C13.6822 10.7695 16.045 10.7695 18.4071 10.7695C18.851 10.7695 18.9331 10.8528 18.9331 11.3078C18.9337 13.6882 18.9337 16.0687 18.9331 18.4492C18.9331 18.9214 18.8649 18.9874 18.3816 18.9874C16.0377 18.9874 13.6939 18.9874 11.3501 18.9874C10.8595 18.9874 10.7952 18.9219 10.7952 18.4237C10.7946 17.2428 10.7952 16.0615 10.7952 14.8807Z" fill="#464646"/>
</g>
<defs>
<clipPath id="clip0_101_5560">
<rect width="28.3636" height="28.3586" fill="white" transform="translate(0.685059 0.685547)"/>
</clipPath>
</defs>
</svg>
