<svg width="267" height="188" viewBox="0 0 267 188" fill="none" xmlns="http://www.w3.org/2000/svg">
<g clip-path="url(#clip0_1043_37455)">
<path opacity="0.1" d="M89.0948 187.632C102.002 187.632 112.465 185.952 112.465 183.879C112.465 181.806 102.002 180.125 89.0948 180.125C76.1875 180.125 65.7241 181.806 65.7241 183.879C65.7241 185.952 76.1875 187.632 89.0948 187.632Z" fill="#07A997"/>
<path opacity="0.1" d="M216.134 187.738C232.241 187.738 245.297 186.057 245.297 183.984C245.297 181.911 232.241 180.23 216.134 180.23C200.028 180.23 186.971 181.911 186.971 183.984C186.971 186.057 200.028 187.738 216.134 187.738Z" fill="#07A997"/>
<path opacity="0.1" d="M4.29917 81.1162H28.6412V114.294H6.08123C6.02127 114.635 5.96371 114.978 5.90135 115.321H28.6412V142.078C28.6004 142.066 28.5644 142.052 28.5261 142.037C27.8833 141.783 27.2453 141.514 26.6073 141.227L26.1996 141.042C25.56 140.74 24.9204 140.42 24.2808 140.082C24.0577 139.965 23.8347 139.843 23.614 139.718C20.0633 137.729 16.8376 135.209 14.0489 132.244C13.9674 132.165 13.8906 132.081 13.8091 132.004C13.4205 131.582 13.0392 131.155 12.6698 130.719L12.2621 130.239C11.8256 129.704 11.4034 129.155 10.9933 128.599C10.9333 128.517 10.8758 128.436 10.8134 128.359C9.14539 126.046 7.7604 123.542 6.68805 120.9C6.65447 120.82 6.62569 120.734 6.59451 120.66C6.26512 119.812 5.9733 118.957 5.71907 118.093C5.60874 117.731 5.5032 117.374 5.41206 116.997C5.37848 116.887 5.3497 116.779 5.32332 116.671C3.96099 111.354 3.80029 105.83 3.80029 100.345C3.80029 99.7043 3.80029 99.0615 3.80029 98.4259C3.80029 96.2074 3.82668 93.9744 3.86505 91.7438C3.86505 91.1658 3.88904 90.5902 3.90103 90.0097C3.93461 88.5371 3.98258 87.0644 4.04494 85.5917C4.05933 85.1816 4.07851 84.7739 4.1001 84.3661C4.1001 84.1311 4.11209 83.896 4.13608 83.661C4.19364 82.8071 4.24161 81.9605 4.29917 81.1162Z" fill="#07A997"/>
<path opacity="0.1" d="M28.6418 44.1754H15.2896C17.46 40.7782 19.8315 37.5136 22.3914 34.3993C24.3749 31.9624 26.4688 29.5879 28.6418 27.2998V44.1754Z" fill="#07A997"/>
<path opacity="0.1" d="M28.6417 45.2012V80.0892H4.37646C4.37646 79.9885 4.39325 79.8854 4.40045 79.7846C4.42204 79.5088 4.44362 79.233 4.46761 78.9596C4.49399 78.6382 4.52277 78.3144 4.55395 78.0002C4.58513 77.686 4.61871 77.3022 4.65469 76.9545C4.69066 76.6067 4.72424 76.2541 4.76502 75.9063C4.80579 75.5585 4.84177 75.2108 4.88494 74.8654C4.92811 74.52 4.96649 74.1698 5.01206 73.8245C5.04804 73.5366 5.08641 73.2512 5.12478 72.9634C5.17995 72.5581 5.23751 72.1503 5.29987 71.7474C5.29987 71.6874 5.31666 71.6251 5.32626 71.5675C5.76402 68.6178 6.36051 65.6938 7.11311 62.8083C7.90091 59.7814 8.9069 56.8155 10.1232 53.934C11.4159 50.9195 12.9294 48.0047 14.6515 45.2132L28.6417 45.2012Z" fill="#07A997"/>
<path opacity="0.1" d="M34.4526 81.1143V114.295H86.4442V81.1143H34.4526ZM34.4526 115.319V143.813C34.75 143.875 35.0451 143.935 35.3377 143.985C35.7358 144.062 36.1316 144.132 36.5369 144.191C36.6137 144.203 36.6928 144.215 36.7768 144.223C36.935 144.249 37.0981 144.271 37.2564 144.292C37.657 144.347 38.0551 144.393 38.4557 144.429C38.6452 144.448 38.837 144.465 39.0289 144.479L39.4918 144.515C39.7437 144.534 39.9931 144.549 40.2401 144.556C40.3936 144.556 40.5471 144.57 40.7054 144.575C40.8254 144.575 40.9453 144.575 41.07 144.575C41.1947 144.575 41.3722 144.575 41.5233 144.575C41.7296 144.575 41.9359 144.575 42.1397 144.575H42.4155C42.6218 144.575 42.8281 144.575 43.0319 144.556H43.0463C43.1878 144.556 43.3318 144.556 43.4757 144.537C43.5156 144.539 43.5556 144.539 43.5956 144.537C43.7155 144.537 43.8354 144.537 43.9506 144.52H44.0345L44.838 144.458C45.1018 144.434 45.3681 144.403 45.6367 144.374L46.1835 144.309C48.4083 143.997 50.6083 143.529 52.7673 142.908C57.617 141.556 62.3612 139.663 67.2085 138.277C73.4757 136.49 80.4 135.612 86.4562 137.797V115.319H34.4526ZM86.4442 44.1755V0.00294585C80.752 -0.0587244 75.0752 0.607043 69.5518 1.98408C56.3866 5.29156 44.5742 12.4654 34.4526 21.6275V44.1731H37.0622V45.1972H34.4526V80.0901H86.4442V45.1996H47.7761V44.1755H86.4442ZM153.225 29.2546C149.968 29.1395 146.73 28.1082 143.801 26.5156C138.201 23.4695 133.728 18.7661 128.729 14.7967C118.344 6.52917 105.464 1.54036 92.2509 0.302754V44.1755H166.471L166.656 43.9812L153.225 29.2546ZM159.986 28.0554L167.155 35.9224V25.9927C164.754 26.2901 162.651 26.9977 159.996 28.0458L159.986 28.0554ZM167.155 150.888V115.319H151.879C151.838 115.168 151.798 115.014 151.75 114.861C151.795 115.014 151.834 115.168 151.877 115.319H92.2605V141.042C92.8265 141.462 93.3853 141.903 93.9394 142.352C94.5366 142.832 95.1266 143.338 95.719 143.834L96.3163 144.328C96.6017 144.568 96.8895 144.808 97.1797 145.033C97.7553 145.5 98.3366 145.961 98.9234 146.415C99.2136 146.655 99.511 146.871 99.806 147.096C104.49 150.677 109.43 153.908 114.588 156.764C115.744 157.404 116.91 158.028 118.087 158.637C118.871 159.038 119.661 159.436 120.452 159.822C121.642 160.403 122.841 160.962 124.05 161.501C135.195 166.504 146.979 169.937 159.067 171.702C161.752 172.098 164.447 172.41 167.153 172.637V150.886H167.392L167.155 150.888ZM92.2605 45.1996V80.0901H167.165V45.1996H92.2605ZM92.2605 81.1143V114.295H167.165V81.1143H92.2605ZM172.978 25.9495V37.0257L182.129 26.9857C179.097 26.4964 176.047 26.147 172.978 25.9376V25.9495ZM172.978 81.1262V114.295H245.832V81.1143L172.978 81.1262ZM245.566 153.522L245.822 115.319H172.978V173.019C177.671 173.216 182.371 173.16 187.057 172.851H187.139C189.378 172.71 191.606 172.505 193.823 172.237H193.874C205.706 170.86 217.275 167.773 228.22 163.072M259.88 86.578C259.606 85.9328 259.321 85.2924 259.031 84.6592C258.489 83.46 257.915 82.2943 257.325 81.1286H251.641V114.295H266.012C266.005 104.902 263.628 95.3084 259.887 86.566L259.88 86.578ZM251.641 115.331V148.19C255.689 144.309 259.11 139.869 261.573 134.794C264.535 128.683 265.89 122.066 266 115.326L251.641 115.331ZM251.641 71.458V80.0925H256.793C255.234 77.1201 253.517 74.2338 251.648 71.446L251.641 71.458ZM202.233 32.459C201.854 32.3151 201.475 32.1688 201.093 32.0273C197.071 30.542 192.961 29.3068 188.787 28.3288L174.784 43.6958L174.516 43.9812L174.696 44.1779H224.531C217.59 39.4003 210.108 35.4625 202.24 32.447L202.233 32.459ZM225.992 45.2116H174L172.978 46.147V80.0901H181.934H181.949H245.841V63.6486C240.062 56.6585 233.391 50.456 225.999 45.1996L225.992 45.2116Z" fill="#07A997"/>
<path opacity="0.1" d="M28.6417 62.7988V80.0894H4.37646C4.37646 79.9886 4.39325 79.8855 4.40045 79.7848C4.42204 79.5089 4.44362 79.2331 4.46761 78.9597C4.49399 78.6383 4.52277 78.3145 4.55395 78.0003C4.58513 77.6861 4.61871 77.3024 4.65469 76.9546C4.69066 76.6068 4.72424 76.2542 4.76502 75.9064C4.80579 75.5587 4.84177 75.2109 4.88494 74.8655C4.92811 74.5201 4.96649 74.17 5.01206 73.8246C5.04804 73.5368 5.08641 73.2513 5.12478 72.9635C5.17995 72.5582 5.23751 72.1504 5.29987 71.7475C5.29987 71.6875 5.31666 71.6252 5.32626 71.5676C5.76402 68.6179 6.36051 65.6939 7.11311 62.8084L28.6417 62.7988Z" fill="#07A997"/>
<path opacity="0.1" d="M4.29917 81.1162H28.6412V114.294H6.08123C6.02127 114.635 5.96371 114.978 5.90135 115.321H28.6412V142.078C28.6004 142.066 28.5644 142.052 28.5261 142.037C27.8833 141.783 27.2453 141.514 26.6073 141.227L26.1996 141.042C25.56 140.74 24.9204 140.42 24.2808 140.082C24.0577 139.965 23.8347 139.843 23.614 139.718C20.0633 137.729 16.8376 135.209 14.0489 132.244C13.9674 132.165 13.8906 132.081 13.8091 132.004C13.4205 131.582 13.0392 131.155 12.6698 130.719L12.2621 130.239C11.8256 129.704 11.4034 129.155 10.9933 128.599C10.9333 128.517 10.8758 128.436 10.8134 128.359C9.14539 126.046 7.7604 123.542 6.68805 120.9C6.65447 120.82 6.62569 120.734 6.59451 120.66C6.26512 119.812 5.9733 118.957 5.71907 118.093C5.60874 117.731 5.5032 117.374 5.41206 116.997C5.37848 116.887 5.3497 116.779 5.32332 116.671C3.96099 111.354 3.80029 105.83 3.80029 100.345C3.80029 99.7043 3.80029 99.0615 3.80029 98.4259C3.80029 96.2074 3.82668 93.9744 3.86505 91.7438C3.86505 91.1658 3.88904 90.5902 3.90103 90.0097C3.93461 88.5371 3.98258 87.0644 4.04494 85.5917C4.05933 85.1816 4.07851 84.7739 4.1001 84.3661C4.1001 84.1311 4.11209 83.896 4.13608 83.661C4.19364 82.8071 4.24161 81.9605 4.29917 81.1162Z" fill="#07A997"/>
<path opacity="0.1" d="M52.7553 50.1948V80.0892H34.4526V50.1948H37.0622V40.0732H47.7737V50.1948H52.7553Z" fill="#07A997"/>
<path opacity="0.1" d="M52.7556 81.1133H34.4553V114.291H52.7556V81.1133Z" fill="#07A997"/>
<path opacity="0.1" d="M34.4526 115.32H52.7553V142.903C50.5963 143.523 48.3963 143.99 46.1715 144.301L45.6247 144.368C45.3561 144.399 45.0898 144.426 44.826 144.452C44.5622 144.478 44.2887 144.498 44.0225 144.514H43.9386C43.8234 144.514 43.6987 144.529 43.586 144.531H43.4637C43.3198 144.531 43.1759 144.546 43.0319 144.55C42.8281 144.562 42.6242 144.565 42.4155 144.567C42.3268 144.567 42.2429 144.567 42.1541 144.567C41.9478 144.567 41.744 144.567 41.5377 144.567H41.0844C40.9621 144.567 40.8445 144.567 40.7174 144.567L40.2545 144.55C40.0147 144.55 39.7556 144.524 39.5062 144.507L39.0457 144.474L38.4725 144.421C38.0695 144.385 37.669 144.339 37.2732 144.284L36.7935 144.217L36.5537 144.183C36.1531 144.121 35.7574 144.054 35.3545 143.977C35.0594 143.927 34.7668 143.864 34.4694 143.804L34.4526 115.32Z" fill="#07A997"/>
<path opacity="0.1" d="M167.165 46.6641H152.074V80.0867H167.165V46.6641Z" fill="#07A997"/>
<path opacity="0.1" d="M167.168 81.1133V114.294H92.2612V99.982H132.16V108.425H152.074V81.1133H167.168Z" fill="#07A997"/>
<path opacity="0.1" d="M167.405 150.894H167.165V172.661C164.463 172.432 161.769 172.121 159.082 171.728C146.989 169.957 135.199 166.517 124.05 161.505C120.832 160.057 117.679 158.475 114.591 156.761C109.433 153.904 104.492 150.672 99.8068 147.093C98.63 146.191 97.4683 145.268 96.3218 144.325C95.5279 143.67 94.7388 142.999 93.9402 142.346C93.3861 141.898 92.8273 141.456 92.2612 141.034V115.32H151.875C151.834 115.167 151.794 115.013 151.75 114.862C151.796 115.013 151.839 115.167 151.88 115.32H167.165V150.88C167.247 150.882 167.326 150.89 167.405 150.894Z" fill="#07A997"/>
<path opacity="0.1" d="M206.524 44.1754H196.69V41.1198H201.098V32.0176C201.48 32.1567 201.861 32.2998 202.24 32.4469V41.1198H206.524V44.1754Z" fill="#07A997"/>
<path opacity="0.1" d="M230.216 80.0892H181.94C181.94 80.0892 181.94 80.0893 181.956 80.1012L181.935 80.0892H172.979V46.6666H175.517V71.3708H187.113V56.7402H196.693V45.2012H206.526V56.7498H216.106V71.3804H230.216V80.0892Z" fill="#07A997"/>
<path opacity="0.1" d="M172.979 81.1133V114.294H230.216V81.1133H172.979ZM245.753 153.35L245.832 127.087H230.216V115.335H172.979V173.018C177.672 173.215 182.371 173.159 187.058 172.85H187.14C189.378 172.709 191.606 172.504 193.824 172.236H193.874C205.706 170.859 217.275 167.772 228.22 163.071" fill="#07A997"/>
<path opacity="0.1" d="M252.658 115.32H266.01C265.893 122.058 264.54 128.675 261.581 134.786C259.117 139.864 255.695 144.303 251.651 148.182V127.075H252.658V115.32Z" fill="#07A997"/>
<path opacity="0.1" d="M266.017 114.294H252.658V86.5654H259.887C263.628 95.3078 266.005 104.902 266.017 114.294Z" fill="#07A997"/>
<path opacity="0.1" d="M167.167 55.9561H159.082V66.4349H167.167V55.9561Z" fill="#07A997"/>
<path opacity="0.1" d="M167.167 77.6768H159.082V80.0896H167.167V77.6768Z" fill="#07A997"/>
<path opacity="0.1" d="M167.167 81.1133H159.082V88.1528H167.167V81.1133Z" fill="#07A997"/>
<path opacity="0.1" d="M167.167 99.3975H159.082V109.876H167.167V99.3975Z" fill="#07A997"/>
<path opacity="0.1" d="M167.167 121.118H159.082V131.597H167.167V121.118Z" fill="#07A997"/>
<path opacity="0.1" d="M167.164 150.88C167.246 150.88 167.325 150.88 167.404 150.894H167.164V153.329H159.082V142.838H167.164V150.88Z" fill="#07A997"/>
<path opacity="0.1" d="M167.164 164.554V172.649C164.462 172.42 161.768 172.109 159.082 171.716V164.554H167.164Z" fill="#07A997"/>
<path opacity="0.1" d="M126.912 113.524H92.2612V114.294H126.912V113.524Z" fill="#07A997"/>
<path opacity="0.1" d="M126.912 115.318H92.2612V118.268H126.912V115.318Z" fill="#07A997"/>
<path opacity="0.1" d="M126.912 127.938H92.2612V132.683H126.912V127.938Z" fill="#07A997"/>
<path opacity="0.1" d="M126.909 142.354V147.098H99.8061C98.6292 146.199 97.4668 145.276 96.3187 144.33C95.5248 143.675 94.7381 143.003 93.937 142.354H126.909Z" fill="#07A997"/>
<path opacity="0.1" d="M126.909 156.766V161.505H124.048C120.832 160.055 117.68 158.473 114.591 156.759L126.909 156.766Z" fill="#07A997"/>
<path opacity="0.1" d="M193.881 84.3301H187.06V91.1513H193.881V84.3301Z" fill="#07A997"/>
<path opacity="0.1" d="M46.1889 52.5479H39.3677V59.3691H46.1889V52.5479Z" fill="#07A997"/>
<path opacity="0.1" d="M46.1889 68.3926H39.3677V75.2138H46.1889V68.3926Z" fill="#07A997"/>
<path opacity="0.1" d="M46.1889 84.2363H39.3677V91.0576H46.1889V84.2363Z" fill="#07A997"/>
<path opacity="0.1" d="M46.1889 100.078H39.3677V106.899H46.1889V100.078Z" fill="#07A997"/>
<path opacity="0.1" d="M46.1889 115.923H39.3677V122.744H46.1889V115.923Z" fill="#07A997"/>
<path opacity="0.1" d="M46.1889 131.767H39.3677V138.588H46.1889V131.767Z" fill="#07A997"/>
<path opacity="0.1" d="M219.922 84.3301H213.1V91.1513H219.922V84.3301Z" fill="#07A997"/>
<path opacity="0.1" d="M193.881 101.155H187.06V107.977H193.881V101.155Z" fill="#07A997"/>
<path opacity="0.1" d="M219.922 101.155H213.1V107.977H219.922V101.155Z" fill="#07A997"/>
<path opacity="0.1" d="M193.881 117.979H187.06V124.8H193.881V117.979Z" fill="#07A997"/>
<path opacity="0.1" d="M219.922 117.979H213.1V124.8H219.922V117.979Z" fill="#07A997"/>
<path opacity="0.1" d="M193.881 134.804H187.06V141.625H193.881V134.804Z" fill="#07A997"/>
<path opacity="0.1" d="M219.922 134.804H213.1V141.625H219.922V134.804Z" fill="#07A997"/>
<path opacity="0.1" d="M193.881 151.629H187.06V158.45H193.881V151.629Z" fill="#07A997"/>
<path opacity="0.1" d="M219.922 151.629H213.1V158.45H219.922V151.629Z" fill="#07A997"/>
<path opacity="0.1" d="M187.06 172.85V168.451H193.879V172.224L187.06 172.85Z" fill="#07A997"/>
<path opacity="0.1" d="M5.29712 71.5635V75.4658H28.6414V71.5635H5.29712ZM7.62363 75.2211H5.71925V71.8033H7.63802L7.62363 75.2211ZM9.94774 75.2211H8.02897V71.8033H9.94774V75.2211ZM12.2671 75.2211H10.3483V71.8033H12.2671V75.2211ZM14.5912 75.2211H12.6748V71.8033H14.5936L14.5912 75.2211ZM16.9129 75.2211H14.9941V71.8033H16.9129V75.2211ZM19.237 75.2211H17.3182V71.8033H19.237V75.2211ZM21.5611 75.2211H19.6423V71.8033H21.5611V75.2211ZM23.8828 75.2211H21.9641V71.8033H23.8828V75.2211ZM26.2045 75.2211H24.2858V71.8033H26.2045V75.2211ZM28.5263 75.2211H26.6075V71.8033H28.5263V75.2211Z" fill="#07A997"/>
<path opacity="0.1" d="M5.29712 82.917V86.8193H28.6414V82.917H5.29712ZM7.62363 86.5723H5.71925V83.164H7.63802L7.62363 86.5723ZM9.94774 86.5723H8.02897V83.164H9.94774V86.5723ZM12.2671 86.5723H10.3483V83.164H12.2671V86.5723ZM14.5912 86.5723H12.6748V83.164H14.5936L14.5912 86.5723ZM16.9129 86.5723H14.9941V83.164H16.9129V86.5723ZM19.237 86.5723H17.3182V83.164H19.237V86.5723ZM21.5611 86.5723H19.6423V83.164H21.5611V86.5723ZM23.8828 86.5723H21.9641V83.164H23.8828V86.5723ZM26.2045 86.5723H24.2858V83.164H26.2045V86.5723ZM28.5263 86.5723H26.6075V83.164H28.5263V86.5723Z" fill="#07A997"/>
<path opacity="0.1" d="M5.29712 94.2764V98.1859H28.6414V94.2764H5.29712ZM7.62363 97.9316H5.71925V94.521H7.63802L7.62363 97.9316ZM9.94774 97.9316H8.02897V94.521H9.94774V97.9316ZM12.2671 97.9316H10.3483V94.521H12.2671V97.9316ZM14.5912 97.9316H12.6748V94.521H14.5936L14.5912 97.9316ZM16.9129 97.9316H14.9941V94.521H16.9129V97.9316ZM19.237 97.9316H17.3182V94.521H19.237V97.9316ZM21.5611 97.9316H19.6423V94.521H21.5611V97.9316ZM23.8828 97.9316H21.9641V94.521H23.8828V97.9316ZM26.2045 97.9316H24.2858V94.521H26.2045V97.9316ZM28.5263 97.9316H26.6075V94.521H28.5263V97.9316Z" fill="#07A997"/>
<path opacity="0.1" d="M5.29712 105.636V109.533H28.6414V105.636H5.29712ZM7.62363 109.291H5.71925V105.878H7.63802L7.62363 109.291ZM9.94774 109.291H8.02897V105.878H9.94774V109.291ZM12.2671 109.291H10.3483V105.878H12.2671V109.291ZM14.5912 109.291H12.6748V105.878H14.5936L14.5912 109.291ZM16.9129 109.291H14.9941V105.878H16.9129V109.291ZM19.237 109.291H17.3182V105.878H19.237V109.291ZM21.5611 109.291H19.6423V105.878H21.5611V109.291ZM23.8828 109.291H21.9641V105.878H23.8828V109.291ZM26.2045 109.291H24.2858V105.878H26.2045V109.291ZM28.5263 109.291H26.6075V105.878H28.5263V109.291Z" fill="#07A997"/>
<path opacity="0.1" d="M5.39795 116.992C5.49149 117.359 5.59702 117.726 5.70735 118.088V117.237H7.62612V120.647H6.59958C6.63076 120.727 6.66194 120.813 6.69312 120.887H28.6415V116.992H5.39795ZM9.95503 120.647H8.03626V117.237H9.95503V120.647ZM12.2743 120.647H10.3556V117.237H12.2743V120.647ZM14.5985 120.647H12.6749V117.237H14.5937L14.5985 120.647ZM16.9202 120.647H15.0014V117.237H16.9202V120.647ZM19.2443 120.647H17.3255V117.237H19.2443V120.647ZM21.5684 120.647H19.6496V117.237H21.5684V120.647ZM23.8901 120.647H21.9713V117.237H23.8901V120.647ZM26.2118 120.647H24.2931V117.237H26.2118V120.647ZM28.5335 120.647H26.6148V117.237H28.5335V120.647Z" fill="#07A997"/>
<path opacity="0.1" d="M10.8188 128.352C10.8788 128.428 10.9364 128.515 10.9987 128.591H12.2675V130.23C12.4042 130.393 12.5385 130.556 12.6777 130.709V128.582H14.5964V132.004H13.8193C13.8961 132.084 13.9704 132.168 14.0592 132.244H28.649V128.352H10.8188ZM16.9133 132.004H14.9946V128.596H16.9133V132.004ZM19.2375 132.004H17.3187V128.596H19.2375V132.004ZM21.5616 132.004H19.6428V128.596H21.5616V132.004ZM23.8833 132.004H21.9645V128.596H23.8833V132.004ZM26.205 132.004H24.2862V128.596H26.205V132.004ZM28.5267 132.004H26.6079V128.596H28.5267V132.004Z" fill="#07A997"/>
<path opacity="0.1" d="M23.6235 139.708C23.8418 139.833 24.0649 139.948 24.2903 140.073V139.953H26.2091V141.032L26.6168 141.221V139.953H28.5356V142.027C28.5724 142.046 28.611 142.06 28.6507 142.07V139.708H23.6235Z" fill="#07A997"/>
<path opacity="0.1" d="M151.75 114.86C151.795 115.014 151.834 115.167 151.877 115.318C151.838 115.167 151.798 115.014 151.75 114.86ZM37.0718 44.168V45.1921H47.7857V44.168H37.0718ZM151.75 114.86C151.795 115.014 151.834 115.167 151.877 115.318C151.838 115.167 151.798 115.014 151.75 114.86ZM151.75 114.86C151.795 115.014 151.834 115.167 151.877 115.318C151.838 115.167 151.798 115.014 151.75 114.86Z" fill="#07A997"/>
<path d="M111.693 91.0628C111.693 91.0628 110.748 90.9309 110.748 89.5541C110.748 88.1774 110.072 85.6063 110.072 85.6063C110.072 85.5943 109.486 81.1283 108.678 80.4184C107.87 79.7085 106.831 75.5399 106.831 75.5399C106.831 75.5399 106.654 73.2782 106.292 72.7913C105.93 72.3044 105.44 71.1123 104.718 69.4118C103.996 67.7113 100.986 66.5337 100.986 66.5337C100.986 66.5337 95.5442 63.3773 94.002 62.3484C93.8618 62.2638 93.7308 62.1649 93.611 62.0533C93.3424 61.7008 92.172 61.6936 92.172 61.6936C92.0496 60.9213 91.9321 60.0338 91.8937 59.2303C91.8937 59.144 91.8937 59.0577 91.8817 58.9713C93.6014 57.9548 94.8967 56.3521 95.5298 54.4574C95.5586 54.3663 95.5826 54.2703 95.6089 54.1792C95.712 54.1452 95.8068 54.0902 95.8873 54.0175C95.9679 53.9448 96.0324 53.8561 96.0767 53.7571C96.2158 53.4476 96.2182 53.0855 96.3909 52.7977C96.5923 52.4571 96.9761 52.2748 97.2783 52.0182C98.041 51.3706 98.2377 50.2793 98.2017 49.2863C98.1777 48.4828 98.0482 47.6721 98.0986 46.8735L98.1129 46.672C98.1273 46.5521 98.1441 46.4321 98.1657 46.317C98.2832 45.7222 98.5399 45.1609 98.6838 44.5709C98.8277 43.9809 98.8421 43.3165 98.5063 42.8081C98.0146 42.0621 96.9905 41.9134 96.091 41.8367C95.0717 41.7503 94.1603 41.8631 93.5079 41.0164C93.2026 40.5739 92.8591 40.159 92.4813 39.7764C92.347 39.6517 91.0423 38.8554 91.0423 38.8026C89.7688 38.2128 88.3254 38.1021 86.9769 38.4908C86.3005 38.6875 85.6625 39.0089 84.9766 39.1696C83.4967 39.5198 81.7938 39.1408 80.537 39.9875C79.8366 40.4672 79.4169 41.2299 79.0236 41.9734C78.7038 42.5858 78.3792 43.1974 78.0498 43.8082C77.5197 44.8132 76.9801 45.8349 76.757 46.9478C76.7101 47.19 76.6812 47.4353 76.6707 47.6817V47.6937C76.6707 47.7825 76.6707 47.8712 76.6707 47.96V48.0727C76.6707 48.1566 76.6707 48.2382 76.6851 48.3125C76.6994 48.3869 76.697 48.4109 76.7042 48.4612C76.7114 48.5116 76.7234 48.6243 76.7378 48.7011C76.7522 48.7778 76.781 48.9121 76.8098 49.0177C76.8218 49.0633 76.8386 49.1064 76.8529 49.1496C76.8769 49.2311 76.9057 49.3103 76.9369 49.3894C76.9537 49.4302 76.9705 49.4734 76.9897 49.5142C77.0256 49.5981 77.0688 49.6797 77.112 49.754C77.1312 49.7876 77.1456 49.8188 77.1648 49.8499C77.2317 49.9615 77.3054 50.0688 77.3854 50.1713C77.8987 50.8117 78.6542 51.2195 79.213 51.8191C79.213 51.8431 79.213 51.8671 79.213 51.8886C79.213 51.9558 79.213 52.0206 79.213 52.0877C79.2427 53.425 79.5986 54.7348 80.2499 55.9031C80.9011 57.0714 81.828 58.063 82.9498 58.7914C82.9498 58.8826 82.9618 58.9761 82.9666 59.0673C83.0134 59.7792 83.0046 60.4937 82.9403 61.2043C82.8426 61.0893 82.7203 60.9976 82.5825 60.9362C82.4447 60.8748 82.2948 60.8451 82.144 60.8493C82.0409 60.8443 81.9376 60.8532 81.837 60.8757L81.8154 60.8589V60.8805C81.2877 61.01 80.6377 61.5593 80.0165 63.1207C80.0165 63.1207 78.1265 65.2505 76.6875 65.1618C75.2484 65.073 71.6051 67.3779 71.6051 67.3779C71.6051 67.3779 68.0506 69.6853 67.2879 72.0358C66.8616 73.3686 66.3504 74.6728 65.7577 75.9405L61.3637 84.9947L60.553 92.1781C60.553 92.1781 61.0015 95.3728 60.9127 95.8597C60.824 96.3466 62.7572 100.738 62.7572 100.738C62.7572 100.738 69.1443 111.961 71.7538 112.536L71.9409 112.404C72.0525 112.463 72.171 112.507 72.2935 112.536L72.8307 112.157C72.863 112.58 72.8493 113.004 72.79 113.424C72.4302 114.532 72.9243 121.763 73.5527 123.181C74.1811 124.598 73.958 143.184 73.958 143.184L73.8693 144.824C73.8693 144.824 73.8693 144.877 73.8908 144.968L73.8693 145.357L73.934 145.39C74.0013 145.911 73.9794 146.439 73.8693 146.952C73.6438 147.671 73.5527 149.705 73.5527 149.705C73.5527 149.705 71.7562 161.189 72.6077 163.496C73.4591 165.804 74.1835 168.332 74.1835 168.332C74.1835 168.332 75.0829 171.21 74.2266 171.702C73.3704 172.193 70.9359 173.018 71.4372 174.218C71.8929 175.326 73.6222 178.295 73.8789 178.729L73.8573 178.957L73.5047 182.778C73.5618 183.282 73.6986 183.774 73.91 184.236C74.2962 185.068 75.0469 185.932 76.474 185.838C76.7138 185.821 76.9921 185.793 77.2607 185.757C79.8726 185.406 83.089 184.241 83.089 184.241C82.922 184.135 82.7689 184.008 82.6332 183.864C82.5049 183.74 82.4031 183.591 82.3343 183.426C82.2654 183.261 82.2309 183.084 82.2327 182.905C82.2711 182.209 80.9687 178.895 80.6449 178.079C80.5946 177.962 80.5682 177.894 80.5682 177.894C80.5682 177.894 83.5375 174.791 83.0434 172.04C83.0434 172.04 79.7575 170.121 80.8392 169.068C81.9209 168.015 83.8541 164.991 83.8541 164.991C83.8541 164.991 83.9428 153.682 83.8541 151.993C83.7615 150.821 83.8171 149.642 84.0196 148.484C84.0555 148.309 84.0987 148.139 84.1443 147.971C85.6403 148.194 87.1505 148.309 88.663 148.314C89.2146 148.314 89.7759 148.314 90.3419 148.281C90.3419 148.44 90.3491 148.613 90.3635 148.799C90.4882 151.6 90.7209 156.512 90.9104 158.337C91.179 160.954 92.6636 168.006 92.6636 168.006C92.6636 168.006 89.831 169.824 93.1577 174.304C93.1577 174.304 93.1577 175.928 92.9371 176.163C92.7015 176.931 92.5117 177.713 92.3686 178.504C92.2295 179.348 92.172 180.202 92.3974 180.645C92.9371 181.706 96.175 181.619 96.175 181.619L96.2541 181.605C96.8654 181.542 97.4832 181.601 98.0715 181.778C98.6599 181.955 99.2071 182.248 99.6815 182.639C100.912 183.627 105.582 183.193 108.11 182.878C109.1 182.754 109.762 182.639 109.762 182.639C109.794 182.526 109.806 182.409 109.796 182.293C109.769 181.672 109.283 180.31 105.982 179.094C105.982 179.094 102.879 177.007 102.922 175.189H102.857H102.497C102.759 175.175 102.927 175.189 102.927 175.189C102.927 175.189 101.711 170.752 102.207 170.392C102.704 170.032 101.217 165.115 101.217 165.115C101.217 165.115 100.365 156.865 100.32 156.287C100.321 155.791 100.397 155.298 100.543 154.824L100.32 150.3C100.32 150.3 100.276 148.796 100.32 148.307C100.312 147.882 100.278 147.458 100.216 147.038C100.195 146.87 100.173 146.695 100.149 146.523C101.312 146.227 102.068 145.954 102.068 145.954L101.934 130.208C102.922 128.289 103.104 124.08 103.099 121.094C103.099 119.175 103.013 117.755 103.013 117.755L104.363 115.551C104.363 115.551 104.675 112.913 104.181 112.335C103.963 112.073 104.061 111.802 104.241 111.579C104.334 111.505 104.433 111.438 104.536 111.378C104.536 111.378 104.522 111.356 104.505 111.325C104.599 111.246 104.699 111.175 104.805 111.112C104.805 111.112 104.325 110.368 104.754 110.054C105.157 110.327 105.517 110.534 105.79 110.701C105.771 110.877 105.752 110.977 105.752 110.977L105.867 110.737C106.131 110.886 106.292 110.977 106.292 110.977C106.292 110.977 108.407 106.763 108.362 106.142C108.316 105.521 109.801 102.904 109.801 102.904C109.801 102.904 109.981 101.53 110.791 100.954C111.602 100.378 111.42 96.2075 111.42 96.2075C111.42 96.2075 111.645 94.0345 112.185 93.147C112.724 92.2596 111.693 91.0628 111.693 91.0628ZM71.2166 89.2136L71.2573 90.2185C71.0175 89.8324 70.8448 89.5541 70.8448 89.5541L71.2166 89.2136Z" fill="url(#paint0_linear_1043_37455)"/>
<path d="M106.407 109.157L105.889 111.364C105.889 111.364 101.74 109.246 100.991 106.555C100.243 103.864 102.243 102.842 102.243 102.842L106.11 104.48L106.407 109.157Z" fill="white"/>
<path opacity="0.1" d="M106.407 109.157L105.889 111.364C105.889 111.364 101.74 109.246 100.991 106.555C100.243 103.864 102.243 102.842 102.243 102.842L106.11 104.48L106.407 109.157Z" fill="black"/>
<path d="M83.1205 184.255C83.1205 184.255 79.283 185.665 76.6446 185.843C75.2439 185.937 74.5076 185.078 74.1287 184.25C73.9216 183.79 73.7881 183.301 73.7329 182.799L74.0759 178.998L74.2582 176.973L79.8634 175.518L80.6573 177.945L80.7316 178.13C81.0506 178.94 82.329 182.238 82.2906 182.926C82.2891 183.103 82.3231 183.277 82.3907 183.44C82.4583 183.603 82.558 183.751 82.684 183.874C82.8127 184.019 82.9594 184.147 83.1205 184.255Z" fill="white"/>
<path d="M109.333 182.322C109.343 182.437 109.331 182.554 109.3 182.665C109.3 182.665 101.092 184.034 99.4131 182.665C98.9397 182.265 98.3879 181.968 97.7932 181.794C97.1984 181.619 96.5737 181.571 95.9593 181.653C95.9593 181.653 92.7837 181.739 92.2537 180.693C92.033 180.254 92.0906 179.403 92.2273 178.564C92.3667 177.777 92.5526 176.999 92.7837 176.235L92.9108 176.134L93.6664 175.527L102.512 175.266H102.579C102.536 177.074 105.582 179.149 105.582 179.149C108.817 180.348 109.295 181.703 109.333 182.322Z" fill="white"/>
<path opacity="0.1" d="M109.333 182.322C109.341 182.437 109.329 182.554 109.297 182.665C109.297 182.665 101.091 184.034 99.4125 182.665C98.9395 182.265 98.3881 181.969 97.7938 181.794C97.1994 181.62 96.5752 181.572 95.9612 181.653C95.9612 181.653 92.7832 181.739 92.2555 180.693C92.0349 180.252 92.09 179.403 92.2267 178.563C93.45 178.686 95.3807 178.99 96.1386 179.717C97.2851 180.823 99.2279 181.926 100.42 182.012C101.353 182.072 106.934 182.25 109.333 182.322Z" fill="black"/>
<path opacity="0.1" d="M83.1198 184.255C83.1198 184.255 79.2823 185.665 76.644 185.843C75.2433 185.936 74.5069 185.078 74.1304 184.248C75.1065 184.577 76.4617 184.922 77.174 184.605C78.0183 184.231 81.0116 183.989 82.6905 183.886C82.8183 184.026 82.9624 184.15 83.1198 184.255Z" fill="black"/>
<path d="M88.8147 70.6037C85.6487 69.3733 81.5761 65.3079 82.5931 63.4083C82.8189 62.9289 82.9531 62.4116 82.9888 61.8829C83.0542 61.1652 83.0639 60.4434 83.0176 59.7242C82.9463 58.5464 82.8045 57.3738 82.5931 56.2129C82.5931 56.2129 92.4771 56.4359 91.9015 57.8918C91.7336 58.3187 91.7072 59.0599 91.7528 59.8897C91.7984 60.7196 91.9183 61.6574 92.043 62.4513C92.2157 63.5402 92.3884 64.3701 92.3884 64.3701C92.3884 64.3701 91.784 65.2167 91.429 65.2623C91.074 65.3079 93.3574 72.357 88.8147 70.6037Z" fill="#CF6F80"/>
<path opacity="0.1" d="M80.7246 178.13L80.6502 178.211C77.6953 174.637 74.1216 179.091 74.1216 179.091L74.0688 178.998L74.2511 176.973L79.8563 175.518L80.6502 177.945L80.7246 178.13Z" fill="black"/>
<path opacity="0.1" d="M102.582 175.517C102.582 175.517 100.423 175.472 99.272 176.489C98.1207 177.506 92.5563 176.709 92.7961 176.489C92.8672 176.379 92.91 176.254 92.9208 176.124L93.6763 175.517L102.522 175.256C102.555 175.417 102.582 175.517 102.582 175.517Z" fill="black"/>
<path d="M84.4013 147.453C84.2405 147.85 84.1184 148.262 84.0367 148.683C83.8367 149.836 83.7811 151.009 83.8712 152.175C83.96 153.854 83.8712 165.106 83.8712 165.106C83.8712 165.106 81.974 168.106 80.9163 169.164C79.8586 170.221 83.0749 172.121 83.0749 172.121C83.5546 174.855 80.6477 177.944 80.6477 177.944C77.6928 174.371 74.1191 178.827 74.1191 178.827C74.1191 178.827 72.1763 175.469 71.6918 174.27C71.2073 173.071 73.589 172.241 74.4261 171.754C75.2631 171.267 74.3853 168.396 74.3853 168.396C74.3853 168.396 73.6778 165.88 72.8383 163.585C71.9988 161.29 73.7641 149.863 73.7641 149.863C73.7641 149.863 73.8552 147.834 74.0735 147.127C74.1836 146.616 74.2055 146.09 74.1383 145.572C74.1239 145.397 74.1071 145.251 74.0951 145.153C74.0831 145.054 74.0735 145.009 74.0735 145.009L74.1071 144.951L75.3063 142.716C75.3063 142.716 84.9769 146.045 84.4013 147.453Z" fill="#07A997"/>
<path d="M102.581 175.253C102.581 175.253 100.423 175.208 99.2716 176.213C98.1203 177.218 92.5559 176.433 92.7957 176.213C93.0356 175.992 93.0164 174.359 93.0164 174.359C89.7521 169.902 92.5367 168.094 92.5367 168.094C92.5367 168.094 91.0784 161.078 90.8146 158.476C90.6299 156.658 90.4021 151.772 90.2797 148.983C90.227 147.784 90.1958 146.959 90.1958 146.959L92.8629 146.421L93.2059 146.352L99.6386 145.062C99.6386 145.062 99.816 146.261 99.936 147.242C99.9958 147.661 100.029 148.083 100.037 148.506C99.9935 148.985 100.037 150.487 100.037 150.487L100.255 154.989C100.112 155.461 100.039 155.951 100.037 156.445C100.08 157.018 100.917 165.225 100.917 165.225C100.917 165.225 102.373 170.123 101.876 170.476C101.38 170.828 102.581 175.253 102.581 175.253Z" fill="#07A997"/>
<path opacity="0.1" d="M91.9007 57.8918C91.7328 58.3187 91.7065 59.0599 91.752 59.8897C90.4281 60.687 88.9061 61.0946 87.3609 61.0658C85.8158 61.0369 84.3101 60.5728 83.0168 59.7266C82.9456 58.548 82.8038 57.3746 82.5923 56.2129C82.5923 56.2129 92.4764 56.4312 91.9007 57.8918Z" fill="black"/>
<path d="M95.7218 52.591C95.7237 53.4553 95.5877 54.3144 95.3189 55.1358C94.718 56.9763 93.4857 58.5451 91.84 59.565C90.1943 60.5848 88.241 60.9901 86.3254 60.7091C84.4098 60.4281 82.6552 59.4789 81.3717 58.0294C80.0882 56.5798 79.3585 54.7232 79.3115 52.7877C79.3115 52.7205 79.3115 52.6582 79.3115 52.591C79.2929 51.5015 79.4914 50.4193 79.8954 49.4073C80.2995 48.3953 80.901 47.474 81.6648 46.6969C82.4287 45.9199 83.3397 45.3027 84.3446 44.8814C85.3495 44.4601 86.4282 44.2432 87.5179 44.2432C88.6075 44.2432 89.6862 44.4601 90.6911 44.8814C91.696 45.3027 92.607 45.9199 93.3709 46.6969C94.1347 47.474 94.7362 48.3953 95.1403 49.4073C95.5443 50.4193 95.7428 51.5015 95.7242 52.591H95.7218Z" fill="#CF6F80"/>
<path opacity="0.1" d="M88.8147 70.6036C85.6487 69.3732 81.5761 65.3078 82.5931 63.4082C82.8189 62.9289 82.9531 62.4115 82.9888 61.8828L87.3228 65.4445L90.0043 67.6439L92.043 62.4536C92.2157 63.5425 92.3884 64.3724 92.3884 64.3724C92.3884 64.3724 91.784 65.2191 91.429 65.2646C91.074 65.3102 93.3574 72.3569 88.8147 70.6036Z" fill="black"/>
<path d="M100.022 86.3453L96.4032 147.146L91.683 147.456L79.4604 112.201L81.4656 70.3451L81.8877 61.502L87.3226 65.9655L90.0065 68.1649L92.1052 62.8235L96.0075 66.2245L100.022 86.3453Z" fill="#07A997"/>
<path opacity="0.1" d="M84.4011 147.453C84.2403 147.851 84.1182 148.263 84.0365 148.684C80.6019 148.153 77.2661 147.111 74.1404 145.592L74.0757 145.558L74.0973 145.172L74.1093 144.971L75.3085 142.735C75.3085 142.735 84.9767 146.045 84.4011 147.453Z" fill="black"/>
<path opacity="0.1" d="M92.918 148.693C92.04 148.842 91.1545 148.943 90.2653 148.995C90.2126 147.796 90.1814 146.971 90.1814 146.971L92.8485 146.434L92.918 148.693Z" fill="black"/>
<path opacity="0.1" d="M99.921 147.253C98.2157 147.697 95.5822 148.196 93.2245 147.884L93.1909 146.364L99.6236 145.073C99.6236 145.073 99.8011 146.26 99.921 147.253Z" fill="black"/>
<path opacity="0.1" d="M93.1818 148.163C83.348 149.842 74.3418 145.028 74.3418 145.028L74.4282 143.397C74.4282 143.397 74.6512 124.907 74.0324 123.49C73.4136 122.072 72.9315 114.884 73.2817 113.781C73.6319 112.677 72.0033 96.1328 72.0033 96.1328L71.7395 89.4171L62.0833 85.5052L66.4005 76.5061C66.9836 75.2444 67.4851 73.9466 67.9019 72.6206C68.6527 70.2845 72.1376 67.9892 72.1376 67.9892C72.1376 67.9892 75.7113 65.6962 77.124 65.7826C78.5367 65.8689 80.3883 63.7535 80.3883 63.7535C81.7555 60.2685 82.9931 61.8467 82.9931 61.8467C82.9931 62.0122 82.9931 61.8467 82.9259 62.3624C82.4462 66.1879 90.6826 78.2762 90.8001 78.4897L91.5844 97.5958L92.3783 121.775L93.1818 148.163Z" fill="black"/>
<path d="M92.9177 148.162C83.084 149.841 74.0754 145.028 74.0754 145.028L74.1641 143.397C74.1641 143.397 74.3872 124.907 73.766 123.489C73.1448 122.072 72.6651 114.884 73.0176 113.78C73.3702 112.677 71.7393 96.1325 71.7393 96.1325L71.473 89.4168L61.812 85.4905L66.1292 76.4915C66.7111 75.2292 67.2126 73.9315 67.6307 72.606C68.379 70.2699 71.8664 67.9745 71.8664 67.9745C71.8664 67.9745 75.4401 65.6816 76.8504 65.7679C78.2607 65.8543 80.1147 63.7388 80.1147 63.7388C81.4842 60.2539 82.9929 61.8321 82.9929 61.8321C82.9929 61.9976 82.849 62.0719 82.9257 62.3477C83.981 66.0582 90.4185 78.2615 90.536 78.475L91.3299 97.5812L92.1238 121.76L92.9177 148.162Z" fill="white"/>
<path opacity="0.1" d="M90.2677 79.0196C89.21 78.5783 83.6072 72.1816 83.6072 72.1816V70.7257C83.4033 70.246 82.1921 70.5386 81.2087 70.8744L81.6309 62.0312L82.1106 62.4294C83.1611 66.1374 90.1454 78.8061 90.2677 79.0196Z" fill="black"/>
<path d="M90.5336 78.4893C89.4734 78.048 83.8706 71.6513 83.8706 71.6513V70.1954C83.6668 69.7157 82.4555 70.0083 81.4722 70.3441L81.8967 61.501L82.3764 61.8991C83.4293 65.6072 90.416 78.2782 90.5336 78.4893Z" fill="white"/>
<path opacity="0.1" d="M74.3419 110.392C74.4738 110.392 81.1799 109.687 81.1799 109.687C81.1799 109.687 85.2405 117.671 84.9743 119.614C84.7081 121.557 84.226 123.276 82.5926 122.972C80.9593 122.667 73.8022 123.211 73.8022 123.211L74.3419 110.392Z" fill="black"/>
<path d="M74.0753 109.861C74.2072 109.861 80.9133 109.156 80.9133 109.156C80.9133 109.156 84.9715 117.143 84.7077 119.084C84.4439 121.024 83.957 122.746 82.326 122.441C80.6951 122.137 73.5356 122.681 73.5356 122.681L74.0753 109.861Z" fill="white"/>
<path d="M79.1297 106.113C79.1297 106.113 85.2841 109.421 85.416 110.431C85.5479 111.44 82.2836 109.989 81.5785 109.814C81.1144 109.702 80.6419 109.628 80.1658 109.593L75.4624 109.721L79.1297 106.113Z" fill="#CF6F80"/>
<path opacity="0.1" d="M88.5504 79.4329C88.9081 79.4329 89.198 79.1429 89.198 78.7853C89.198 78.4276 88.9081 78.1377 88.5504 78.1377C88.1928 78.1377 87.9028 78.4276 87.9028 78.7853C87.9028 79.1429 88.1928 79.4329 88.5504 79.4329Z" fill="black"/>
<path d="M88.5504 79.1682C88.9081 79.1682 89.198 78.8783 89.198 78.5206C89.198 78.163 88.9081 77.873 88.5504 77.873C88.1928 77.873 87.9028 78.163 87.9028 78.5206C87.9028 78.8783 88.1928 79.1682 88.5504 79.1682Z" fill="#3F3D56"/>
<path opacity="0.1" d="M89.7428 107.466C90.1004 107.466 90.3904 107.176 90.3904 106.818C90.3904 106.461 90.1004 106.171 89.7428 106.171C89.3851 106.171 89.0952 106.461 89.0952 106.818C89.0952 107.176 89.3851 107.466 89.7428 107.466Z" fill="black"/>
<path d="M89.7428 107.199C90.1004 107.199 90.3904 106.91 90.3904 106.552C90.3904 106.194 90.1004 105.904 89.7428 105.904C89.3851 105.904 89.0952 106.194 89.0952 106.552C89.0952 106.91 89.3851 107.199 89.7428 107.199Z" fill="#3F3D56"/>
<path opacity="0.1" d="M89.1959 93.4495C89.5536 93.4495 89.8435 93.1595 89.8435 92.8019C89.8435 92.4442 89.5536 92.1543 89.1959 92.1543C88.8383 92.1543 88.5483 92.4442 88.5483 92.8019C88.5483 93.1595 88.8383 93.4495 89.1959 93.4495Z" fill="black"/>
<path d="M89.1959 93.1848C89.5536 93.1848 89.8435 92.8949 89.8435 92.5372C89.8435 92.1796 89.5536 91.8896 89.1959 91.8896C88.8383 91.8896 88.5483 92.1796 88.5483 92.5372C88.5483 92.8949 88.8383 93.1848 89.1959 93.1848Z" fill="#3F3D56"/>
<path d="M104.124 109.459C104.124 109.459 104.565 110.121 104.124 110.43C103.683 110.74 104.167 111.488 104.167 111.488C104.167 111.488 103.066 112.133 103.551 112.714C104.035 113.294 103.728 115.916 103.728 115.916L102.404 118.108C102.404 118.108 102.483 119.52 102.488 121.43C102.488 124.409 102.313 128.596 101.344 130.505L101.478 146.17C101.478 146.17 96.8423 147.863 92.9615 147.347L92.3859 122.212C92.3859 122.212 93.2254 107.957 93.5348 105.223C93.7158 103.804 93.7896 102.373 93.7554 100.942C93.7554 100.942 93.6235 96.6631 93.1798 94.6772C93.1798 94.6772 92.7001 86.0739 92.6521 83.6922C92.6306 82.5529 92.6905 79.2286 92.7577 76.0675C92.832 72.6113 92.916 69.3518 92.916 69.3518L92.0405 62.425C92.0405 62.425 92.916 62.3362 93.1798 62.6888C93.298 62.7992 93.4265 62.898 93.5636 62.9838C95.0746 64.0056 100.414 67.1476 100.414 67.1476C100.414 67.1476 103.368 68.3228 104.076 70.0065C104.784 71.6903 105.275 72.8847 105.618 73.3644C105.961 73.8441 106.148 76.0986 106.148 76.0986C106.148 76.0986 107.165 80.248 107.959 80.9507C108.753 81.6535 109.333 86.1242 109.333 86.1242L102.318 91.6407C102.318 91.6407 101.702 100.817 101.57 101.172C101.438 101.527 104.124 109.459 104.124 109.459Z" fill="white"/>
<path d="M104.389 109.459C104.389 109.459 104.828 110.121 104.389 110.43C103.951 110.74 104.43 111.488 104.43 111.488C104.43 111.488 103.337 112.141 103.816 112.721C104.296 113.301 103.994 115.923 103.994 115.923L102.67 118.115C102.67 118.115 102.749 119.528 102.756 121.437C102.756 124.416 102.581 128.604 101.612 130.513L101.744 146.177C101.744 146.177 97.1005 147.871 93.2246 147.355L92.6514 122.219C92.6514 122.219 93.4908 107.965 93.8002 105.231C93.9815 103.811 94.0544 102.38 94.0185 100.949C94.0185 100.949 93.8866 96.6705 93.4452 94.6846C93.4452 94.6846 92.9655 86.0813 92.9152 83.6996C92.8936 82.5603 92.956 79.2361 93.0207 76.0749C93.0951 72.6187 93.179 69.3592 93.179 69.3592L92.0229 62.3389C92.0229 62.3389 93.179 62.3389 93.4452 62.6962C93.5623 62.8079 93.691 62.9068 93.829 62.9913C95.34 64.013 100.681 67.155 100.681 67.155C100.681 67.155 103.634 68.3302 104.341 70.014C105.049 71.6977 105.541 72.8921 105.886 73.3718C106.231 73.8515 106.414 76.1061 106.414 76.1061C106.414 76.1061 107.431 80.2554 108.225 80.9582C109.018 81.6609 109.592 86.1221 109.592 86.1221L102.576 91.6385C102.576 91.6385 101.96 100.815 101.825 101.17C101.691 101.525 104.389 109.459 104.389 109.459Z" fill="white"/>
<path opacity="0.1" d="M95.988 71.3956L96.6212 73.2424L93.2873 76.6003C93.3617 73.1465 93.4456 69.8846 93.4456 69.8846L92.2896 62.8643C92.2896 62.8643 93.4456 62.8643 93.7118 63.2216C93.8286 63.333 93.9573 63.4312 94.0956 63.5142L96.9306 71.693L95.988 71.3956Z" fill="black"/>
<path d="M95.7214 70.8653L96.357 72.7121L93.0231 76.07C93.0975 72.6138 93.1814 69.3543 93.1814 69.3543L92.0229 62.334C92.0229 62.334 93.1814 62.334 93.4452 62.6914C93.5629 62.8024 93.6915 62.9012 93.829 62.9864L96.6664 71.1627L95.7214 70.8653Z" fill="white"/>
<path opacity="0.1" d="M95.7218 52.591C95.7237 53.4553 95.5877 54.3144 95.3189 55.1358C95.2736 55.1429 95.2273 55.1408 95.1828 55.1296C95.1383 55.1185 95.0965 55.0986 95.0598 55.071C94.9975 52.9124 93.935 50.8857 92.6278 49.1612C92.2608 48.6405 91.8159 48.1794 91.3086 47.7941C90.7958 47.4089 90.158 47.2285 89.5194 47.288C88.7998 47.3863 88.1642 47.8756 87.4375 47.938C86.4781 48.0171 85.6195 47.3528 84.6673 47.3192C84.2802 47.3229 83.8983 47.4091 83.5472 47.572C83.196 47.735 82.8837 47.9709 82.631 48.2642C82.1308 48.856 81.7591 49.5453 81.5397 50.2885C81.1626 51.4154 80.9572 52.5926 80.9305 53.7806C80.9185 54.4522 80.8537 55.2941 80.2301 55.5387C80.2771 55.0448 80.2209 54.5466 80.0653 54.0755C79.9096 53.6044 79.6579 53.1708 79.3259 52.8021L79.3115 52.7877C79.3115 52.7205 79.3115 52.6582 79.3115 52.591C79.2929 51.5015 79.4914 50.4193 79.8954 49.4073C80.2995 48.3953 80.901 47.474 81.6648 46.6969C82.4287 45.9199 83.3397 45.3027 84.3446 44.8814C85.3495 44.4601 86.4282 44.2432 87.5179 44.2432C88.6075 44.2432 89.6862 44.4601 90.6911 44.8814C91.696 45.3027 92.607 45.9199 93.3709 46.6969C94.1347 47.474 94.7362 48.3953 95.1403 49.4073C95.5443 50.4193 95.7428 51.5015 95.7242 52.591H95.7218Z" fill="black"/>
<path d="M90.9157 39.5599C89.6694 38.9737 88.2518 38.8628 86.9294 39.2481C86.2651 39.4448 85.6391 39.7638 84.9651 39.9245C83.526 40.2723 81.8471 39.8957 80.6119 40.7376C79.9259 41.2173 79.5134 41.9752 79.1296 42.7115L78.1703 44.5391C77.6474 45.5393 77.1197 46.5563 76.9015 47.6571C76.6832 48.758 76.8151 49.9909 77.5131 50.8759C78.0215 51.5211 78.7723 51.9264 79.3239 52.5332C79.6544 52.9023 79.9051 53.3357 80.0603 53.8062C80.2155 54.2767 80.2718 54.7742 80.2257 55.2675C80.8517 55.0276 80.9117 54.1834 80.9261 53.5118C80.9528 52.3238 81.1582 51.1465 81.5353 50.0196C81.7542 49.2763 82.1259 48.5868 82.6266 47.9953C82.8795 47.7023 83.1919 47.4665 83.543 47.3036C83.8941 47.1407 84.2759 47.0543 84.6629 47.0503C85.6223 47.0839 86.4833 47.7459 87.4331 47.6667C88.1527 47.6068 88.7907 47.1151 89.515 47.0192C90.1537 46.9587 90.7918 47.1392 91.3042 47.5252C91.8113 47.91 92.2555 48.3712 92.621 48.8924C93.9306 50.6169 94.9931 52.6388 95.0555 54.8022C95.3265 55.0013 95.7174 54.7422 95.8517 54.4352C95.9861 54.1282 95.9908 53.7684 96.1611 53.4758C96.3578 53.1376 96.7344 52.9578 97.0294 52.7035C97.7777 52.0583 97.9648 50.9718 97.936 49.9861C97.9072 49.0003 97.7153 48.0001 97.9024 47.0312C98.0152 46.4363 98.2694 45.8799 98.4085 45.2923C98.5476 44.7046 98.5644 44.0451 98.2358 43.539C97.7561 42.7955 96.7464 42.6492 95.8661 42.5796C94.866 42.4933 93.9713 42.6036 93.3334 41.7617C93.0339 41.3224 92.6968 40.9099 92.326 40.5289C92.1989 40.4042 90.9157 39.6127 90.9157 39.5599Z" fill="#512E4E"/>
<path opacity="0.1" d="M64.8467 90.1387L62.3403 85.5049L61.5464 92.6547C61.5464 92.6547 61.9877 95.8303 61.899 96.3172C61.8102 96.8041 63.7074 101.169 63.7074 101.169C63.7074 101.169 69.9746 112.332 72.5338 112.907L81.1802 106.729L78.8873 103.817C78.8873 103.817 78.0934 103.508 77.8943 103.817C77.8943 103.817 73.637 96.4923 73.1957 95.9622C72.7544 95.4321 72.8408 94.3744 72.8408 94.3744C72.8408 94.3744 72.1788 93.6693 72.3994 93.0073C72.6201 92.3453 71.1211 90.05 71.1211 90.05L72.4882 88.7716L64.8467 90.1387Z" fill="black"/>
<path d="M62.4717 84.9775L61.8098 85.5052L61.0159 92.655C61.0159 92.655 61.4572 95.8306 61.3684 96.3175C61.2797 96.8044 63.1793 101.17 63.1793 101.17C63.1793 101.17 69.4441 112.332 72.0032 112.908L80.6521 106.729L78.3568 103.817C78.3568 103.817 77.5629 103.508 77.3638 103.817C77.3638 103.817 73.1065 96.4926 72.6652 95.9625C72.2239 95.4325 72.3126 94.3747 72.3126 94.3747C72.3126 94.3747 71.6507 93.6696 71.8713 93.0076C72.092 92.3456 70.5905 90.0503 70.5905 90.0503L71.9577 88.7719L62.4717 84.9775Z" fill="white"/>
<path opacity="0.1" d="M103.55 112.987C104.03 113.569 103.728 116.186 103.728 116.186L102.404 118.378C102.404 118.378 102.483 119.793 102.488 121.7L100.262 122.396C100.061 122.459 99.8478 122.472 99.6402 122.436C99.4326 122.4 99.2367 122.314 99.0689 122.187C98.9011 122.059 98.7662 121.893 98.6754 121.703C98.5847 121.513 98.5407 121.304 98.5473 121.093L98.931 108.715L104.124 110.701C103.682 111.008 104.167 111.761 104.167 111.761C104.167 111.761 103.066 112.404 103.55 112.987Z" fill="black"/>
<path d="M103.816 112.72C104.296 113.303 103.994 115.922 103.994 115.922L102.67 118.115C102.67 118.115 102.749 119.527 102.756 121.436L100.49 122.144C100.293 122.205 100.084 122.219 99.8806 122.183C99.6775 122.147 99.4858 122.063 99.3215 121.938C99.1573 121.814 99.0253 121.651 98.9364 121.465C98.8475 121.279 98.8044 121.074 98.8107 120.868L99.1968 108.451L104.392 110.437C103.948 110.744 104.433 111.495 104.433 111.495C104.433 111.495 103.337 112.14 103.816 112.72Z" fill="white"/>
<path d="M105.536 106.821C105.536 106.821 105.184 109.073 104.301 109.205C103.418 109.337 103.023 112.848 102.142 112.724C101.262 112.599 101.845 109.459 101.876 108.85C101.907 108.241 100.917 105.718 101.658 105.144C102.399 104.571 104.745 105.144 104.745 105.144L105.536 106.821Z" fill="#CF6F80"/>
<path opacity="0.1" d="M107.415 89.477L109.079 86.1191C109.079 86.1191 109.741 88.6783 109.741 90.0454C109.741 91.4126 110.667 91.5469 110.667 91.5469C110.667 91.5469 111.682 92.7461 111.147 93.6191C110.612 94.4922 110.396 96.6652 110.396 96.6652C110.396 96.6652 110.571 100.812 109.777 101.385C108.983 101.959 108.818 103.328 108.818 103.328C108.818 103.328 107.36 105.93 107.405 106.549C107.451 107.168 105.376 111.358 105.376 111.358C105.376 111.358 106.391 106.151 100.478 103.901C100.478 103.901 100.433 102.134 100.874 101.649C101.315 101.165 102.004 100.944 101.572 98.4952C101.14 96.0464 101.447 93.1203 101.447 92.5326C101.447 91.945 102.771 88.2802 102.771 88.2802L107.415 89.477Z" fill="black"/>
<path d="M108.134 85.6396L109.587 86.1193C109.587 86.1193 110.252 88.6785 110.252 90.0456C110.252 91.4128 111.177 91.5471 111.177 91.5471C111.177 91.5471 112.192 92.7463 111.657 93.6193C111.122 94.4924 110.909 96.6654 110.909 96.6654C110.909 96.6654 111.084 100.812 110.29 101.386C109.496 101.959 109.319 103.328 109.319 103.328C109.319 103.328 107.863 105.931 107.908 106.549C107.954 107.168 105.877 111.358 105.877 111.358C105.877 111.358 106.894 106.151 100.979 103.902C100.979 103.902 100.936 102.134 101.377 101.649C101.819 101.165 102.507 100.944 102.075 98.4954C101.644 96.0466 101.951 93.1205 101.951 92.5328C101.951 91.9452 103.275 88.2804 103.275 88.2804L108.134 85.6396Z" fill="white"/>
<path opacity="0.1" d="M76.0308 172.673C76.0308 172.673 78.3477 171.217 79.8683 172.275C81.3889 173.333 76.0308 172.673 76.0308 172.673Z" fill="black"/>
<path opacity="0.1" d="M94.0337 168.171C94.0337 168.171 96.0844 167.907 97.8065 169.761C99.5286 171.615 94.0337 168.171 94.0337 168.171Z" fill="black"/>
<g opacity="0.1">
<path d="M97.0337 52.1787C96.7387 52.433 96.3597 52.6152 96.1631 52.9534C95.9952 53.2436 95.9904 53.601 95.8561 53.9128C95.7218 54.2246 95.3308 54.4789 95.0598 54.2822C94.9974 52.1236 93.9325 50.0969 92.6253 48.37C92.2599 47.8488 91.8157 47.3876 91.3086 47.0028C90.7952 46.6169 90.1563 46.4364 89.5169 46.4968C88.7974 46.5951 88.1642 47.0844 87.4375 47.1443C86.4781 47.2259 85.617 46.5615 84.6648 46.5279C84.2779 46.5318 83.8962 46.6183 83.5454 46.7817C83.1947 46.9451 82.8829 47.1816 82.6309 47.4753C82.1302 48.0659 81.7585 48.7546 81.5396 49.4972C81.1627 50.6242 80.9574 51.8014 80.9304 52.9894C80.916 53.6586 80.8537 54.4932 80.2349 54.7427C80.2493 54.9199 80.2493 55.0979 80.2349 55.2751C80.8585 55.0353 80.9208 54.191 80.9352 53.5195C80.9619 52.3314 81.1673 51.1542 81.5444 50.0273C81.7633 49.2839 82.135 48.5944 82.6357 48.003C82.8882 47.7101 83.2001 47.4743 83.5508 47.3113C83.9015 47.1484 84.2829 47.062 84.6696 47.058C85.629 47.0916 86.4925 47.7536 87.4423 47.6744C88.1618 47.6144 88.7998 47.1228 89.5217 47.0268C90.1611 46.9665 90.8 47.1469 91.3134 47.5329C91.8205 47.9177 92.2647 48.3789 92.6301 48.9C93.9373 50.6245 95.0022 52.6464 95.0646 54.8098C95.3356 55.0089 95.7266 54.7499 95.8609 54.4429C95.9952 54.1359 96 53.7761 96.1679 53.4835C96.3645 53.1453 96.7435 52.9654 97.0385 52.7112C97.7868 52.066 97.9739 50.9795 97.9451 49.9937C97.9451 49.9625 97.9451 49.9314 97.9451 49.9026C97.8996 50.7564 97.6717 51.6271 97.0337 52.1787Z" fill="black"/>
<path d="M79.3282 52.0089C78.7766 51.4021 78.0235 50.9968 77.5174 50.354C77.0913 49.785 76.8479 49.1 76.8194 48.3896C76.744 49.2773 76.9918 50.1623 77.5174 50.8816C78.0235 51.5268 78.7766 51.9322 79.3282 52.539C79.8579 53.1326 80.1759 53.8849 80.2325 54.6784C80.2692 54.1955 80.208 53.7102 80.0526 53.2514C79.8973 52.7927 79.6509 52.3701 79.3282 52.0089Z" fill="black"/>
<path d="M98.4128 44.7679C98.2713 45.3555 98.0195 45.9143 97.9044 46.5068C97.8362 46.9026 97.8113 47.3047 97.83 47.706C97.838 47.4774 97.8629 47.2497 97.9044 47.0248C98.0195 46.43 98.2713 45.8736 98.4128 45.2859C98.4953 44.9618 98.5221 44.6261 98.492 44.293C98.4771 44.453 98.4506 44.6117 98.4128 44.7679Z" fill="black"/>
</g>
<path opacity="0.1" d="M32.8145 182.425C45.7217 182.425 56.1851 180.745 56.1851 178.672C56.1851 176.599 45.7217 174.918 32.8145 174.918C19.9072 174.918 9.44385 176.599 9.44385 178.672C9.44385 180.745 19.9072 182.425 32.8145 182.425Z" fill="#07A997"/>
<path d="M33.568 106.766H32.0642V140.625H33.568V106.766Z" fill="#535461"/>
<path d="M43.0181 140.521L42.9246 142.047L42.7903 144.205L42.7351 145.102L42.6032 147.261L42.5456 148.158L42.4113 150.317L40.8955 174.798C40.8296 175.851 40.3648 176.84 39.5958 177.563C38.8267 178.285 37.8111 178.688 36.7557 178.688H28.8744C27.8193 178.688 26.804 178.285 26.0353 177.562C25.2666 176.84 24.8023 175.851 24.737 174.798L23.2284 150.3L23.0941 148.141L23.0389 147.244L22.9046 145.086L22.8494 144.189L22.7151 142.03L22.6192 140.505C22.6025 140.211 22.646 139.917 22.747 139.641C22.848 139.365 23.0044 139.112 23.2065 138.898C23.4086 138.685 23.6523 138.515 23.9225 138.399C24.1927 138.283 24.4837 138.223 24.7778 138.224H40.8979C41.1909 138.226 41.4802 138.289 41.748 138.407C42.0159 138.526 42.2566 138.698 42.4553 138.914C42.6539 139.129 42.8064 139.383 42.9032 139.659C43 139.936 43.0391 140.229 43.0181 140.521Z" fill="#3F3D56"/>
<path d="M42.9246 142.047L42.7903 144.198H22.8399L22.7056 142.047H42.9246Z" fill="#9D9CB5"/>
<path d="M42.7351 145.095L42.6032 147.249H23.0293L22.895 145.095H42.7351Z" fill="#9D9CB5"/>
<path d="M42.5454 148.148L42.4135 150.3H23.2185L23.0842 148.148H42.5454Z" fill="#9D9CB5"/>
<path d="M20.4097 119.455C29.1665 125.792 32.8218 135.703 32.8218 135.703C32.8218 135.703 22.2685 135.34 13.5093 129.004C4.75012 122.667 1.10205 112.759 1.10205 112.759C1.10205 112.759 11.6505 113.119 20.4097 119.455Z" fill="#07A997"/>
<path d="M1.09521 112.759C1.09521 112.759 12.0514 118.839 15.5652 123.873C19.0789 128.908 32.8221 135.703 32.8221 135.703" stroke="#535461" stroke-width="0.479693" stroke-miterlimit="10"/>
<path d="M26.0631 106.691C30.8288 110.137 32.8219 115.531 32.8219 115.531C32.8219 115.531 27.0776 115.335 22.3095 111.888C17.5413 108.441 15.553 103.045 15.553 103.045C15.553 103.045 21.2949 103.242 26.0631 106.691Z" fill="#07A997"/>
<path d="M15.553 103.045C15.553 103.045 21.5156 106.355 23.4271 109.094C25.3387 111.833 32.8219 115.531 32.8219 115.531" stroke="#535461" stroke-width="0.479693" stroke-miterlimit="10"/>
<path d="M39.7411 115.259C34.2654 121.276 33.1069 129.141 33.1069 129.141C33.1069 129.141 40.8276 127.246 46.2985 121.226C51.7694 115.206 52.9327 107.344 52.9327 107.344C52.9327 107.344 45.2168 109.241 39.7411 115.259Z" fill="#07A997"/>
<path d="M52.9374 107.346C52.9374 107.346 45.8044 113.515 43.9912 117.765C42.1779 122.015 33.1069 129.141 33.1069 129.141" stroke="#535461" stroke-width="0.479693" stroke-miterlimit="10"/>
<path d="M240.748 113.141C240.748 113.141 236.788 93.4396 238.304 90.9884C238.304 90.9884 238.359 88.7099 238.268 85.8053C238.268 85.695 238.268 85.5847 238.268 85.4719C238.534 85.6497 238.812 85.81 239.1 85.9516C240.497 86.6692 242.1 86.8762 243.633 86.5369L242.434 85.2009C242.146 84.8819 241.846 84.5365 241.784 84.1144C241.721 83.6923 241.894 83.3157 242.043 82.9392C243.182 80.061 243.242 76.4417 241.047 74.2447C239.193 72.3979 238.743 70.0138 236.73 68.3277C235.26 67.0925 234.452 65.2817 233.689 63.5308C233.044 62.0509 232.394 60.5591 232.024 58.9905C231.737 57.7649 231.622 56.4961 231.226 55.2992C230.83 54.1024 230.089 52.9392 228.93 52.4043C228.518 52.2148 228.06 52.1069 227.683 51.855C227.189 51.5217 226.892 50.9796 226.534 50.5047C224.719 48.1062 218.639 49.5189 215.76 50.4927C214.978 50.7379 214.253 51.1394 213.631 51.6728L213.657 51.6296C213.679 51.5936 213.705 51.5576 213.729 51.5217C213.414 51.7764 213.142 52.0801 212.923 52.4211C212.503 53.0855 212.328 53.8602 211.978 54.5797C211.556 55.4312 209.208 57.808 210.218 58.765C210.288 58.8293 210.369 58.8812 210.457 58.9185C210.837 59.0763 211.254 59.118 211.657 59.0385L211.614 59.1416C211.269 59.9859 211.092 60.8894 211.093 61.8015C211.093 65.7422 214.343 68.9369 218.356 68.9369C219.11 68.9376 219.86 68.822 220.579 68.5939C220.596 68.6851 220.61 68.7762 220.627 68.8674C220.627 68.9033 220.639 68.9393 220.644 68.9753L220.517 69.1528C220.51 69.1418 220.503 69.1314 220.495 69.1216L216.729 74.3838C216.154 74.7892 212.839 77.1876 212.652 78.9865C212.455 80.9556 212.259 83.2606 212.259 83.2606L212.232 83.7546C212.068 83.8921 211.875 83.9923 211.668 84.0482C211.461 84.1041 211.245 84.1144 211.033 84.0784C209.858 83.8866 209.858 88.3957 209.858 88.3957C209.858 88.3957 209.076 89.1152 208.539 88.4916C208.001 87.868 206.582 89.9811 206.582 89.9811L197.683 90.3648L197.479 90.3768L197 88.8922C196.948 88.7355 196.837 88.6056 196.69 88.5306C196.543 88.4557 196.372 88.4416 196.215 88.4916C196.178 88.5038 196.142 88.5191 196.107 88.5372L196.074 88.5564L196.011 88.5995L195.98 88.6283C195.963 88.6439 195.947 88.6608 195.932 88.6787L195.904 88.7123L195.889 88.7267C195.834 88.8032 195.797 88.8917 195.782 88.985C195.767 89.0783 195.774 89.1738 195.803 89.2639L196.215 90.5375C194.498 90.8829 192.742 91.8567 194.174 94.5381L186.917 93.1974L189.265 95.1689L201.386 97.6705C201.226 97.9584 201.331 98.3757 201.833 98.9633C203.991 101.498 207.925 102.187 209.508 102.364C209.926 103.299 210.448 104.185 211.064 105.003L210.928 107.528C210.928 107.528 206.92 126.778 206.186 127.754C206.556 127.335 206.895 126.888 207.2 126.419C206.037 130.374 204.411 135.787 203.984 136.598C203.298 137.893 202.662 143.133 203.444 143.469C203.684 143.572 204.37 143.522 205.349 143.448V143.882L205.306 160.333C205.306 160.333 205.502 170.423 204.963 171.385C204.423 172.347 204.279 174.364 204.279 174.364C204.279 174.364 202.12 178.343 200.41 179.943C200.399 179.955 200.386 179.966 200.372 179.976L200.319 179.602C200.319 179.602 198.264 182.197 193.716 182.051C193.716 182.051 190.98 183.831 195.038 183.927C199.096 184.022 204.279 183.783 204.279 183.783C204.279 183.783 207.898 178.266 210.93 178.986V183.166H211.858V178.919C212.289 178.635 212.657 178.267 212.941 177.837C213.225 177.407 213.419 176.924 213.511 176.417C213.59 175.894 213.532 175.36 213.342 174.866C213.152 174.373 212.836 173.938 212.427 173.604C212.243 173.437 212.095 173.235 211.993 173.008C211.891 172.782 211.837 172.537 211.834 172.289L211.801 172.318C211.801 172.234 211.779 172.148 211.769 172.059C211.503 169.9 211.17 165.446 212.347 162.151C213.962 157.632 214.451 151.339 213.276 147.592C212.896 146.395 212.585 145.177 212.343 143.944C212.314 143.788 212.287 143.64 212.264 143.5C213.067 143.609 213.862 143.769 214.645 143.98C217.367 144.731 223.323 144.87 228.408 144.829C228.42 144.968 228.434 145.115 228.451 145.261C228.541 146.278 228.731 147.284 229.017 148.264C229.655 150.183 229.947 158.642 229.947 158.642C229.947 158.642 230.77 165.597 230.322 168.428C230.082 170.001 229.842 171.582 229.705 173.169V173.201C229.705 173.201 228.357 177.038 227.371 179.122C227.347 179.175 227.321 179.228 227.297 179.278C227.034 179.302 226.776 179.359 226.527 179.449C226.527 179.449 225.206 182.087 223.889 182.523C222.572 182.96 223.009 184.397 225.99 183.869C228.971 183.341 233.473 182.91 233.473 182.91L233.667 180.219L234.584 179.072L234.344 181.756L235.32 181.564L235.19 178.3L236.689 176.424C236.689 176.424 238.5 174.812 235.809 171.642V171.711C235.78 171.666 235.754 171.618 235.723 171.572V171.558C235.277 170.867 234.922 169.579 235.572 167.293C236.747 163.163 237.431 159.414 237.431 159.414C237.431 159.414 240.055 149.372 236.901 144.62H237.04C236.716 143.952 236.488 143.242 236.361 142.51C236.345 142.424 236.33 142.335 236.318 142.244C238.651 142.109 240.942 141.687 242.81 140.776C242.803 140.766 241.678 116.935 240.748 113.141ZM211.119 96.5193V96.5672L210.64 96.5912L211.119 96.5193ZM209.474 96.7471C209.395 96.7646 209.321 96.7999 209.258 96.8503C209.052 97.1421 208.922 97.4811 208.882 97.836L208.133 97.6681C208.133 97.6681 207.608 97.5554 206.853 97.4283L206.495 97.0685C207.479 96.987 208.5 96.867 209.474 96.7471Z" fill="url(#paint1_linear_1043_37455)"/>
<path d="M234.233 178.333L233.948 181.732L234.905 181.54L234.761 177.854L234.233 178.333Z" fill="#1D2366"/>
<path d="M212.4 162.196C211.247 165.482 211.573 169.916 211.832 172.07C211.928 172.867 212.017 173.351 212.017 173.351C212.017 173.351 210.292 177.28 210.148 177.428C210.004 177.577 205.073 180.587 205.073 180.587L201.626 182.6C201.626 182.6 198.129 181.067 199.806 180.539C200.149 180.402 200.457 180.191 200.71 179.923C202.389 178.328 204.497 174.363 204.497 174.363C204.497 174.363 204.641 172.351 205.169 171.394C205.697 170.437 205.505 160.38 205.505 160.38L205.546 143.987V141.85L212.105 141.898C212.147 142.623 212.241 143.345 212.388 144.056C212.624 145.285 212.929 146.499 213.302 147.692C214.458 151.431 213.979 157.694 212.4 162.196Z" fill="#FFB0B1"/>
<path opacity="0.1" d="M212.017 173.351C212.017 173.351 210.292 177.28 210.148 177.429C210.004 177.577 205.073 180.587 205.073 180.587L201.626 182.6C201.626 182.6 198.129 181.067 199.806 180.539C200.149 180.402 200.457 180.192 200.71 179.923L200.859 180.971L202.008 180.923L211.841 172.075C211.928 172.867 212.017 173.351 212.017 173.351Z" fill="black"/>
<path d="M211.896 172.299L202.007 181.207L200.859 181.255L200.619 179.576C200.619 179.576 198.609 182.161 194.143 182.017C194.143 182.017 191.461 183.79 195.436 183.886C199.41 183.982 204.485 183.742 204.485 183.742C204.485 183.742 208.03 178.225 210.997 178.945V183.111H211.908V178.907C212.332 178.621 212.694 178.253 212.972 177.825C213.249 177.396 213.438 176.916 213.525 176.412C213.604 175.894 213.548 175.364 213.363 174.873C213.177 174.382 212.869 173.948 212.467 173.611C212.288 173.443 212.144 173.239 212.046 173.014C211.948 172.788 211.897 172.545 211.896 172.299Z" fill="#1D2366"/>
<path d="M235.144 167.32C234.506 169.598 234.854 170.882 235.291 171.57V171.584C235.851 172.434 236.24 173.385 236.437 174.383L236.476 174.599L231.976 181.159L229.534 182.118C229.534 182.118 225.608 180.778 226.325 180.394C226.505 180.3 226.786 179.801 227.107 179.113C228.067 177.038 229.391 173.21 229.391 173.21V173.179C229.53 171.599 229.75 170.023 229.995 168.454C230.434 165.631 229.628 158.702 229.628 158.702C229.628 158.702 229.34 150.276 228.717 148.36C228.435 147.386 228.248 146.386 228.158 145.376C228.028 144.177 227.999 143.189 227.999 143.189C227.999 143.189 230.585 139.591 235.324 143.477C235.703 143.787 236.037 144.148 236.315 144.551C239.589 149.209 236.953 159.47 236.953 159.47C236.953 159.47 236.293 163.202 235.144 167.32Z" fill="#FFB0B1"/>
<path opacity="0.1" d="M236.482 174.599L231.983 181.158L229.541 182.118C229.541 182.118 225.615 180.777 226.332 180.393C226.512 180.3 226.793 179.801 227.114 179.112C228.776 179.098 229.637 180.681 229.637 180.681L231.743 180.345C231.743 180.345 234.52 174.886 235.144 174.553C235.768 174.22 235.24 172.061 235.24 172.061V171.512C235.257 171.531 235.271 171.552 235.29 171.572V171.586C235.85 172.436 236.24 173.387 236.437 174.385L236.482 174.599Z" fill="black"/>
<path d="M229.782 180.823C229.782 180.823 228.582 178.621 226.285 179.434C226.285 179.434 224.992 182.073 223.699 182.5C222.406 182.927 222.838 184.366 225.759 183.84C228.681 183.315 233.084 182.881 233.084 182.881L233.276 180.197L236.246 176.415C236.246 176.415 238.016 174.81 235.382 171.651V172.201C235.382 172.201 235.91 174.359 235.286 174.693C234.663 175.026 231.895 180.487 231.895 180.487L229.782 180.823Z" fill="#1D2366"/>
<path opacity="0.1" d="M212.112 141.894C212.154 142.619 212.248 143.341 212.395 144.052C209.695 143.657 207.188 143.853 205.545 143.983V141.846L212.112 141.894Z" fill="black"/>
<path opacity="0.1" d="M236.581 145.148C236.581 145.148 232.744 145.335 228.167 145.373C228.038 144.174 228.009 143.186 228.009 143.186C228.009 143.186 230.595 139.588 235.334 143.474C235.713 143.784 236.046 144.145 236.325 144.548C236.399 144.753 236.485 144.953 236.581 145.148Z" fill="black"/>
<path d="M236.581 144.716C236.581 144.716 219.773 145.529 214.65 144.093C209.527 142.656 204.449 143.901 203.684 143.567C202.919 143.234 203.54 138.013 204.212 136.72C204.883 135.427 208.567 122.353 208.567 122.353L212.112 103.87L215.846 102.841L216.11 102.767L222.617 100.973L227.386 99.6562C227.386 99.6562 236.867 136.672 236.054 139.401C235.758 140.446 235.711 141.546 235.914 142.613C236.039 143.341 236.263 144.049 236.581 144.716Z" fill="#1D2366"/>
<path d="M199.756 91.2305C199.756 91.2305 196.398 94.8282 198.94 96.8333C201.483 98.8384 203.154 97.0252 203.154 97.0252L199.756 91.2305Z" fill="#C7DAF5"/>
<path opacity="0.1" d="M199.756 91.2305C199.756 91.2305 196.398 94.8282 198.94 96.8333C201.483 98.8384 203.154 97.0252 203.154 97.0252L199.756 91.2305Z" fill="black"/>
<path d="M226.884 67.5764C226.884 67.5764 226.491 67.9506 225.899 68.5022C225.054 69.2913 223.805 70.445 222.697 71.4116C221.162 72.7475 219.895 73.7285 220.349 72.8914C220.802 72.0543 220.715 70.5961 220.49 69.2313C220.473 69.1402 220.459 69.0491 220.442 68.9603C220.255 67.958 220.008 66.968 219.701 65.9958C219.701 65.9958 222.181 62.7915 223.553 61.5275C224.064 61.0478 224.421 60.8511 224.443 61.1845C224.467 61.633 224.802 62.6236 225.22 63.6741C225.232 63.7077 225.244 63.7389 225.258 63.7724C225.536 64.492 225.851 65.2307 226.126 65.8687C226.549 66.8473 226.884 67.5764 226.884 67.5764Z" fill="#FFB0B1"/>
<path opacity="0.1" d="M225.258 63.7725C225.025 65.0261 224.46 66.194 223.621 67.1543C222.782 68.1146 221.701 68.8319 220.49 69.2315C220.299 68.1366 220.036 67.0557 219.701 65.9959C219.701 65.9959 224.371 59.9638 224.443 61.1846C224.459 61.6475 224.824 62.6741 225.258 63.7725Z" fill="black"/>
<path opacity="0.1" d="M220.024 70.8436L220.629 69.9922C220.629 69.9922 221.029 72.4338 222.502 71.3569C223.975 70.28 224.047 79.4613 224.047 79.4613L222.466 103.093L211.044 102.41L211.368 90.9907L212.661 85.2344L215.858 76.8662L217.76 74.1008L220.024 70.8436Z" fill="black"/>
<path d="M224.047 79.6071L222.608 100.975L222.457 103.239L216.089 102.858L215.849 102.843L211.052 102.556L211.376 91.1341L212.669 85.3778L215.866 77.0096L217.768 74.2441L220.032 70.975L220.637 70.126C220.637 70.126 221.037 72.5676 222.51 71.4907L222.541 71.4691C223.98 70.5577 224.047 79.6071 224.047 79.6071Z" fill="#1D2366"/>
<path d="M212.829 83.3779C212.829 83.3779 212.256 84.5772 211.104 84.3829C209.953 84.1886 209.955 88.7001 209.955 88.7001C209.955 88.7001 209.19 89.4197 208.663 88.7961C208.135 88.1725 206.744 90.2807 206.744 90.2807L198.028 90.6645C198.028 90.6645 201.906 92.4369 201.146 97.7999C201.146 97.7999 214.313 96.9844 214.745 95.7396C215.177 94.4948 212.829 83.3779 212.829 83.3779Z" fill="white"/>
<path opacity="0.03" d="M212.829 83.3779C212.829 83.3779 212.256 84.5772 211.104 84.3829C209.953 84.1886 209.955 88.7001 209.955 88.7001C209.955 88.7001 209.19 89.4197 208.663 88.7961C208.135 88.1725 206.744 90.2807 206.744 90.2807L198.028 90.6645C198.028 90.6645 201.906 92.4369 201.146 97.7999C201.146 97.7999 214.313 96.9844 214.745 95.7396C215.177 94.4948 212.829 83.3779 212.829 83.3779Z" fill="black"/>
<path d="M187.5 93.4824L189.797 95.4444L208.712 99.4186L206.366 97.025L187.5 93.4824Z" fill="white"/>
<path d="M220.061 71.599C219.746 72.0787 218.847 74.5347 218.096 76.679C217.47 78.4658 216.947 80.0368 216.947 80.0368C216.947 80.0368 215.726 87.9853 215.103 89.422C214.479 90.8587 214.817 96.4615 214.817 96.4615L212.493 110.298C212.493 110.298 211.44 117.434 209.814 121.696C208.21 125.891 206.423 127.857 206.368 127.92C207.087 126.946 211.009 107.773 211.009 107.773L212.304 83.5913C212.304 83.5913 212.493 81.2936 212.685 79.3293C212.877 77.3649 216.763 74.6834 216.763 74.6834L220.509 69.3564C220.886 69.8601 220.634 70.738 220.061 71.599Z" fill="white"/>
<path d="M210.291 102.676C210.291 102.676 204.775 102.437 202.103 99.2274C199.431 96.0182 208.279 97.9466 208.279 97.9466L210.579 98.4742L210.291 102.676Z" fill="#FFB0B1"/>
<path opacity="0.1" d="M236.053 139.404C235.758 140.449 235.71 141.549 235.914 142.616C229.896 143.043 223.459 141.416 223.459 141.416C222.26 142.52 219.101 144.146 219.101 144.146L217.379 122.799C216.278 119.921 215.846 104.842 215.846 104.842C215.846 104.842 215.945 104.053 216.086 102.871C216.086 102.842 216.086 102.811 216.098 102.782C216.527 99.4792 217.379 93.2791 217.796 92.4421C218.372 91.2908 216.026 88.228 216.026 88.228L217.093 79.1258L217.223 78.0273C219.473 77.0224 221.197 73.8132 221.197 73.8132L222.521 71.4939C223.96 70.5705 224.035 79.6199 224.035 79.6199L222.595 100.988L227.364 99.6711C227.364 99.6711 236.866 136.675 236.053 139.404Z" fill="black"/>
<path d="M242.23 140.879C235.67 144.136 223.747 141.119 223.747 141.119C222.548 142.222 219.389 143.848 219.389 143.848L217.664 122.502C216.566 119.624 216.134 104.544 216.134 104.544C216.134 104.544 217.521 93.2933 218.096 92.1444C218.264 91.8086 218.183 91.3098 217.983 90.7725C217.005 88.2153 216.645 85.4629 216.933 82.74L217.393 78.8281L217.521 77.732C219.773 76.7247 221.497 73.5155 221.497 73.5155L222.696 71.4145L224.903 67.5434L225.949 65.7109L226.126 65.8716L227.481 67.0997C227.481 67.0997 228.057 67.5793 228.92 68.2989C230.798 69.8819 234.044 72.6689 235.718 74.3742C237.19 75.8756 237.656 81.7159 237.79 86.1123C237.879 89.0072 237.826 91.2762 237.826 91.2762C236.341 93.7202 240.224 113.342 240.224 113.342C241.129 117.134 242.23 140.879 242.23 140.879Z" fill="white"/>
<path opacity="0.03" d="M229.638 73.4672C229.638 73.4672 225.136 82.0369 225.659 85.294C226.182 88.5512 227.669 92.2376 226.951 93.0986C226.705 93.4249 226.387 93.6897 226.021 93.8723C225.655 94.055 225.252 94.1506 224.843 94.1516C224.124 94.1995 222.205 95.5403 222.205 95.6842C222.205 95.8281 220.432 95.8281 218.847 96.4997C217.262 97.1712 214.921 97.5526 214.921 97.5526C214.921 97.5526 210.364 97.4087 209.939 97.8404C209.515 98.2721 209.078 100.855 209.987 102.916C210.896 104.976 211.906 106.513 212.669 106.794C213.431 107.075 218.271 105.453 222.198 105.069C226.124 104.686 230.386 101.575 230.386 101.575C230.386 101.575 235.08 99.8959 235.902 97.0729C236.725 94.2499 234.898 78.7342 234.898 78.7342C234.898 78.7342 233.516 71.5029 229.638 73.4672Z" fill="black"/>
<path opacity="0.03" d="M229.062 72.7478C229.062 72.7478 224.56 81.3199 225.088 84.5746C225.616 87.8293 227.098 91.5182 226.378 92.3816C226.133 92.7082 225.815 92.9733 225.449 93.156C225.084 93.3387 224.681 93.4341 224.272 93.4346C223.553 93.4825 221.634 94.8233 221.634 94.9672C221.634 95.1111 219.862 95.1111 218.276 95.7803C216.691 96.4494 214.35 96.8332 214.35 96.8332C214.35 96.8332 209.793 96.6893 209.371 97.121C208.949 97.5527 208.507 100.138 209.419 102.196C210.33 104.254 211.337 105.794 212.1 106.074C212.863 106.355 217.703 104.734 221.629 104.352C225.556 103.971 229.818 100.855 229.818 100.855C229.818 100.855 234.509 99.1765 235.322 96.3559C236.135 93.5353 234.317 78.0148 234.317 78.0148C234.317 78.0148 232.94 70.7858 229.062 72.7478Z" fill="black"/>
<path d="M229.496 73.0361C229.496 73.0361 224.994 81.6083 225.522 84.863C226.049 88.1177 227.532 91.8065 226.814 92.6676C226.569 92.9949 226.251 93.2607 225.885 93.4438C225.519 93.627 225.115 93.7225 224.706 93.7229C223.987 93.7709 222.068 95.1116 222.068 95.2531C222.068 95.3946 220.298 95.397 218.71 96.0686C217.122 96.7402 214.784 97.1215 214.784 97.1215C214.784 97.1215 210.227 96.9776 209.802 97.4093C209.378 97.8411 208.941 100.427 209.85 102.484C210.759 104.542 211.769 106.082 212.532 106.363C213.294 106.643 218.134 105.022 222.061 104.638C225.987 104.255 230.249 101.144 230.249 101.144C230.249 101.144 234.943 99.4648 235.766 96.6418C236.588 93.8188 234.773 78.3032 234.773 78.3032C234.773 78.3032 233.372 71.0838 229.496 73.0361Z" fill="white"/>
<path opacity="0.1" d="M229.398 96.0276C229.398 96.0276 225.8 95.308 227.052 96.5072C228.304 97.7065 228.297 98.757 229.83 98.709C231.362 98.6611 229.398 96.0276 229.398 96.0276Z" fill="black"/>
<path opacity="0.1" d="M235.478 121.83C235.478 121.83 233.852 122.931 236.963 125.469C240.074 128.006 235.478 121.83 235.478 121.83Z" fill="black"/>
<path opacity="0.1" d="M232.374 130.88C232.374 131.024 231.798 136.157 233.952 137.44C236.106 138.723 232.374 130.88 232.374 130.88Z" fill="black"/>
<path d="M198.177 90.6523C196.44 90.7123 192.689 91.2424 194.634 94.8712C196.354 98.0828 199.244 95.9362 200.87 94.3076C200.474 92.7892 199.51 91.4809 198.177 90.6523Z" fill="#FFB0B1"/>
<path opacity="0.1" d="M228.92 68.4453C227.078 69.7045 225.533 70.767 225.231 70.9877C224.406 71.5993 222.833 75.1898 221.818 77.0222C221.01 78.4973 218.384 78.8762 217.393 78.9697L217.52 77.8736C219.772 76.8663 221.497 73.6571 221.497 73.6571L225.948 65.8525L227.481 67.246C227.481 67.246 228.057 67.7257 228.92 68.4453Z" fill="black"/>
<path d="M228.92 68.3007C227.078 69.5599 225.533 70.6225 225.231 70.8455C224.406 71.4547 222.833 75.0452 221.818 76.8777C221.01 78.3527 218.384 78.7317 217.393 78.8252L217.52 77.7291C219.772 76.7218 221.497 73.5126 221.497 73.5126L225.948 65.708L227.481 67.0967C227.481 67.0967 228.057 67.5716 228.92 68.3007Z" fill="#DCE7FF"/>
<path d="M225.376 62.1898C225.377 63.6296 224.94 65.0356 224.124 66.2216C223.159 67.6238 221.725 68.634 220.079 69.0688C218.434 69.5035 216.688 69.3341 215.157 68.5913C213.625 67.8485 212.411 66.5815 211.735 65.0201C211.058 63.4587 210.963 61.7065 211.468 60.0813C211.973 58.4562 213.043 57.0657 214.485 56.1624C215.927 55.259 217.646 54.9025 219.328 55.1575C221.011 55.4126 222.546 56.2623 223.655 57.5526C224.765 58.8428 225.375 60.4881 225.376 62.1898Z" fill="#FFB0B1"/>
<path opacity="0.1" d="M237.79 86.1145C236.816 85.5153 236.023 84.6632 235.495 83.6489C235.094 82.8574 234.828 81.9436 234.144 81.3823C233.528 80.8786 232.705 80.7563 231.938 80.5309C229.415 79.7849 227.299 77.4824 227.22 74.8537C227.182 73.6161 227.568 72.3809 227.393 71.1553C227.293 70.4616 227.017 69.8051 226.592 69.2485C226.38 68.9823 226.148 68.7329 225.898 68.5026C225.563 68.186 225.21 67.879 224.903 67.5432C224.71 67.3353 224.541 67.1059 224.399 66.8596C224.285 66.6581 224.193 66.445 224.124 66.224C223.644 64.7562 224.08 63.0149 223.553 61.5302L223.524 61.4487C223.325 60.921 222.92 60.3934 222.356 60.3526C221.792 60.3118 221.31 60.7795 220.773 60.9882C219.648 61.4247 218.434 60.6812 217.497 59.9233C216.559 59.1653 215.501 58.2995 214.309 58.4674C213.52 58.5801 212.896 59.1174 212.17 59.3956C212.006 59.4591 211.836 59.5081 211.664 59.5419C212.279 58.0081 213.409 56.7364 214.859 55.9452C216.31 55.154 217.991 54.8928 219.614 55.2064C221.236 55.52 222.699 56.3888 223.75 57.6637C224.802 58.9385 225.376 60.5397 225.376 62.1922C225.376 62.6912 225.324 63.1889 225.22 63.6768C225.232 63.7104 225.244 63.7416 225.258 63.7752C225.536 64.4947 225.85 65.2334 226.126 65.8714L227.481 67.0995C227.481 67.0995 228.057 67.5792 228.921 68.2987C230.799 69.8817 234.044 72.6687 235.718 74.374C237.19 75.8802 237.651 81.7181 237.79 86.1145Z" fill="black"/>
<path d="M212.085 55.014C212.428 54.3161 212.599 53.5342 213.009 52.8722C213.611 51.9128 214.661 51.2988 215.741 50.927C218.559 49.9557 224.514 48.5454 226.294 50.927C226.644 51.4067 226.934 51.9392 227.419 52.2702C227.788 52.522 228.234 52.6299 228.64 52.8194C229.774 53.3519 230.498 54.5127 230.884 55.6976C231.271 56.8824 231.386 58.1536 231.669 59.3744C232.031 60.9406 232.667 62.4253 233.3 63.9003C234.046 65.6416 234.837 67.4477 236.276 68.6781C238.241 70.357 238.675 72.7339 240.498 74.5759C242.656 76.7633 242.587 80.373 241.474 83.2392C241.327 83.6157 241.162 84.0091 241.219 84.4096C241.277 84.8102 241.574 85.1747 241.855 85.4937L243.035 86.8249C240.243 87.4988 237.085 86.0406 235.785 83.4814C235.384 82.6899 235.118 81.7785 234.432 81.2148C233.818 80.7112 232.993 80.5913 232.228 80.3658C229.704 79.6175 227.589 77.3126 227.51 74.6838C227.471 73.4486 227.858 72.2134 227.683 70.9902C227.585 70.2919 227.308 69.6308 226.879 69.0714C226.219 68.2104 225.224 67.6323 224.687 66.673C223.778 65.0684 224.469 62.9841 223.814 61.262C223.612 60.7344 223.209 60.2067 222.646 60.1659C222.082 60.1251 221.6 60.5928 221.06 60.8015C219.938 61.238 218.724 60.4969 217.786 59.7366C216.849 58.9763 215.791 58.1128 214.597 58.2831C213.807 58.3935 213.186 58.9307 212.459 59.2113C211.922 59.4176 210.833 59.6023 210.363 59.149C209.37 58.2352 211.67 55.8679 212.085 55.014Z" fill="#591D4B"/>
<path opacity="0.1" d="M236.451 82.6899C236.048 81.8984 235.784 80.987 235.099 80.4258C234.485 79.9221 233.659 79.7998 232.892 79.5743C230.371 78.8284 228.256 76.5234 228.174 73.8947C228.136 72.6595 228.522 71.4219 228.349 70.1987C228.249 69.5049 227.972 68.8484 227.546 68.2919C226.884 67.4309 225.888 66.8528 225.354 65.8934C224.445 64.2913 225.135 62.207 224.478 60.4825C224.279 59.9572 223.874 59.4296 223.312 59.3864C222.751 59.3432 222.264 59.8157 221.727 60.0244C220.605 60.4609 219.389 59.7174 218.453 58.9595C217.518 58.2016 216.455 57.3357 215.263 57.5036C214.474 57.6163 213.851 58.1536 213.126 58.4318C212.589 58.6381 211.498 58.8252 211.028 58.3719C210.039 57.4125 212.339 55.05 212.752 54.2009C213.095 53.5006 213.265 52.7211 213.678 52.0591C213.699 52.0231 213.723 51.9871 213.747 51.9512C213.439 52.2068 213.173 52.5095 212.958 52.8482C212.548 53.5102 212.378 54.2873 212.035 54.99C211.62 55.8391 209.32 58.2088 210.31 59.161C210.79 59.6167 211.869 59.4296 212.407 59.2233C213.126 58.9427 213.755 58.4054 214.544 58.2951C215.743 58.1248 216.798 58.9907 217.734 59.7486C218.669 60.5065 219.892 61.25 221.01 60.8135C221.547 60.6048 222.017 60.1347 222.593 60.1779C223.169 60.2211 223.552 60.7463 223.761 61.274C224.416 62.9961 223.725 65.0804 224.634 66.6849C225.171 67.6275 226.167 68.2176 226.826 69.0834C227.255 69.6428 227.532 70.3039 227.63 71.0022C227.805 72.2254 227.419 73.4606 227.457 74.6958C227.536 77.3341 229.652 79.6295 232.175 80.3778C232.935 80.6032 233.765 80.7232 234.379 81.2268C235.067 81.7905 235.338 82.7019 235.732 83.4934C237.032 86.0526 240.19 87.5108 242.982 86.8368L242.426 86.2085C240.006 86.2444 237.557 84.8677 236.451 82.6899Z" fill="black"/>
<path opacity="0.1" d="M219.917 71.7431C219.602 72.2228 218.703 74.6788 217.952 76.8231C217.25 76.5496 216.612 74.806 216.612 74.806L220.358 69.4766C220.742 70.0042 220.49 70.8797 219.917 71.7431Z" fill="black"/>
<path d="M220.061 71.5991C219.746 72.0788 218.847 74.5348 218.096 76.6791C217.394 76.408 216.756 74.662 216.756 74.662L220.502 69.335C220.886 69.8602 220.634 70.7381 220.061 71.5991Z" fill="#DCE7FF"/>
<path d="M198.278 96.1019L196.201 89.5517C196.176 89.475 196.167 89.3942 196.174 89.314C196.18 89.2337 196.203 89.1556 196.24 89.0841C196.277 89.0125 196.327 88.949 196.389 88.8971C196.451 88.8453 196.522 88.8061 196.599 88.7818C196.753 88.7335 196.921 88.7483 197.064 88.8229C197.208 88.8974 197.317 89.0258 197.366 89.18L199.443 95.723L199.237 97.0925L198.278 96.1019Z" fill="#BE8B87"/>
<path opacity="0.1" d="M196.397 88.9763C196.552 88.9273 196.72 88.9417 196.865 89.0163C197.009 89.0909 197.118 89.2197 197.167 89.3744L199.244 95.9174L199.088 96.944L199.24 97.1023L199.446 95.7327L197.357 89.1897C197.307 89.0356 197.199 88.9072 197.055 88.8326C196.911 88.7581 196.744 88.7433 196.589 88.7916C196.459 88.8338 196.347 88.9182 196.27 89.0314C196.311 89.0095 196.354 88.9911 196.397 88.9763Z" fill="white"/>
<path d="M198.278 96.1018L199.443 95.7324L199.273 96.8549L199.237 97.1019L198.897 96.747L198.278 96.1018Z" fill="#EFC8C4"/>
<path d="M198.897 96.7466C198.917 96.721 198.943 96.6998 198.971 96.6843C198.988 96.6736 199.008 96.668 199.028 96.668C199.048 96.668 199.067 96.6736 199.084 96.6843C199.1 96.704 199.114 96.7258 199.125 96.749C199.141 96.7755 199.162 96.7981 199.188 96.8151C199.214 96.8321 199.243 96.8432 199.274 96.8474L199.238 97.0872L198.897 96.7466Z" fill="#727A9C"/>
<path d="M196.189 91.8779C196.189 91.8779 200.355 91.854 199.374 93.6264C198.393 95.3989 196.861 95.6124 196.861 95.6124L196.189 91.8779Z" fill="#FFB0B1"/>
<path d="M170.279 12.333H170.099C162.942 12.333 156.612 16.1202 152.971 21.7086C149.33 16.1202 143.001 12.333 135.844 12.333H135.664C130.293 12.3842 125.159 14.553 121.378 18.3682C117.597 22.1834 115.474 27.3366 115.471 32.708C115.471 39.3781 118.393 48.8424 124.089 56.6303C134.942 71.4696 152.971 84.4525 152.971 84.4525C152.971 84.4525 171 71.472 181.851 56.6303C187.55 48.8424 190.469 39.3781 190.469 32.708C190.466 27.337 188.344 22.1841 184.563 18.369C180.783 14.5539 175.649 12.3848 170.279 12.333ZM167.705 57.7719C166.89 57.7688 166.095 57.5193 165.424 57.0562C164.753 56.5931 164.238 55.9379 163.947 55.1768H159.668C159.386 55.175 159.112 55.0853 158.883 54.9202C158.655 54.7551 158.484 54.5228 158.394 54.2558L157.08 50.2959L152.921 64.8282C152.84 65.108 152.67 65.3539 152.438 65.5291C152.205 65.7042 151.922 65.7991 151.63 65.7996H151.547C151.243 65.7849 150.953 65.6664 150.726 65.4638C150.499 65.2613 150.348 64.987 150.299 64.6867L146.013 38.908L142.881 54.1623C142.809 54.452 142.642 54.7094 142.407 54.8933C142.172 55.0772 141.882 55.177 141.583 55.1768H135.556C135.375 55.1844 135.195 55.1555 135.026 55.0916C134.857 55.0277 134.702 54.9303 134.571 54.8051C134.441 54.68 134.337 54.5297 134.266 54.3634C134.195 54.1971 134.158 54.0181 134.158 53.8373C134.158 53.6564 134.195 53.4774 134.266 53.3111C134.337 53.1448 134.441 52.9945 134.571 52.8694C134.702 52.7442 134.857 52.6468 135.026 52.5829C135.195 52.5191 135.375 52.4901 135.556 52.4977H140.528L144.965 31.9884C145.038 31.6852 145.214 31.4167 145.463 31.2288C145.712 31.0409 146.018 30.9453 146.33 30.9584C146.641 30.9714 146.939 31.0922 147.171 31.3002C147.403 31.5083 147.556 31.7905 147.603 32.0988L151.981 58.3955L155.708 45.3935C155.785 45.1196 155.95 44.8782 156.176 44.7053C156.402 44.5324 156.678 44.4373 156.962 44.4341H156.989C157.271 44.4342 157.545 44.5232 157.773 44.6886C158.002 44.854 158.172 45.0873 158.26 45.3551L160.637 52.5049H163.894C164.125 51.8013 164.547 51.1755 165.112 50.6963C165.677 50.2171 166.363 49.9034 167.095 49.7896C167.827 49.6758 168.576 49.7665 169.259 50.0515C169.943 50.3366 170.534 50.805 170.969 51.4051C171.403 52.0052 171.663 52.7135 171.72 53.452C171.777 54.1905 171.629 54.9304 171.292 55.5901C170.955 56.2497 170.443 56.8034 169.811 57.1902C169.179 57.5769 168.453 57.7815 167.712 57.7815L167.705 57.7719Z" fill="#07A997"/>
</g>
<defs>
<linearGradient id="paint0_linear_1043_37455" x1="86.4444" y1="185.85" x2="86.4444" y2="38.263" gradientUnits="userSpaceOnUse">
<stop stop-color="#808080" stop-opacity="0.25"/>
<stop offset="0.54" stop-color="#808080" stop-opacity="0.12"/>
<stop offset="1" stop-color="#808080" stop-opacity="0.1"/>
</linearGradient>
<linearGradient id="paint1_linear_1043_37455" x1="215.266" y1="183.984" x2="215.266" y2="49.1904" gradientUnits="userSpaceOnUse">
<stop stop-color="#808080" stop-opacity="0.25"/>
<stop offset="0.54" stop-color="#808080" stop-opacity="0.12"/>
<stop offset="1" stop-color="#808080" stop-opacity="0.1"/>
</linearGradient>
<clipPath id="clip0_1043_37455">
<rect width="265.04" height="187.737" fill="white" transform="translate(0.97998)"/>
</clipPath>
</defs>
</svg>
