<svg width="115" height="31" viewBox="0 0 115 31" fill="none" xmlns="http://www.w3.org/2000/svg">
<g clip-path="url(#clip0_1043_37436)">
<path d="M22.0781 30.086V26.981H18.1166V30.086H17.0459V23.0195H18.1166V26.0174H22.0781V23.0195H23.1487V30.086H22.0781Z" fill="#07A997"/>
<path d="M26.3604 30.086V23.0195H31.1784V23.8761H27.5381V26.0174H31.1784V26.981H27.5381V29.2294H31.1784V30.086H26.3604Z" fill="#07A997"/>
<path d="M39.4229 30.086L38.7805 28.6941H35.2473L34.7119 30.193H33.5342L36.425 23.0195H37.7098L40.6006 30.193H39.4229V30.086ZM37.0674 23.8761L35.5685 27.7305H38.4593L37.0674 23.8761Z" fill="#07A997"/>
<path d="M43.1699 30.086V23.0195H44.2406V29.2294H47.4526V30.086H43.1699Z" fill="#07A997"/>
<path d="M50.9861 30.086V23.8761H48.8447V23.0195H54.3051V23.8761H52.0567V30.086H50.9861Z" fill="#07A997"/>
<path d="M62.121 30.086V26.981H58.1595V30.086H57.0889V23.0195H58.1595V26.0174H62.121V23.0195H63.1917V30.086H62.121Z" fill="#07A997"/>
<path d="M66.1897 26.553C66.1897 24.3046 67.7957 22.8057 69.83 22.8057C71.2219 22.8057 72.0784 23.4481 72.7208 24.3046L71.7572 24.8399C71.3289 24.1975 70.6865 23.7693 69.83 23.7693C68.331 23.7693 67.2604 24.947 67.2604 26.553C67.2604 28.159 68.331 29.3368 69.83 29.3368C70.6865 29.3368 71.436 28.9085 71.7572 28.2661L72.7208 28.8014C72.1855 29.658 71.3289 30.3004 69.83 30.3004C67.9028 30.3004 66.1897 28.8014 66.1897 26.553Z" fill="#07A997"/>
<path d="M80.5368 30.0856L80.0014 28.5867H76.4682L75.9329 30.0856H74.7551L77.6459 22.9121H79.0378L81.9286 30.0856H80.5368ZM78.2883 23.8757L76.8965 27.6231H79.7873L78.2883 23.8757Z" fill="#07A997"/>
<path d="M88.4596 30.0856L86.7465 27.3019H85.3546V30.0856H84.2839V22.9121H87.2818C88.6737 22.9121 89.5302 23.7686 89.5302 25.1605C89.5302 26.4453 88.6737 27.0877 87.7101 27.3019L89.5302 30.1927H88.4596V30.0856ZM87.1747 23.8757H85.3546V26.3383H87.1747C87.9242 26.3383 88.4596 25.8029 88.4596 25.0535C88.5666 24.411 88.0313 23.8757 87.1747 23.8757Z" fill="#07A997"/>
<path d="M92.6357 30.086V23.0195H97.4538V23.8761H93.7064V26.0174H97.4538V26.981H93.7064V29.2294H97.4538V30.086H92.6357Z" fill="#07A997"/>
<path d="M16.9388 0.85627C16.6176 1.0704 16.4035 1.17747 16.2964 1.28454C16.2964 1.28454 16.1893 1.39161 16.0823 1.49867C15.9752 1.60574 15.8681 1.71281 15.7611 1.92694C15.654 2.14108 15.5469 2.35521 15.3328 2.67641C15.2257 2.99761 15.0116 3.31881 14.7975 3.85415C14.4763 4.60362 14.1551 5.46016 13.7268 6.42376C13.5127 7.49443 13.0844 8.45804 12.6561 9.42164C12.2278 10.3852 11.7996 11.4559 11.4784 12.5266C11.0501 13.5973 10.7289 14.5609 10.3006 15.4174L9.1229 17.8799H8.8017C8.26636 16.5951 7.73103 15.3103 7.30276 14.1326C6.87449 12.9549 6.44622 11.7771 6.01795 10.7064C5.58968 9.63577 5.16142 8.5651 4.73315 7.49443C4.30488 6.42376 3.87661 5.46016 3.55541 4.38949C3.44834 4.06828 3.34127 3.85415 3.23421 3.64002C3.12714 3.42588 3.02007 3.21175 2.91301 2.99761C2.80594 2.78348 2.80594 2.56934 2.69887 2.46228C2.5918 2.24814 2.48474 2.03401 2.37767 1.81987C2.37767 1.71281 2.2706 1.60574 2.16354 1.49867C2.05647 1.39161 1.9494 1.17747 1.73527 1.0704C1.6282 0.963337 1.41407 0.749203 1.19993 0.642136C0.878731 0.535069 0.55753 0.535069 0.236328 0.535069V0.213867H7.51689V0.428001C7.40983 0.428001 7.30276 0.428001 7.08862 0.535069C6.87449 0.642136 6.66036 0.642136 6.44622 0.749203C6.23209 0.85627 6.01795 0.963337 5.80382 1.0704C5.69675 1.28454 5.58968 1.49867 5.58968 1.71281C5.58968 1.81987 5.69675 2.24814 5.80382 2.78348C6.01795 3.31881 6.23209 3.96122 6.44622 4.71069C6.76742 5.46016 7.08862 6.31669 7.40983 7.2803C7.73103 8.2439 8.1593 9.10044 8.4805 9.95698C8.8017 10.8135 9.1229 11.6701 9.4441 12.4195C9.7653 13.169 9.97944 13.8114 10.1936 14.2397C10.3006 14.0255 10.4077 13.7043 10.6218 13.169C10.836 12.6337 11.1572 11.8842 11.4784 11.0276C11.7996 10.1711 12.2278 9.20751 12.549 8.13684C12.9773 7.06616 13.4056 5.99549 13.8339 4.81775C14.1551 3.96122 14.3692 3.21175 14.4763 2.78348C14.5833 2.35521 14.5833 2.03401 14.5833 1.81987C14.5833 1.60574 14.4763 1.39161 14.3692 1.17747C14.1551 0.963337 14.048 0.85627 13.7268 0.749203C13.5127 0.642136 13.1915 0.535069 12.9773 0.535069C12.7632 0.428001 12.442 0.428001 12.2278 0.428001V0.213867H17.9024V0.428001C17.5812 0.535069 17.26 0.642136 16.9388 0.85627Z" fill="#07A997"/>
<path d="M32.9985 17.6658H18.1162V17.4517C18.5445 17.3446 18.8657 17.2375 19.2939 17.1305C19.6151 17.0234 19.9364 16.8093 20.1505 16.4881C20.2576 16.381 20.2576 16.2739 20.3646 16.0598C20.3646 15.8457 20.4717 15.6315 20.4717 15.4174C20.4717 15.2033 20.5788 14.8821 20.5788 14.6679C20.5788 14.4538 20.5788 14.1326 20.5788 13.9185C20.5788 13.7043 20.5788 13.3831 20.5788 12.9549C20.5788 12.5266 20.5788 12.0983 20.5788 11.67C20.5788 11.2418 20.5788 10.7064 20.5788 10.2782V8.8863V4.17535C20.5788 3.85415 20.5788 3.53295 20.5788 3.31881C20.5788 2.99761 20.5788 2.67641 20.5788 2.46228C20.5788 2.14108 20.4717 1.92694 20.4717 1.71281C20.3646 1.49867 20.3646 1.28454 20.2576 1.28454C20.0434 1.0704 19.7222 0.85627 19.5081 0.749203C19.2939 0.642136 18.8657 0.642136 18.4374 0.535069V0.213867H31.8208L33.4268 4.28242L33.2127 4.38949C31.9279 2.78348 30.6431 1.60574 29.5724 1.0704C29.2512 0.963337 28.8229 0.85627 28.0735 0.749203C27.324 0.642136 26.4674 0.642136 25.3968 0.642136C25.0756 0.642136 24.7544 0.642136 24.3261 0.642136C24.0049 0.642136 23.6837 0.642136 23.5766 0.749203C23.5766 0.963337 23.4696 1.49867 23.4696 2.35521C23.4696 3.21175 23.4696 4.06828 23.4696 5.13896V6.74496C23.4696 7.17323 23.4696 7.49443 23.4696 7.81563C23.4696 8.02977 23.4696 8.2439 23.4696 8.45804V8.5651H23.7908C24.0049 8.5651 24.3261 8.5651 24.6473 8.5651C24.9685 8.5651 25.2897 8.5651 25.6109 8.45804C25.9321 8.45804 26.1462 8.35097 26.3604 8.35097C26.8957 8.2439 27.2169 8.13684 27.5381 7.9227C27.8593 7.70857 28.0735 7.49443 28.2876 7.17323C28.5017 6.85203 28.6088 6.53083 28.8229 6.20963C29.0371 5.88843 29.0371 5.46016 29.1441 5.03189H29.4653V12.6337H29.1441C29.0371 12.0983 28.8229 11.563 28.5017 11.0276C28.1805 10.4923 28.0735 10.1711 27.7523 9.84991C27.5381 9.63577 27.2169 9.42164 26.7886 9.31457C26.4674 9.20751 26.0392 9.10044 25.5038 9.10044C25.2897 9.10044 25.0756 9.10044 24.8614 9.10044C24.6473 9.10044 24.5402 9.10044 24.3261 9.10044H23.7908H23.1484C23.1484 9.31457 23.1484 9.63577 23.1484 10.064V11.4559V12.2054V12.8478C23.1484 13.0619 23.1484 13.3831 23.1484 13.5973C23.1484 13.8114 23.1484 14.0255 23.1484 14.2397C23.1484 14.775 23.1484 15.2033 23.2554 15.7386C23.2554 16.1669 23.3625 16.5951 23.5766 16.8093C23.7908 17.0234 24.112 17.2375 24.6473 17.3446C25.1826 17.4517 25.825 17.4517 26.4674 17.4517C26.7886 17.4517 27.1098 17.4517 27.5381 17.4517C27.9664 17.4517 28.3947 17.3446 28.93 17.3446C29.4653 17.2375 29.8936 17.1305 30.3219 16.9163C30.7501 16.7022 31.1784 16.4881 31.6067 16.1669C32.0349 15.8457 32.3561 15.4174 32.7844 14.8821C33.2127 14.3467 33.5339 13.8114 33.9621 13.0619L34.1763 13.169L32.9985 17.6658Z" fill="#07A997"/>
<path d="M48.7382 17.6658C48.6311 17.5587 48.524 17.4517 48.417 17.3446C48.3099 17.2375 48.3099 17.2375 48.2028 17.1305C48.0957 17.0234 47.9887 16.9163 47.8816 16.7022C47.7745 16.4881 47.5604 16.2739 47.3463 15.8457C47.0251 15.4174 46.8109 14.9891 46.4897 14.6679C46.2756 14.3467 46.0615 13.9185 45.7403 13.5973C45.5261 13.2761 45.2049 12.8478 44.9908 12.5266C44.6696 12.2054 44.3484 11.7771 44.0272 11.3488C43.706 11.0276 43.3848 10.5994 42.9565 10.2782C42.5283 9.95698 42.2071 9.74284 41.7788 9.63577C41.4576 9.52871 41.2435 9.52871 41.0293 9.52871C40.9223 9.52871 40.7081 9.52871 40.494 9.52871V12.3125C40.494 13.0619 40.494 13.7043 40.494 14.2397C40.494 14.775 40.494 15.2033 40.494 15.5245C40.494 15.8457 40.601 16.1669 40.7081 16.4881C40.8152 16.7022 41.1364 16.9163 41.4576 17.1305C41.7788 17.3446 42.3141 17.4517 42.9565 17.5587V17.7729H35.1406V17.5587C35.5689 17.4517 35.8901 17.3446 36.3184 17.2375C36.6396 17.1305 36.9608 16.9163 37.1749 16.7022C37.282 16.5951 37.282 16.4881 37.389 16.2739C37.4961 16.0598 37.4961 15.8457 37.4961 15.6315C37.4961 15.4174 37.4961 15.0962 37.6032 14.8821C37.6032 14.5609 37.6032 14.3467 37.6032 14.1326C37.6032 13.9185 37.6032 13.5973 37.6032 13.169C37.6032 12.7407 37.6032 12.3125 37.6032 11.8842C37.6032 11.4559 37.6032 10.9206 37.6032 10.4923V8.8863V4.17535C37.6032 3.85415 37.6032 3.64002 37.6032 3.31881C37.6032 2.99761 37.6032 2.78348 37.6032 2.46228C37.8173 2.14108 37.7102 1.92694 37.7102 1.71281C37.6032 1.49867 37.6032 1.28454 37.4961 1.28454C37.282 1.0704 36.9608 0.85627 36.6396 0.749203C36.3184 0.642136 35.9972 0.535069 35.5689 0.535069V0.213867H36.5325C37.0678 0.213867 37.7102 0.213867 38.3526 0.213867C39.1021 0.213867 39.7445 0.213867 40.3869 0.213867H42.1C43.1707 0.213867 44.1343 0.213867 44.9908 0.320934C45.8473 0.428001 46.5968 0.642136 47.3463 0.963337C48.0957 1.28454 48.6311 1.81987 49.0594 2.46228C49.4876 3.10468 49.7018 3.85415 49.7018 4.92482C49.7018 5.56722 49.5947 6.10256 49.3806 6.53083C49.1664 6.9591 48.8452 7.38737 48.524 7.81563C48.2028 8.13684 47.7745 8.45804 47.2392 8.77924C46.7039 8.99337 46.2756 9.20751 45.7403 9.42164V9.52871C46.0615 9.63577 46.2756 9.74284 46.5968 10.064C46.8109 10.3852 47.1321 10.5994 47.3463 11.0276C47.7745 11.6701 48.2028 12.3125 48.7382 13.0619C49.2735 13.8114 49.7018 14.4538 50.023 14.9891C50.6654 15.8457 51.2007 16.4881 51.736 16.8093C52.2714 17.2375 52.9138 17.4517 53.7703 17.5587V17.7729H48.7382V17.6658ZM46.3827 2.56934C45.9544 1.92694 45.4191 1.39161 44.5625 1.0704C44.1343 0.85627 43.8131 0.749203 43.3848 0.642136C42.9565 0.535069 42.5283 0.535069 41.9929 0.535069C41.6717 0.535069 41.3505 0.535069 41.1364 0.535069C40.9223 0.535069 40.8152 0.535069 40.6011 0.535069C40.6011 0.642136 40.6011 0.749203 40.6011 0.749203C40.6011 0.749203 40.6011 0.963337 40.6011 1.0704C40.6011 1.17747 40.6011 1.39161 40.6011 1.49867C40.6011 1.71281 40.6011 2.03401 40.6011 2.35521C40.6011 2.89055 40.6011 3.53295 40.6011 4.28242C40.6011 5.03189 40.6011 5.67429 40.6011 6.31669V8.02977V8.99337C41.2435 8.99337 41.8859 8.99337 42.4212 8.8863C42.9565 8.77924 43.5989 8.67217 44.1343 8.5651C44.6696 8.35097 45.0979 8.13684 45.4191 7.9227C45.7403 7.81563 46.0615 7.49443 46.2756 7.17323C46.4897 6.85203 46.7039 6.42376 46.8109 5.99549C46.918 5.56722 47.0251 5.13896 47.0251 4.71069C47.0251 3.96122 46.8109 3.21175 46.3827 2.56934Z" fill="#07A997"/>
<path d="M53.9844 17.6658V17.4517C54.4126 17.3446 54.7338 17.2375 55.1621 17.1305C55.4833 17.0234 55.8045 16.8093 56.0186 16.4881C56.1257 16.381 56.1257 16.2739 56.2328 16.0598C56.2328 15.8457 56.3399 15.6315 56.3399 15.4174C56.3399 15.2033 56.3399 14.8821 56.3399 14.6679C56.3399 14.4538 56.3399 14.1326 56.3399 13.9185C56.3399 13.7043 56.3399 13.3831 56.3399 12.9549C56.3399 12.5266 56.3399 12.0983 56.3399 11.67C56.3399 11.2418 56.3399 10.7064 56.3399 10.2782V8.8863V4.17535V3.31881C56.3399 2.99761 56.3399 2.78348 56.3399 2.46228C56.3399 2.24814 56.2328 2.03401 56.2328 1.81987C56.2328 1.60574 56.1257 1.49867 56.0186 1.39161C55.8045 1.0704 55.4833 0.963337 55.1621 0.749203C54.8409 0.642136 54.4126 0.535069 53.9844 0.535069V0.213867H61.2649V0.428001C60.9437 0.428001 60.5155 0.535069 60.1943 0.642136C59.766 0.749203 59.5519 1.0704 59.3377 1.39161C59.2307 1.81987 59.1236 2.14108 59.1236 2.56934C59.1236 2.99761 59.1236 3.42588 59.1236 3.74708C59.1236 4.17535 59.1236 4.60362 59.1236 4.92482C59.1236 5.35309 59.1236 5.67429 59.1236 6.10256V7.38737V8.77924V14.2397C59.1236 14.6679 59.1236 15.2033 59.1236 15.6315C59.1236 16.0598 59.2307 16.381 59.3377 16.5951C59.5519 16.9163 59.8731 17.1305 60.3013 17.2375C60.7296 17.3446 61.0508 17.4517 61.4791 17.4517V17.6658H53.9844Z" fill="#07A997"/>
<path d="M80.5364 4.81802C80.4293 4.49682 80.2152 4.17562 80.1081 3.96148C79.894 3.64028 79.7869 3.31908 79.5728 3.10495C79.3586 2.78375 79.2516 2.56961 79.0374 2.35548C78.8233 2.14134 78.7162 1.92721 78.6092 1.82014C78.288 1.49894 77.8597 1.28481 77.5385 1.17774C77.1102 1.07067 76.682 0.963604 76.0396 0.963604C75.7184 0.963604 75.5042 0.963604 75.2901 0.963604C75.0759 0.963604 74.8618 0.963604 74.6477 0.963604H73.8982H73.0417C73.0417 1.39187 73.0417 1.92721 73.0417 2.56961C73.0417 3.21201 73.0417 3.96148 73.0417 4.71095V6.95936V8.77951V14.1329C73.0417 14.5611 73.0417 15.0965 73.0417 15.5247C73.0417 15.953 73.1487 16.2742 73.2558 16.4883C73.4699 16.8095 73.7911 17.1307 74.3265 17.2378C74.7547 17.3449 75.183 17.4519 75.5042 17.559V17.7731H67.5813V17.559C68.0095 17.559 68.4378 17.4519 68.759 17.3449C69.1873 17.2378 69.5085 16.9166 69.9367 16.5954C70.0438 16.4883 70.0438 16.3813 70.1509 16.1671C70.1509 15.953 70.2579 15.7389 70.2579 15.5247C70.2579 15.3106 70.2579 14.9894 70.2579 14.7753C70.2579 14.5611 70.2579 14.2399 70.2579 14.0258C70.2579 13.8117 70.2579 13.4905 70.2579 13.1693C70.2579 12.8481 70.2579 12.4198 70.2579 11.8845C70.2579 11.4562 70.2579 10.9208 70.2579 10.4926V8.88657V0.856537H69.4014H68.6519C68.4378 0.856537 68.2237 0.856537 68.0095 0.856537C67.7954 0.856537 67.4742 0.856537 67.153 0.856537C66.5106 0.856537 66.0823 0.963604 65.654 1.07067C65.2258 1.17774 64.9046 1.39187 64.5834 1.71307C64.4763 1.82014 64.2622 2.03428 64.1551 2.24841C63.941 2.46254 63.8339 2.67668 63.6198 2.99788C63.4056 3.21201 63.2986 3.53322 63.0844 3.85442C62.8703 4.17562 62.7632 4.49682 62.6562 4.71095H62.335L63.0844 0.107067C63.4056 0.214134 63.8339 0.214134 64.1551 0.321201C64.4763 0.321201 64.9046 0.428269 65.547 0.428269C66.1894 0.428269 66.7247 0.428269 67.153 0.428269C67.6883 0.428269 68.1166 0.428269 68.5449 0.428269H69.9367H71.5427H73.1487C73.6841 0.428269 74.1123 0.428269 74.5406 0.428269C74.9689 0.428269 75.5042 0.428269 75.9325 0.428269C76.4678 0.428269 77.0032 0.428269 77.5385 0.428269C78.0738 0.428269 78.5021 0.321201 78.8233 0.321201C79.1445 0.214134 79.5728 0.107067 79.894 0L80.6434 4.71095L80.5364 4.81802Z" fill="#07A997"/>
<path d="M96.2753 17.6658H81.5V17.4517C81.9283 17.3446 82.2495 17.2375 82.6777 17.1305C82.9989 17.0234 83.3201 16.8093 83.5343 16.4881C83.6413 16.381 83.6413 16.2739 83.7484 16.0598C83.7484 15.8457 83.8555 15.6315 83.8555 15.4174C83.8555 15.2033 83.9625 14.8821 83.9625 14.6679C83.9625 14.4538 83.9625 14.1326 83.9625 13.9185C83.9625 13.7043 83.9625 13.3831 83.9625 12.9549C83.9625 12.5266 83.9625 12.0983 83.9625 11.67C83.9625 11.2418 83.9625 10.7064 83.9625 10.2782V8.8863V4.17535C83.9625 3.85415 83.9625 3.53295 83.9625 3.31881C83.9625 2.99761 83.9625 2.67641 83.9625 2.46228C83.8555 2.14108 83.7484 1.92694 83.7484 1.71281C83.6413 1.49867 83.6413 1.28454 83.5343 1.28454C83.3201 1.0704 82.9989 0.85627 82.7848 0.749203C82.4636 0.642136 82.1424 0.642136 81.7141 0.535069V0.213867H95.0975L96.7035 4.28242L96.4894 4.38949C95.2046 2.78348 93.9198 1.60574 92.8491 1.0704C92.5279 0.963337 92.0996 0.85627 91.3502 0.749203C90.6007 0.642136 89.7442 0.642136 88.6735 0.642136C88.3523 0.642136 88.0311 0.642136 87.6028 0.642136C87.2816 0.642136 86.9604 0.642136 86.8534 0.749203C86.8534 0.963337 86.7463 1.49867 86.7463 2.35521C86.7463 3.21175 86.7463 4.06828 86.7463 5.13896V6.74496C86.7463 7.17323 86.7463 7.49443 86.7463 7.81563C86.7463 8.02977 86.7463 8.2439 86.7463 8.45804V8.5651H87.2816C87.4958 8.5651 87.817 8.5651 88.1382 8.5651C88.4594 8.5651 88.7806 8.5651 89.1018 8.45804C89.423 8.45804 89.6371 8.35097 89.8512 8.35097C90.3866 8.2439 90.7078 8.13684 91.029 7.9227C91.2431 7.70857 91.4572 7.49443 91.6714 7.2803C91.8855 6.9591 91.9926 6.6379 92.2067 6.31669C92.4208 5.99549 92.4208 5.56722 92.5279 5.13896H92.8491V12.7407H92.5279C92.4208 12.2054 92.2067 11.67 91.8855 11.1347C91.5643 10.5994 91.3502 10.1711 91.029 9.84991C90.8148 9.63577 90.4936 9.42164 90.0654 9.31457C89.7442 9.20751 89.3159 9.10044 88.7806 9.10044C88.5664 9.10044 88.3523 9.10044 88.1382 9.10044C87.924 9.10044 87.817 9.10044 87.6028 9.10044H87.0675H86.4251C86.4251 9.31457 86.4251 9.63577 86.4251 10.064V11.4559V12.2054V12.8478C86.4251 13.0619 86.4251 13.3831 86.4251 13.5973C86.4251 13.8114 86.4251 14.0255 86.4251 14.2397C86.4251 14.775 86.4251 15.2033 86.5322 15.7386C86.5322 16.1669 86.6392 16.5951 86.8534 16.8093C87.0675 17.0234 87.3887 17.2375 87.924 17.3446C88.4594 17.4517 89.1018 17.4517 89.7442 17.4517C90.0654 17.4517 90.3866 17.4517 90.8148 17.4517C91.2431 17.4517 91.6714 17.3446 92.2067 17.3446C92.7421 17.2375 93.1703 17.1305 93.5986 16.9163C94.0269 16.7022 94.4551 16.4881 94.8834 16.1669C95.3117 15.8457 95.6329 15.4174 96.0611 14.8821C96.4894 14.3467 96.8106 13.8114 97.2389 13.0619L97.453 13.169L96.2753 17.6658Z" fill="#07A997"/>
<path d="M113.085 0.85627C112.764 1.0704 112.442 1.17747 112.228 1.49867C111.907 1.71281 111.693 2.03401 111.479 2.46228C111.265 2.78348 110.943 3.21175 110.622 3.64002C110.408 3.96122 110.194 4.38949 109.766 4.92482C109.337 5.46016 109.016 5.99549 108.695 6.53083C108.374 7.06616 107.946 7.6015 107.624 8.13684C107.303 8.67217 106.982 9.10044 106.875 9.31457V14.2397C106.875 14.6679 106.875 15.2033 106.875 15.6315C106.875 16.0598 106.982 16.381 107.089 16.5951C107.303 16.9163 107.624 17.2375 108.053 17.3446C108.481 17.4517 108.802 17.5587 109.123 17.5587V17.7729H101.629V17.5587C102.057 17.5587 102.378 17.4517 102.699 17.3446C103.02 17.2375 103.342 17.0234 103.663 16.5951C103.77 16.4881 103.77 16.381 103.877 16.1669C103.877 15.9527 103.984 15.7386 103.984 15.5245C103.984 15.3103 103.984 14.9891 103.984 14.775C103.984 14.4538 103.984 14.2397 103.984 14.0255C103.984 13.5973 103.984 13.0619 103.984 12.4195C103.984 11.7771 103.984 11.0276 103.984 10.1711C103.984 10.1711 103.877 9.95698 103.663 9.74284C103.449 9.52871 103.342 9.20751 103.02 8.77924C102.806 8.35097 102.485 7.9227 102.271 7.49443C101.95 7.06616 101.736 6.53083 101.414 6.10256C101.093 5.67429 100.879 5.24602 100.665 4.81775C100.451 4.38949 100.237 4.06828 100.023 3.85415C99.7014 3.42588 99.4872 2.99761 99.166 2.56934C98.9519 2.14108 98.6307 1.81987 98.4166 1.60574C98.2024 1.28454 97.8812 1.0704 97.6671 0.963337C97.453 0.749203 97.1317 0.749203 96.8105 0.749203V0.213867H104.198V0.428001C103.984 0.428001 103.663 0.428001 103.449 0.535069C103.235 0.535069 103.02 0.642136 102.806 0.642136C102.592 0.642136 102.378 0.85627 102.271 0.963337C102.164 1.0704 102.057 1.28454 102.057 1.49867C102.057 1.71281 102.164 2.03401 102.378 2.46228C102.592 2.89055 102.806 3.31881 103.128 3.74708C103.342 4.06828 103.556 4.38949 103.77 4.81775C103.984 5.24602 104.305 5.67429 104.519 6.10256C105.162 6.6379 105.483 7.06616 105.804 7.49443C106.125 8.02977 106.34 8.45804 106.661 8.8863C106.875 8.5651 107.089 8.13684 107.41 7.70857C107.731 7.2803 108.053 6.74496 108.374 6.20963C108.695 5.67429 109.016 5.24602 109.23 4.81775C109.552 4.38949 109.766 3.96122 109.873 3.74708C109.98 3.64002 110.087 3.42588 110.087 3.31881C110.194 3.10468 110.301 2.99761 110.408 2.78348C110.515 2.56934 110.622 2.35521 110.622 2.24814C110.729 2.03401 110.729 1.92694 110.729 1.71281C110.729 1.49867 110.622 1.28454 110.515 1.0704C110.408 0.963337 110.194 0.85627 109.98 0.749203C109.766 0.642136 109.552 0.642136 109.337 0.535069C109.123 0.535069 108.909 0.428001 108.588 0.428001V0.213867H114.155V0.428001C113.834 0.535069 113.406 0.642136 113.085 0.85627Z" fill="#07A997"/>
</g>
<defs>
<clipPath id="clip0_1043_37436">
<rect width="114.026" height="30.3" fill="white" transform="translate(0.236328)"/>
</clipPath>
</defs>
</svg>
