<svg width="28" height="28" viewBox="0 0 28 28" fill="none" xmlns="http://www.w3.org/2000/svg">
<path d="M5.99857 20.8003C7.1319 19.9337 8.39857 19.2503 9.79857 18.7503C11.1986 18.2503 12.6652 18.0003 14.1986 18.0003C15.7319 18.0003 17.1986 18.2503 18.5986 18.7503C19.9986 19.2503 21.2652 19.9337 22.3986 20.8003C23.1763 19.8892 23.7819 18.8559 24.2152 17.7003C24.6486 16.5448 24.8652 15.3114 24.8652 14.0003C24.8652 11.0448 23.8263 8.5281 21.7486 6.45033C19.6708 4.37255 17.1541 3.33366 14.1986 3.33366C11.243 3.33366 8.72635 4.37255 6.64857 6.45033C4.57079 8.5281 3.5319 11.0448 3.5319 14.0003C3.5319 15.3114 3.74857 16.5448 4.1819 17.7003C4.61523 18.8559 5.22079 19.8892 5.99857 20.8003ZM14.1986 15.3337C12.8875 15.3337 11.7819 14.8837 10.8819 13.9837C9.9819 13.0837 9.5319 11.9781 9.5319 10.667C9.5319 9.35588 9.9819 8.25033 10.8819 7.35033C11.7819 6.45033 12.8875 6.00033 14.1986 6.00033C15.5097 6.00033 16.6152 6.45033 17.5152 7.35033C18.4152 8.25033 18.8652 9.35588 18.8652 10.667C18.8652 11.9781 18.4152 13.0837 17.5152 13.9837C16.6152 14.8837 15.5097 15.3337 14.1986 15.3337ZM14.1986 27.3337C12.3541 27.3337 10.6208 26.9837 8.99857 26.2837C7.37635 25.5837 5.96523 24.6337 4.76523 23.4337C3.56523 22.2337 2.61523 20.8225 1.91523 19.2003C1.21523 17.5781 0.865234 15.8448 0.865234 14.0003C0.865234 12.1559 1.21523 10.4225 1.91523 8.80032C2.61523 7.1781 3.56523 5.76699 4.76523 4.56699C5.96523 3.36699 7.37635 2.41699 8.99857 1.71699C10.6208 1.01699 12.3541 0.666992 14.1986 0.666992C16.043 0.666992 17.7763 1.01699 19.3986 1.71699C21.0208 2.41699 22.4319 3.36699 23.6319 4.56699C24.8319 5.76699 25.7819 7.1781 26.4819 8.80032C27.1819 10.4225 27.5319 12.1559 27.5319 14.0003C27.5319 15.8448 27.1819 17.5781 26.4819 19.2003C25.7819 20.8225 24.8319 22.2337 23.6319 23.4337C22.4319 24.6337 21.0208 25.5837 19.3986 26.2837C17.7763 26.9837 16.043 27.3337 14.1986 27.3337ZM14.1986 24.667C15.3763 24.667 16.4875 24.4948 17.5319 24.1503C18.5763 23.8059 19.5319 23.3114 20.3986 22.667C19.5319 22.0225 18.5763 21.5281 17.5319 21.1837C16.4875 20.8392 15.3763 20.667 14.1986 20.667C13.0208 20.667 11.9097 20.8392 10.8652 21.1837C9.82079 21.5281 8.86523 22.0225 7.99857 22.667C8.86523 23.3114 9.82079 23.8059 10.8652 24.1503C11.9097 24.4948 13.0208 24.667 14.1986 24.667ZM14.1986 12.667C14.7763 12.667 15.2541 12.4781 15.6319 12.1003C16.0097 11.7225 16.1986 11.2448 16.1986 10.667C16.1986 10.0892 16.0097 9.61144 15.6319 9.23366C15.2541 8.85588 14.7763 8.66699 14.1986 8.66699C13.6208 8.66699 13.143 8.85588 12.7652 9.23366C12.3875 9.61144 12.1986 10.0892 12.1986 10.667C12.1986 11.2448 12.3875 11.7225 12.7652 12.1003C13.143 12.4781 13.6208 12.667 14.1986 12.667Z" fill="#0F0F0F"/>
</svg>
