<svg width="29" height="28" viewBox="0 0 29 28" fill="none" xmlns="http://www.w3.org/2000/svg">
<g clip-path="url(#clip0_859_3956)">
<path d="M24.1835 28.0002H5.14956C5.09916 27.9832 5.0504 27.958 4.99835 27.9498C3.01502 27.6238 1.66504 26.5155 0.952796 24.6428C0.815826 24.2828 0.758298 23.8928 0.664062 23.5164C0.664062 17.1735 0.664062 10.8302 0.664062 4.48736C0.681047 4.43695 0.706797 4.38764 0.714468 4.33614C1.09305 1.79836 3.14651 0.00952864 5.72374 0.00569347C11.6836 -0.00252474 17.644 -0.00362051 23.6038 0.0144596C24.1501 0.0161032 24.7204 0.103216 25.2376 0.275799C27.3694 0.987496 28.6663 2.84646 28.6674 5.12071C28.6701 10.7239 28.6684 16.3271 28.6679 21.9302C28.6679 22.3401 28.675 22.7504 28.6619 23.1602C28.595 25.1978 27.3081 26.9833 25.3894 27.6797C24.9998 27.8211 24.5862 27.895 24.1835 27.9997V28.0002ZM26.8862 14.0013C26.8862 11.0225 26.8873 8.04365 26.884 5.06483C26.884 4.80623 26.8802 4.54215 26.8319 4.28903C26.5388 2.75058 25.311 1.78576 23.6537 1.78521C17.6665 1.78357 11.6798 1.78411 5.69251 1.78631C5.45199 1.78631 5.20709 1.79014 4.9715 1.83342C3.4325 2.11668 2.44796 3.34996 2.44741 4.99524C2.44522 10.9995 2.44577 17.0037 2.44851 23.0079C2.44851 23.2391 2.45454 23.4747 2.49672 23.7004C2.78107 25.2203 4.0023 26.2147 5.60924 26.2158C11.6425 26.2207 17.6763 26.2207 23.7096 26.2108C24.075 26.2103 24.4563 26.1621 24.8031 26.0514C26.1005 25.6367 26.8829 24.4801 26.8845 23.0211C26.8878 20.0143 26.8856 17.0075 26.8856 14.0008L26.8862 14.0013Z" fill="white"/>
<path d="M15.9384 15.2716C15.9384 15.4485 15.9384 15.5844 15.9384 15.7203C15.9384 17.2675 15.9477 18.8147 15.9329 20.3619C15.9242 21.2511 15.1495 21.833 14.3194 21.6061C13.7622 21.4538 13.4028 20.9673 13.4001 20.3186C13.3935 18.7829 13.3973 17.2478 13.3973 15.712C13.3973 15.5849 13.3973 15.4584 13.3973 15.2716C13.2417 15.2716 13.1081 15.2716 12.9744 15.2716C11.4151 15.2716 9.85584 15.2726 8.29657 15.2688C7.78759 15.2677 7.39969 15.0398 7.16136 14.5905C6.92906 14.1533 6.95645 13.7101 7.22601 13.2992C7.49776 12.8861 7.90264 12.7266 8.3919 12.7288C9.9161 12.7354 11.4403 12.731 12.9645 12.731C13.0905 12.731 13.2165 12.731 13.3968 12.731C13.3968 12.5683 13.3968 12.4341 13.3968 12.2993C13.3968 10.7521 13.3886 9.20487 13.4012 7.65765C13.4088 6.76132 14.1644 6.17673 14.9988 6.3926C15.5719 6.54052 15.9329 7.03142 15.9357 7.70094C15.9417 9.23664 15.9379 10.7718 15.9379 12.3075C15.9379 12.433 15.9379 12.5584 15.9379 12.7305C16.0962 12.7305 16.2195 12.7305 16.3433 12.7305C17.9026 12.7305 19.4618 12.7217 21.0206 12.7354C21.9141 12.7436 22.4971 13.5074 22.2758 14.3407C22.1245 14.9105 21.6325 15.2666 20.9597 15.2688C19.424 15.2743 17.8878 15.271 16.3521 15.271C16.2277 15.271 16.1033 15.271 15.9373 15.271L15.9384 15.2716Z" fill="white"/>
</g>
<defs>
<clipPath id="clip0_859_3956">
<rect width="28.0055" height="28" fill="white" transform="translate(0.664062)"/>
</clipPath>
</defs>
</svg>
