<svg width="48" height="48" viewBox="0 0 48 48" fill="none" xmlns="http://www.w3.org/2000/svg">
<g clip-path="url(#clip0_743_5053)">
<path d="M11.4945 17.2025C11.0141 17.7795 10.2453 18.2346 9.47655 18.1696C9.38046 17.3894 9.75683 16.5604 10.1973 16.0484C10.6777 15.4551 11.5185 15.0325 12.1992 15C12.2793 15.8127 11.967 16.6092 11.4945 17.2025ZM12.1912 18.324C11.0781 18.259 10.1252 18.9661 9.59667 18.9661C9.06015 18.9661 8.25136 18.3565 7.3705 18.3728C6.22538 18.389 5.16034 19.0473 4.57577 20.0957C3.3746 22.1926 4.26347 25.2971 5.4246 27.0038C5.99315 27.8491 6.67382 28.7756 7.57069 28.7431C8.41952 28.7106 8.75585 28.1823 9.78085 28.1823C10.8139 28.1823 11.1101 28.7431 12.007 28.7268C12.9359 28.7106 13.5205 27.8816 14.0891 27.0364C14.7377 26.0773 15.0019 25.1427 15.018 25.094C15.0019 25.0777 13.2242 24.3869 13.2082 22.3063C13.1922 20.5671 14.6096 19.7381 14.6736 19.6894C13.8728 18.4866 12.6236 18.3565 12.1912 18.324ZM18.6215 15.9671V28.6374H20.5594V24.3056H23.242C25.6924 24.3056 27.4141 22.5989 27.4141 20.1283C27.4141 17.6576 25.7244 15.9671 23.306 15.9671H18.6215ZM20.5594 17.6251H22.7935C24.4752 17.6251 25.4361 18.5353 25.4361 20.1364C25.4361 21.7374 24.4752 22.6558 22.7855 22.6558H20.5594V17.6251ZM30.9535 28.7349C32.1707 28.7349 33.2998 28.1091 33.8123 27.1176H33.8523V28.6374H35.6461V22.3307C35.6461 20.5021 34.2047 19.3237 31.9865 19.3237C29.9285 19.3237 28.407 20.5184 28.351 22.16H30.0967C30.2408 21.3798 30.9535 20.8678 31.9305 20.8678C33.1156 20.8678 33.7803 21.4286 33.7803 22.4608V23.1597L31.3619 23.306C29.1117 23.4441 27.8945 24.3788 27.8945 26.0042C27.8945 27.6459 29.1517 28.7349 30.9535 28.7349ZM31.474 27.2314C30.441 27.2314 29.7844 26.7275 29.7844 25.9554C29.7844 25.159 30.417 24.6957 31.6262 24.6226L33.7803 24.4844V25.1996C33.7803 26.3862 32.7873 27.2314 31.474 27.2314ZM38.0404 32.0833C39.9303 32.0833 40.8191 31.3519 41.5959 29.1332L44.9992 19.4456H43.0293L40.7471 26.9307H40.707L38.4248 19.4456H36.3988L39.682 28.6699L39.5058 29.2307C39.2096 30.1816 38.7291 30.5473 37.8723 30.5473C37.7201 30.5473 37.4238 30.531 37.3037 30.5148V32.0346C37.4158 32.0671 37.8963 32.0833 38.0404 32.0833Z" fill="black"/>
</g>
<defs>
<clipPath id="clip0_743_5053">
<rect width="41" height="17.0833" fill="white" transform="translate(4 15)"/>
</clipPath>
</defs>
</svg>
