<svg width="17" height="21" viewBox="0 0 17 21" fill="none" xmlns="http://www.w3.org/2000/svg">
<path d="M14.1111 19.544C13.0556 20.5672 11.9031 20.4057 10.7937 19.921C9.61969 19.4255 8.54262 19.404 7.30398 19.921C5.75299 20.5888 4.93441 20.3949 4.00812 19.544C-1.24801 14.1263 -0.472517 5.87591 5.49449 5.57433C6.94854 5.64973 7.961 6.37137 8.81189 6.43599C10.0828 6.17749 11.2999 5.43431 12.6571 5.53125C14.2834 5.6605 15.5113 6.30674 16.3191 7.46998C12.9586 9.48412 13.7557 13.9109 16.8361 15.1495C16.2222 16.7652 15.4251 18.37 14.1003 19.5548L14.1111 19.544ZM8.70418 5.50971C8.54262 3.10782 10.4921 1.126 12.7324 0.932129C13.0448 3.71099 10.2121 5.77897 8.70418 5.50971Z" fill="black"/>
</svg>
