<svg width="24" height="24" viewBox="0 0 24 24" fill="none" xmlns="http://www.w3.org/2000/svg">
<path d="M16 6.7477V17.3277C16 19.4177 14.47 21.2777 12.39 21.4777C10 21.7077 8 19.8377 8 17.4977V5.13771C8 3.82771 8.94 2.63771 10.24 2.50771C11.74 2.35771 13 3.52771 13 4.99771V15.4977C13 16.0477 12.55 16.4977 12 16.4977C11.45 16.4977 11 16.0477 11 15.4977V6.7477C11 6.33771 10.66 5.9977 10.25 5.9977C9.84 5.9977 9.5 6.33771 9.5 6.7477V15.3577C9.5 16.6677 10.44 17.8577 11.74 17.9877C13.24 18.1377 14.5 16.9677 14.5 15.4977V5.16771C14.5 3.07771 12.97 1.2177 10.89 1.0177C8.51 0.787704 6.5 2.65771 6.5 4.99771V17.2677C6.5 20.1377 8.6 22.7077 11.46 22.9777C14.75 23.2777 17.5 20.7177 17.5 17.4977V6.7477C17.5 6.33771 17.16 5.9977 16.75 5.9977C16.34 5.9977 16 6.33771 16 6.7477Z" fill="#0F0F0F"/>
</svg>
