<svg width="121" height="120" viewBox="0 0 121 120" fill="none" xmlns="http://www.w3.org/2000/svg">
<path d="M60.5 120C27.4146 120 0.5 93.0854 0.5 60C0.5 26.9146 27.4146 0 60.5 0C93.5854 0 120.5 26.9146 120.5 60C120.5 93.0854 93.5854 120 60.5 120ZM60.5 8C31.8306 8 8.5 31.3306 8.5 60C8.5 88.6694 31.8306 112 60.5 112C89.1694 112 112.5 88.6694 112.5 60C112.5 31.3306 89.1694 8 60.5 8ZM55.3299 78.8301L91.3299 42.8301C92.895 41.265 92.895 38.7401 91.3299 37.175C89.7649 35.61 87.24 35.61 85.6749 37.175L52.505 70.345L39.3351 57.175C37.77 55.61 35.2451 55.61 33.68 57.175C32.115 58.7401 32.115 61.265 33.68 62.8301L49.68 78.8301C50.46 79.6101 51.4851 80.0001 52.51 80.0001C53.535 80.0001 54.56 79.6101 55.3399 78.8301H55.3299Z" fill="#F47530"/>
</svg>
