<svg width="16" height="16" viewBox="0 0 16 16" fill="none" xmlns="http://www.w3.org/2000/svg">
<path fill-rule="evenodd" clip-rule="evenodd" d="M6 8.66667C6 7.19391 7.19391 6 8.66667 6H12C13.4728 6 14.6667 7.19391 14.6667 8.66667V12C14.6667 13.4728 13.4728 14.6667 12 14.6667H8.66667C7.19391 14.6667 6 13.4728 6 12V8.66667ZM8.66667 7.33333C7.93029 7.33333 7.33333 7.93029 7.33333 8.66667V12C7.33333 12.7364 7.93029 13.3333 8.66667 13.3333H12C12.7364 13.3333 13.3333 12.7364 13.3333 12V8.66667C13.3333 7.93029 12.7364 7.33333 12 7.33333H8.66667Z" fill="#464646"/>
<path fill-rule="evenodd" clip-rule="evenodd" d="M1.33398 4.00016C1.33398 2.5274 2.52789 1.3335 4.00065 1.3335H7.33398C8.80674 1.3335 10.0007 2.5274 10.0007 4.00016V4.13905C10.0007 4.50724 9.70217 4.80572 9.33398 4.80572C8.96579 4.80572 8.66732 4.50724 8.66732 4.13905V4.00016C8.66732 3.26378 8.07036 2.66683 7.33398 2.66683H4.00065C3.26427 2.66683 2.66732 3.26378 2.66732 4.00016V7.3335C2.66732 8.06988 3.26427 8.66683 4.00065 8.66683H4.13954C4.50773 8.66683 4.80621 8.96531 4.80621 9.3335C4.80621 9.70169 4.50773 10.0002 4.13954 10.0002H4.00065C2.52789 10.0002 1.33398 8.80625 1.33398 7.3335V4.00016Z" fill="#464646"/>
</svg>
