<svg width="48" height="48" viewBox="0 0 48 48" fill="none" xmlns="http://www.w3.org/2000/svg">
<path d="M32.3342 24.6479C32.0222 24.2819 31.5482 24.2459 31.1342 24.5579C30.7382 24.8519 30.6602 25.3439 30.9362 25.7819C30.9782 25.8479 31.0262 25.9019 31.0742 25.9619C31.1042 25.9979 31.1282 26.0279 31.1582 26.0639L31.7642 26.9039C32.4062 27.7979 33.0542 28.6979 33.6842 29.6039C33.7862 29.7479 33.8582 29.9039 33.9362 30.0719C33.8522 30.0299 33.7742 29.9879 33.6962 29.9459C33.5042 29.8199 33.3062 29.6939 33.1082 29.5739C32.5262 29.2079 31.9262 28.8239 31.3802 28.4039C27.4202 25.3919 23.6642 21.7559 20.2202 17.6039C19.4402 16.6619 18.7322 15.6359 18.0482 14.6399C17.7782 14.2439 17.5082 13.8539 17.2322 13.4639C17.1902 13.3979 17.1482 13.3259 17.1182 13.2539L17.2382 13.3199C17.5982 13.5179 17.9702 13.7159 18.3062 13.9499C18.9722 14.4119 19.6322 14.9099 20.2742 15.3899L21.0422 15.9659C21.0782 15.9959 21.1202 16.0259 21.1562 16.0559C21.1982 16.0919 21.2342 16.1219 21.2762 16.1519C21.7622 16.5179 22.2722 16.4939 22.6202 16.0799C22.7942 15.8759 22.8722 15.6299 22.8422 15.3959C22.8122 15.1439 22.6682 14.9159 22.4282 14.7419C21.2402 13.8659 19.8962 12.8699 18.5402 11.9519C18.1322 11.6759 17.6222 11.4539 16.9802 11.2739C15.9722 10.9919 15.3782 11.3339 15.0662 12.3779C15.0422 12.4559 15.0122 12.5279 14.9822 12.5999L8.30416 30.3359C8.07016 30.9599 8.25016 31.4819 8.76616 31.6799C9.28216 31.8779 9.76216 31.6139 10.0082 30.9959L16.0082 15.0779C20.4542 21.3059 25.8722 26.7239 32.1182 31.1939C32.1182 31.1939 32.1122 31.1939 32.1062 31.1939L31.3082 31.4999C30.7442 31.7159 30.1742 31.9259 29.6102 32.1479C29.1182 32.3399 28.8902 32.8019 29.0522 33.2939C29.1782 33.6779 29.5082 33.9059 29.9162 33.9059C30.0062 33.9059 30.0962 33.8939 30.1922 33.8699C30.2942 33.8459 30.3902 33.8039 30.4922 33.7679L31.7222 33.3119C32.8622 32.8919 34.0022 32.4659 35.1422 32.0399C35.6522 31.8479 35.9522 31.4759 35.9642 31.0199C35.9822 30.4979 35.9222 30.0839 35.7842 29.7539C34.9622 27.7499 33.5702 26.0999 32.3402 24.6479H32.3342Z" fill="#F47530"/>
<path d="M26.7119 33.2458C26.5979 33.2818 26.4839 33.3238 26.3759 33.3658L6.23389 40.9678C6.23389 40.9678 6.23389 40.9618 6.23389 40.9558L8.80189 34.1458C8.90989 33.8458 8.92189 33.5698 8.83789 33.3418C8.75389 33.0958 8.56189 32.9158 8.29789 32.8198C7.77589 32.6338 7.32589 32.8858 7.09189 33.4918C6.79789 34.2538 6.50989 35.0158 6.22189 35.7838L5.36389 38.0518C4.87189 39.3658 4.37389 40.6798 3.87589 41.9878C3.77389 42.2578 3.58189 42.7618 4.01389 43.1878C4.21189 43.3798 4.42789 43.4458 4.63189 43.4458C4.85389 43.4458 5.06989 43.3678 5.24989 43.2838L24.4259 36.0538L25.1579 35.7778C25.8839 35.5078 26.6099 35.2318 27.3299 34.9498C27.8459 34.7458 28.0799 34.2598 27.8999 33.7618C27.7259 33.2818 27.2339 33.0658 26.6999 33.2398L26.7119 33.2458Z" fill="#F47530"/>
<path d="M40.0078 22.4758C40.5418 22.6798 41.0338 22.5178 41.2498 22.0618C41.3578 21.8398 41.3698 21.5938 41.2918 21.3778C41.2078 21.1378 41.0098 20.9338 40.7458 20.8078C38.9998 19.9858 37.3198 20.0038 35.7478 20.8498C35.6638 20.8978 35.4958 20.9038 35.3698 20.8678C34.4698 20.5978 33.7618 20.5198 33.0658 20.6218C31.2778 20.8798 29.7538 21.8038 28.3978 23.4478C28.1698 23.7238 28.0618 24.0058 28.0918 24.2758C28.1158 24.5038 28.2298 24.7018 28.4278 24.8638C28.8418 25.2058 29.3098 25.1218 29.8078 24.6238L29.8858 24.5458C30.3838 24.0478 30.8998 23.5378 31.4698 23.1358C32.3158 22.5418 33.1918 22.3078 34.0738 22.4518C34.0438 22.5418 34.0138 22.6318 33.9778 22.7158C33.8458 23.0878 33.7198 23.4418 33.6538 23.8198C33.4618 24.9478 34.1878 26.0818 35.3098 26.3998C35.4778 26.4478 35.6518 26.4718 35.8198 26.4718C36.6538 26.4718 37.4578 25.9198 37.8238 25.0378C38.2198 24.0838 38.0998 23.1598 37.4638 22.2958L37.3678 22.1698C38.1418 21.9358 38.7958 22.0198 40.0078 22.4818V22.4758ZM35.8858 24.5938C35.7538 24.5638 35.5558 24.4018 35.5138 24.2818C35.3818 23.9098 35.5378 23.5918 35.8078 23.2198C36.0718 23.4538 36.3898 23.8558 36.1318 24.3178C36.0658 24.4378 35.9038 24.5758 35.8858 24.5938Z" fill="#F47530"/>
<path d="M20.7424 11.154C20.6524 12.198 21.3304 13.14 22.3984 13.446C23.1184 13.656 23.8444 13.554 24.6064 13.146C24.6544 13.122 24.7024 13.098 24.7504 13.074C24.8344 13.596 24.7804 14.112 24.5884 14.67C24.2464 15.666 23.6104 16.524 22.5904 17.382C22.0924 17.796 22.0024 18.306 22.3384 18.738C22.4944 18.942 22.6984 19.062 22.9204 19.086C22.9504 19.086 22.9864 19.086 23.0224 19.086C23.2564 19.086 23.5024 18.984 23.7544 18.792C24.5944 18.132 25.2784 17.334 25.7944 16.422C26.6824 14.85 26.8624 13.35 26.3344 11.85C26.2684 11.658 26.2804 11.538 26.3764 11.358C27.2224 9.80395 27.2164 8.12395 26.3584 6.35995C26.1364 5.90395 25.6624 5.71795 25.2004 5.90395C24.7384 6.09595 24.5284 6.57595 24.6904 7.07395C24.7204 7.16395 24.7624 7.25395 24.7984 7.33795C24.8224 7.38595 24.8404 7.43395 24.8584 7.48195C25.1884 8.29795 25.2484 9.05995 25.0384 9.80995C24.0664 9.16795 23.6224 9.05995 22.8004 9.16195C21.7324 9.30595 20.8324 10.176 20.7484 11.136L20.7424 11.154ZM22.5784 11.37C22.5664 11.214 22.7704 11.016 23.0704 10.986C23.4424 10.944 23.7244 11.064 24.0064 11.4C23.9644 11.418 23.9224 11.436 23.8804 11.454C23.6164 11.562 23.3644 11.664 23.1184 11.712C22.9924 11.736 22.8604 11.706 22.7464 11.622C22.6504 11.55 22.5904 11.454 22.5844 11.37H22.5784Z" fill="#F47530"/>
<path d="M24.8822 20.0638C24.6962 20.2978 24.6242 20.7118 24.7202 21.0058C24.7862 21.2158 24.9782 21.3478 25.1462 21.4618C25.2002 21.4978 25.2542 21.5338 25.2962 21.5698L25.3982 21.6538L25.5242 21.6058C25.5962 21.5758 25.6622 21.5578 25.7222 21.5398C25.8602 21.4978 25.9862 21.4618 26.0882 21.3598C26.4722 20.9758 26.9702 20.9338 27.4982 20.8918C28.9742 20.7718 30.0842 19.7578 30.3242 18.3118C30.3482 18.1498 30.3662 17.9878 30.3782 17.8258C30.3902 17.6758 30.4022 17.5198 30.4262 17.3698C30.5162 16.8478 30.8162 16.5298 31.3382 16.4038C31.4942 16.3678 31.6622 16.3498 31.8422 16.3378L32.0342 16.3198C33.5462 16.1818 34.6682 15.1618 34.9022 13.7338C34.9262 13.5778 34.9382 13.4218 34.9502 13.2658C34.9622 13.0978 34.9742 12.9238 35.0102 12.7558C35.1062 12.2638 35.3942 11.9578 35.8742 11.8378C36.0542 11.7898 36.2462 11.7778 36.4502 11.7658H36.5642C37.3982 11.6938 38.0522 11.4118 38.5622 10.8898C38.9402 10.5058 38.9702 9.99576 38.6522 9.61776C38.4962 9.43176 38.2682 9.31776 38.0282 9.29976C37.7882 9.28176 37.5542 9.36576 37.3682 9.53376C37.0682 9.80376 36.7082 9.92976 36.2042 9.94176C35.2082 9.97176 34.3862 10.3798 33.7622 11.1658C33.2942 11.7538 33.1742 12.4438 33.1142 13.0978C33.0182 14.1298 32.6822 14.4598 31.6682 14.5078C30.4082 14.5738 29.5082 15.1018 28.9982 16.0798C28.7102 16.6258 28.6262 17.2738 28.5482 17.8438C28.4462 18.6058 28.0262 19.0198 27.2762 19.0858C27.0062 19.1098 26.7422 19.1338 26.4722 19.1758C25.8122 19.2778 25.2662 19.5838 24.8942 20.0518L24.8822 20.0638Z" fill="#F47530"/>
<path d="M23.7725 32.748C23.9885 32.934 24.2345 33.024 24.4685 33.024C24.7025 33.024 24.9485 32.922 25.1285 32.724C25.2965 32.544 25.3745 32.322 25.3625 32.088C25.3445 31.824 25.2065 31.56 24.9665 31.344C24.7685 31.17 24.5645 30.996 24.3605 30.822C24.1505 30.642 23.9345 30.462 23.7245 30.276C20.8385 27.708 18.1985 25.014 15.8705 22.278C15.7445 22.128 15.5885 22.032 15.4205 21.924C15.3425 21.876 15.2645 21.828 15.1865 21.768L15.0485 21.666L14.9165 21.774C14.8445 21.834 14.7725 21.882 14.7065 21.93C14.5445 22.044 14.3945 22.152 14.2925 22.314C14.0765 22.656 14.1305 23.04 14.4425 23.412C17.2865 26.76 20.4245 29.898 23.7845 32.754L23.7725 32.748Z" fill="#F47530"/>
<path d="M41.9464 2.96387C41.3224 2.96387 40.7404 3.20387 40.3084 3.63587C39.8824 4.06787 39.6484 4.64387 39.6544 5.26187C39.6664 6.50987 40.6924 7.53587 41.9464 7.53587H41.9524C42.5584 7.53587 43.1284 7.29587 43.5664 6.85787C44.0044 6.41387 44.2504 5.83187 44.2444 5.21987C44.2384 3.95387 43.2304 2.96387 41.9524 2.96387H41.9464ZM42.4084 5.24387C42.4084 5.49587 42.1984 5.69387 41.9464 5.69387H41.9404C41.8204 5.69387 41.7064 5.63987 41.6164 5.54987C41.5324 5.45987 41.4844 5.33987 41.4844 5.22587C41.4904 4.97387 41.6884 4.78187 41.9524 4.78187H41.9644C42.0904 4.78187 42.2104 4.82987 42.2884 4.91387C42.3724 4.99787 42.4144 5.11787 42.4084 5.24387Z" fill="#F47530"/>
<path d="M13.0383 28.668C12.7623 28.494 12.4143 28.476 12.1263 28.62C11.8623 28.752 11.6943 29.004 11.6763 29.292C11.6583 29.58 11.8023 29.952 12.0183 30.174C13.3323 31.548 14.6583 32.892 15.9003 34.152C16.2963 34.548 16.6983 34.962 17.1663 35.304C17.3283 35.424 17.5743 35.49 17.8083 35.49C17.9163 35.49 18.0243 35.472 18.1203 35.442C18.3243 35.37 18.4563 35.184 18.5763 34.998C18.6243 34.926 18.6723 34.854 18.7263 34.788L18.8343 34.656L18.7323 34.518C18.6723 34.434 18.6183 34.35 18.5643 34.272C18.4563 34.11 18.3603 33.954 18.2283 33.822C16.9023 32.484 15.5703 31.152 14.2323 29.82L13.3023 28.89C13.2303 28.812 13.1403 28.728 13.0383 28.656V28.668Z" fill="#F47530"/>
<path d="M38.2857 16.1279C38.2017 16.6019 38.4297 16.9859 38.8977 17.1539C39.5577 17.3879 40.2297 17.6099 40.9017 17.8259C41.0277 17.8679 41.1477 17.8859 41.2617 17.8859C41.6637 17.8859 41.9937 17.6579 42.1257 17.2619C42.2877 16.7759 42.0237 16.2899 41.5017 16.1039C41.0277 15.9359 40.5477 15.7799 40.0737 15.6239L39.6237 15.4799C39.5337 15.4499 39.4377 15.4259 39.3657 15.4079L39.2577 15.3779H39.2217C38.7117 15.4079 38.3817 15.6779 38.2977 16.1279H38.2857Z" fill="#F47530"/>
<path d="M10.5903 35.286C10.2423 34.986 9.76831 35.022 9.42631 35.382C9.07231 35.748 9.05431 36.222 9.37831 36.582C9.70231 36.948 10.1403 37.422 10.6323 37.812C10.7703 37.926 10.9803 37.974 11.1783 37.974C11.3163 37.974 11.4543 37.95 11.5563 37.908C11.7543 37.836 11.8743 37.65 11.9823 37.488C12.0183 37.434 12.0483 37.386 12.0843 37.344L12.1623 37.248L12.1203 37.128C12.0963 37.056 12.0783 36.996 12.0603 36.936C12.0243 36.804 11.9883 36.672 11.8923 36.57L11.8503 36.522C11.4543 36.102 11.0463 35.664 10.5963 35.28L10.5903 35.286Z" fill="#F47530"/>
<path d="M18.6963 5.33405C19.1463 5.58605 19.6323 5.82605 20.1783 6.07205C20.3103 6.13205 20.4423 6.16205 20.5743 6.16205C20.9103 6.16205 21.2163 5.97005 21.3783 5.62805C21.5823 5.17805 21.4203 4.69805 20.9763 4.45805C20.5863 4.24205 20.1843 4.05005 19.7823 3.85805L19.5423 3.74405C19.4583 3.70205 19.3683 3.68405 19.2963 3.67205L19.0443 3.49805L18.9063 3.64205C18.8523 3.69605 18.7983 3.75005 18.7383 3.80405C18.5883 3.94205 18.4263 4.08605 18.3303 4.27805C18.1323 4.67405 18.2883 5.11205 18.7083 5.34605L18.6963 5.33405Z" fill="#F47530"/>
<path d="M40.9917 27.8522C40.4577 28.0742 39.9117 28.3502 39.3537 28.6742C38.9637 28.9022 38.8317 29.3522 39.0417 29.7302C39.1437 29.9162 39.3057 30.0542 39.4797 30.1922C39.5517 30.2522 39.6237 30.3122 39.6957 30.3782L39.8157 30.4922L39.9597 30.4142C40.1697 30.3002 40.3677 30.1862 40.5657 30.0842C41.0397 29.8322 41.4837 29.5922 41.9037 29.3102C42.2397 29.0822 42.2877 28.6262 42.0177 28.2122C41.7717 27.8342 41.3697 27.6962 40.9917 27.8522Z" fill="#F47530"/>
<path d="M34.3497 7.53589H34.3617C34.8477 7.53589 35.2317 7.13989 35.2617 6.62989C35.2737 6.47989 35.2677 6.32989 35.2617 6.17389V5.27989C35.2617 5.24389 35.2617 5.20189 35.2557 5.16589C35.1957 4.66789 34.8297 4.33789 34.3437 4.33789H34.3377C33.8397 4.33789 33.4617 4.70389 33.4377 5.19589C33.4197 5.64589 33.4137 6.11389 33.4377 6.63589C33.4557 7.14589 33.8517 7.53589 34.3437 7.53589H34.3497Z" fill="#F47530"/>
<path d="M16.3985 9.61195H16.4225C16.9145 9.59995 17.3225 9.16795 17.3105 8.67595C17.2985 8.17795 16.8665 7.80595 16.3805 7.79395C16.1345 7.79395 15.9065 7.90195 15.7385 8.07595C15.5705 8.24995 15.4865 8.47795 15.4925 8.72395C15.4925 8.96395 15.6065 9.19195 15.7805 9.36595C15.9485 9.52795 16.1765 9.61795 16.3985 9.61795V9.61195Z" fill="#F47530"/>
<path d="M29.2981 10.7399C29.2861 11.2319 29.6881 11.6639 30.1801 11.6819C30.1921 11.6819 30.1981 11.6819 30.2101 11.6819C30.4321 11.6819 30.6541 11.5919 30.8281 11.4299C31.0081 11.2619 31.1161 11.0279 31.1221 10.7939C31.1281 10.5539 31.0441 10.3199 30.8761 10.1459C30.7081 9.96591 30.4801 9.86991 30.2341 9.85791C29.7301 9.86391 29.3101 10.2299 29.2981 10.7339V10.7399Z" fill="#F47530"/>
<path d="M41.9463 10.5542C41.7003 10.5542 41.4723 10.6502 41.2983 10.8242C41.1303 10.9922 41.0343 11.2202 41.0403 11.4662C41.0403 11.7002 41.1423 11.9402 41.3163 12.1082C41.4903 12.2762 41.7183 12.3782 41.9523 12.3782C42.4443 12.3782 42.8643 11.9522 42.8583 11.4602C42.8583 10.9622 42.4503 10.5602 41.9463 10.5602V10.5542Z" fill="#F47530"/>
<path d="M35.7124 16.7642C35.4664 16.7642 35.2384 16.8662 35.0704 17.0462C34.9024 17.2202 34.8184 17.4482 34.8184 17.6942C34.8184 17.9282 34.9324 18.1622 35.1064 18.3362C35.2804 18.4982 35.5024 18.5882 35.7304 18.5882H35.7544C36.2464 18.5762 36.6544 18.1442 36.6424 17.6522C36.6304 17.1542 36.2044 16.7522 35.7064 16.7702L35.7124 16.7642Z" fill="#F47530"/>
<path d="M28.8062 6.15603H28.8302C29.0582 6.15603 29.2802 6.06003 29.4542 5.89803C29.6282 5.73003 29.7362 5.49603 29.7422 5.26203C29.7422 5.02203 29.6582 4.78803 29.4962 4.61403C29.3282 4.44003 29.1002 4.33803 28.8542 4.33203H28.8302C28.3322 4.33203 27.9302 4.71603 27.9182 5.21403C27.9062 5.70603 28.3142 6.13803 28.8062 6.15003V6.15603Z" fill="#F47530"/>
</svg>
