<svg width="38" height="56" viewBox="0 0 38 56" fill="none" xmlns="http://www.w3.org/2000/svg">
<g clip-path="url(#clip0_693_6201)">
<path d="M21.8347 49.2808C21.8347 50.4757 21.8445 51.5395 21.8347 52.6033C21.8105 54.5682 20.5159 55.9744 18.7211 55.9987C16.9044 56.023 15.5661 54.5876 15.5467 52.579C15.537 51.5152 15.5467 50.4539 15.5467 49.2808C13.815 49.2808 12.1634 49.3196 10.5143 49.271C8.35997 49.2103 6.93914 47.1143 7.64105 45.1033C8.07094 43.8719 9.1736 43.0437 10.5264 43.017C12.1537 42.9854 13.7834 43.0097 15.4787 43.0097V37.4065C14.1914 36.9669 12.8386 36.6002 11.5611 36.0561C4.1072 32.8939 -0.563311 24.9907 0.277041 17.0632C1.1684 8.67669 7.24031 1.94902 15.3645 0.353321C25.5046 -1.64069 35.4917 5.04812 37.4663 15.1591C39.4579 25.3502 32.8856 35.1745 22.6678 37.2365C21.995 37.3725 21.8007 37.6033 21.8202 38.2639C21.8663 39.8037 21.8347 41.3484 21.8347 43.0073C23.4207 43.0073 24.929 42.9951 26.4373 43.0146C26.9376 43.0218 27.4598 43.0316 27.9358 43.1676C29.4368 43.5975 30.3111 44.9819 30.1265 46.5314C29.9444 48.0567 28.7324 49.2322 27.1877 49.2735C25.4487 49.3196 23.7049 49.2832 21.8347 49.2832V49.2808ZM18.9931 31.3176C25.8568 31.3419 31.5109 25.6829 31.4988 18.7998C31.4867 11.9167 25.9685 6.37665 19.0611 6.31594C12.1974 6.25522 6.55054 11.8511 6.49468 18.7731C6.43881 25.6052 12.1027 31.2933 18.9907 31.3201L18.9931 31.3176Z" fill="#F47530"/>
</g>
<defs>
<clipPath id="clip0_693_6201">
<rect width="37.641" height="56" fill="white" transform="translate(0.179688)"/>
</clipPath>
</defs>
</svg>
