<svg width="20" height="20" viewBox="0 0 20 20" fill="none" xmlns="http://www.w3.org/2000/svg">
<path d="M19.7013 7.79616H18.9203V7.75593H10.1949V11.6339H15.674C14.8746 13.8914 12.7267 15.5119 10.1949 15.5119C6.9825 15.5119 4.37796 12.9073 4.37796 9.69491C4.37796 6.4825 6.9825 3.87796 10.1949 3.87796C11.6777 3.87796 13.0268 4.43736 14.054 5.35111L16.7962 2.6089C15.0647 0.995183 12.7486 0 10.1949 0C4.8409 0 0.5 4.3409 0.5 9.69491C0.5 15.0489 4.8409 19.3898 10.1949 19.3898C15.5489 19.3898 19.8898 15.0489 19.8898 9.69491C19.8898 9.04487 19.8229 8.41034 19.7013 7.79616Z" fill="#FFC107"/>
<path d="M10.1953 19.3899C12.6995 19.3899 14.9749 18.4316 16.6953 16.8731L13.6947 14.334C12.6887 15.0991 11.4593 15.5129 10.1953 15.5119C7.6737 15.5119 5.53258 13.904 4.72596 11.6602L1.56445 14.096C3.16896 17.2357 6.42742 19.3899 10.1953 19.3899Z" fill="#4CAF50"/>
<path d="M19.7017 7.79609H18.9207V7.75586H10.1953V11.6338H15.6744C15.292 12.7082 14.6033 13.6471 13.6932 14.3343L13.6947 14.3334L16.6953 16.8725C16.4829 17.0654 19.8902 14.5423 19.8902 9.69484C19.8902 9.0448 19.8233 8.41027 19.7017 7.79609Z" fill="#1976D2"/>
<path d="M1.61719 5.18242L4.80245 7.5184C5.66433 5.38455 7.75164 3.87796 10.1943 3.87796C11.6771 3.87796 13.0262 4.43736 14.0533 5.35111L16.7955 2.6089C15.064 0.995183 12.7479 0 10.1943 0C6.47046 0 3.24109 2.10234 1.61719 5.18242Z" fill="#FF3D00"/>
</svg>
