<svg width="21" height="28" viewBox="0 0 21 28" fill="none" xmlns="http://www.w3.org/2000/svg">
<g opacity="0.4" clip-path="url(#clip0_859_3961)">
<path d="M14.6174 18.6454C14.5961 18.7039 14.6123 18.7686 14.6606 18.8114C14.9713 19.0833 15.2958 19.2985 15.4837 19.5889C15.9717 20.3426 15.9523 21.1496 15.5263 21.9294C15.4273 22.111 15.4348 22.2209 15.5382 22.3864C16.1327 23.3333 15.8351 24.7419 14.8955 25.2781C14.5898 25.4528 14.2027 25.5141 13.8443 25.5974C13.7059 25.6298 13.6157 25.631 13.5581 25.786C13.0481 27.1651 11.8197 28.0004 10.3307 27.9992C8.84481 27.998 7.62139 27.1581 7.09394 25.7866C7.06638 25.7154 6.97868 25.6234 6.90726 25.613C5.39256 25.4007 4.71038 24.6169 4.86824 23.2037C4.90269 22.8983 5.06869 22.6056 5.16767 22.3054C5.19398 22.225 5.23595 22.1197 5.20275 22.0566C4.49676 20.7302 4.73982 19.7312 6.00708 18.8739C6.06722 18.8334 6.09165 18.7605 6.0666 18.6958C5.73772 17.846 5.1163 17.2027 4.36897 16.6179C3.68115 16.0799 2.99709 15.5125 2.43832 14.8646C-1.62783 10.146 0.456923 2.94879 6.517 0.696831C12.3816 -1.48282 18.857 1.64609 20.1055 7.36306C20.9054 11.0265 19.6112 14.0981 16.4941 16.4837C15.7443 17.0575 15.0584 17.6534 14.6775 18.4973C14.6543 18.5488 14.6343 18.6015 14.618 18.6454H14.6174ZM4.94591 12.1932C5.85173 11.3568 6.76381 10.5145 7.72413 9.62775C7.79115 9.56585 7.90078 9.56527 7.96718 9.62775C8.68695 10.2988 9.43115 10.9918 10.2029 11.7114C10.2699 11.7738 10.3808 11.7744 10.4485 11.712C11.1833 11.0305 11.9212 10.3468 12.6403 9.67981C12.7074 9.61791 12.8164 9.61791 12.8834 9.67981C13.7911 10.5197 14.6975 11.3585 15.5727 12.1684C15.6397 12.2303 15.6397 12.3303 15.5727 12.3922C15.3114 12.6334 15.0352 12.8897 14.7282 13.1732C14.6549 13.2408 14.5347 13.2345 14.4708 13.1593L14.3217 12.984C14.2453 12.8943 14.0949 12.9059 14.0348 13.0054C12.988 14.7356 12.4994 16.5624 12.3666 18.5216C12.361 18.6073 12.4305 18.6819 12.5232 18.6894C12.7274 18.7056 12.931 18.7866 13.025 18.4991C13.434 17.2473 14.2559 16.2812 15.3603 15.4754C18.0527 13.5104 19.2235 10.931 18.6077 7.80847C17.6418 2.90425 12.1336 0.171585 7.12338 2.02556C3.62665 3.31901 1.41912 6.83723 1.96912 10.2444C2.32055 12.4229 3.44248 14.1814 5.34871 15.5113C6.41677 16.2564 7.20294 17.1964 7.59132 18.3886C7.67151 18.635 7.78802 18.7258 7.99412 18.6963C8.07117 18.6853 8.12943 18.6252 8.13506 18.5535C8.24782 17.2172 7.30129 14.0709 6.43869 12.9638C6.37041 12.8758 6.22884 12.8752 6.15931 12.9626L6.01523 13.1442C5.95196 13.2241 5.8298 13.2322 5.75589 13.1639C5.46334 12.8943 5.19523 12.6479 4.94591 12.4183C4.87889 12.3564 4.87826 12.2557 4.94591 12.1938V12.1932ZM12.641 11.646C11.8755 12.3575 11.1263 13.054 10.3545 13.7713C10.2875 13.8338 10.1766 13.8338 10.1096 13.7713C9.35284 13.0708 8.60614 12.3789 7.85004 11.679C7.78113 11.6148 7.66775 11.6165 7.60135 11.683C7.54873 11.7357 7.54121 11.8138 7.58193 11.8751C8.95694 13.9188 9.56896 16.1563 9.72494 18.524C9.73058 18.6078 9.80512 18.6738 9.89658 18.6738H10.6232C10.7141 18.6738 10.7892 18.6078 10.7949 18.524C10.9515 16.1436 11.5673 13.9066 12.9385 11.8722C12.9799 11.8109 12.9717 11.7316 12.9179 11.679L12.884 11.646C12.8208 11.5841 12.7092 11.583 12.6416 11.646H12.641ZM10.3219 21.4348C11.4144 21.4348 12.5075 21.4359 13.6 21.4348C14.1062 21.4342 14.2509 21.2902 14.2521 20.7985C14.2534 20.2831 14.1143 20.1413 13.5906 20.1413C11.4157 20.1396 9.24071 20.1396 7.06575 20.1413C6.54895 20.1413 6.41238 20.286 6.41426 20.8072C6.41614 21.2948 6.56085 21.4342 7.07515 21.4348C8.15762 21.4359 9.24008 21.4348 10.3219 21.4348ZM10.3501 22.8786C9.2263 22.8786 8.10186 22.8757 6.97805 22.8804C6.58841 22.8821 6.43055 23.0313 6.41489 23.3877C6.41051 23.493 6.408 23.5994 6.41677 23.7047C6.44245 24.0009 6.61597 24.1605 6.94297 24.1611C9.20125 24.1646 11.4595 24.1657 13.7184 24.1559C13.8575 24.1553 14.0968 24.0766 14.1168 23.9968C14.1864 23.7186 14.2365 23.416 14.187 23.1389C14.1413 22.8815 13.8468 22.8763 13.5975 22.8769C12.5151 22.8798 11.4326 22.8781 10.3501 22.8786ZM11.6368 25.6211H9.02835C8.89116 25.6211 8.8091 25.7623 8.8849 25.8681C9.18057 26.2835 9.7406 26.5554 10.3332 26.5559C10.9271 26.5559 11.4821 26.2869 11.7809 25.8687C11.8567 25.7629 11.7752 25.6211 11.6374 25.6211H11.6368Z" fill="white"/>
</g>
<defs>
<clipPath id="clip0_859_3961">
<rect width="20" height="28" fill="white" transform="translate(0.335938)"/>
</clipPath>
</defs>
</svg>
