<svg width="133" height="20" viewBox="0 0 133 20" fill="none" xmlns="http://www.w3.org/2000/svg">
<g clip-path="url(#clip0_101_6144)">
<path d="M11.0511 3.97936C12.9418 3.97936 14.5452 4.26659 15.2368 5.4908H21.567C20.9925 0.64696 16.4833 0.0334635 11.0511 0C5.61046 0 0.535172 1.05968 0.535172 5.48801C0.524017 9.3614 6.60042 9.66257 10.9256 9.88288C13.36 9.99721 15.2396 10.1032 15.2396 10.7836C15.2396 11.9827 12.9334 12.295 11.0539 12.295C9.17432 12.295 7.55971 11.9827 6.86813 10.7836H0.535172C1.11242 15.5912 5.62162 16.2493 11.0511 16.2605C16.4945 16.2605 21.567 15.2119 21.567 10.7836C21.5781 6.89626 15.5017 6.59788 11.1766 6.37758C8.74209 6.26325 6.86256 6.17122 6.86256 5.4908C6.86256 4.25823 9.16875 3.97936 11.0483 3.97936H11.0511Z" fill="#231F20"/>
<path d="M43.9795 5.85872C44.0241 2.6518 41.3135 -0.0336423 38.1206 -0.000178874H23.1875V15.499H29.2304V11.7176H38.1206C41.3135 11.765 44.0241 9.05448 43.9795 5.85872ZM37.5322 6.79291C37.2784 7.04667 36.9661 7.17216 36.6091 7.17216H29.2277V4.53133H36.6091C36.9661 4.53133 37.2784 4.65961 37.5322 4.92453C37.7971 5.17829 37.9254 5.49062 37.9254 5.85872C37.9254 6.22682 37.7999 6.52799 37.5322 6.79291Z" fill="#231F20"/>
<path d="M49.6418 0L41.3262 15.4992H48.1304L49.3518 12.8472H57.1126L58.334 15.4992H65.1382L56.8253 0H49.6418ZM51.1059 9.06302L53.2392 4.48411L55.3613 9.06302H51.1059Z" fill="#231F20"/>
<path d="M85.8031 9.02938C86.425 8.08404 86.7373 7.02157 86.7373 5.85872C86.7847 2.6518 84.0741 -0.0336423 80.8784 -0.000178874H65.9453V15.499H71.9883V11.7176H77.3842L80.3011 15.499H86.7345L83.3547 11.1515C84.3697 10.6775 85.1868 9.96357 85.8003 9.02938H85.8031ZM80.2928 6.79291C80.039 7.04667 79.7267 7.17216 79.3586 7.17216H71.991V4.53133H79.3586C80.0976 4.53133 80.686 5.11973 80.686 5.85872C80.686 6.21566 80.5605 6.52799 80.2928 6.79291Z" fill="#231F20"/>
<path d="M110.663 0H102.729L97.0431 5.29281H94.4023V0H88.3594V15.4992H94.4023V10.2064H97.0431L102.729 15.4992H110.663L102.623 7.74958L110.663 0Z" fill="#231F20"/>
<path d="M125.224 -6.64061e-05H112.226C111.727 -6.64061e-05 111.322 0.404284 111.322 0.903447V14.7155C111.322 15.2147 111.727 15.619 112.226 15.619H116.841L119.959 19.6876C120.232 20.2174 121.032 20.0222 121.032 19.4255V15.6162H125.221C129.51 15.6748 132.694 12.0468 132.661 7.80529C132.697 3.53869 129.51 -0.0642047 125.221 -0.00564365L125.224 -6.64061e-05ZM118.246 8.07578C117.248 8.07578 116.439 7.26708 116.439 6.26876C116.439 5.27043 117.248 4.46173 118.246 4.46173C119.245 4.46173 120.053 5.27043 120.053 6.26876C120.053 7.26708 119.245 8.07578 118.246 8.07578ZM124.273 8.07578C123.274 8.07578 122.466 7.26708 122.466 6.26876C122.466 5.27043 123.274 4.46173 124.273 4.46173C125.271 4.46173 126.08 5.27043 126.08 6.26876C126.08 7.26708 125.271 8.07578 124.273 8.07578Z" fill="url(#paint0_linear_101_6144)"/>
</g>
<defs>
<linearGradient id="paint0_linear_101_6144" x1="111.325" y1="9.99993" x2="132.664" y2="9.99993" gradientUnits="userSpaceOnUse">
<stop stop-color="#F47530"/>
<stop offset="1" stop-color="#F04D41"/>
</linearGradient>
<clipPath id="clip0_101_6144">
<rect width="132.128" height="20" fill="white" transform="translate(0.535156)"/>
</clipPath>
</defs>
</svg>
