<svg width="283" height="50" viewBox="0 0 283 50" fill="none" xmlns="http://www.w3.org/2000/svg">
<g clip-path="url(#clip0_339_6221)" filter="url(#filter0_d_339_6221)">
<path d="M25.887 8.29714C29.8221 8.29714 33.1594 8.89602 34.5988 11.4485H47.7739C46.5783 1.34894 37.1932 0.0697727 25.887 0C14.5633 0 4.00003 2.20947 4.00003 11.4427C3.97682 19.5189 16.6238 20.1469 25.6258 20.6062C30.6927 20.8446 34.6046 21.0655 34.6046 22.4843C34.6046 24.9844 29.8047 25.6357 25.8928 25.6357C21.9809 25.6357 18.6203 24.9844 17.1809 22.4843H4.00003C5.20146 32.5083 14.5866 33.8805 25.887 33.9037C37.2164 33.9037 47.7739 31.7175 47.7739 22.4843C47.7971 14.379 35.1502 13.7569 26.1481 13.2975C21.0812 13.0591 17.1693 12.8672 17.1693 11.4485C17.1693 8.87858 21.9693 8.29714 25.8812 8.29714H25.887Z" fill="white"/>
<path d="M94.4212 12.2162C94.5141 5.52964 88.8726 -0.0696159 82.227 0.000156846H51.1465V32.3165H63.7238V24.4322H82.227C88.8726 24.5311 94.5141 18.8795 94.4212 12.2162ZM81.0023 14.164C80.4742 14.6931 79.8241 14.9548 79.0812 14.9548H63.718V9.44854H79.0812C79.8241 9.44854 80.4742 9.71601 81.0023 10.2684C81.5537 10.7975 81.8207 11.4487 81.8207 12.2162C81.8207 12.9837 81.5595 13.6116 81.0023 14.164Z" fill="white"/>
<path d="M106.208 0L88.9004 32.3164H103.062L105.604 26.7869H121.757L124.299 32.3164H138.461L121.159 0H106.208ZM109.255 18.8968L113.695 9.34954L118.112 18.8968H109.255Z" fill="white"/>
<path d="M181.469 18.8272C182.763 16.8561 183.413 14.6408 183.413 12.2162C183.512 5.52964 177.871 -0.0696159 171.219 0.000156846H140.139V32.3165H152.716V24.4322H163.947L170.018 32.3165H183.408L176.373 23.2519C178.486 22.2635 180.186 20.775 181.463 18.8272H181.469ZM170 14.164C169.472 14.6931 168.822 14.9548 168.056 14.9548H152.722V9.44854H168.056C169.594 9.44854 170.819 10.6754 170.819 12.2162C170.819 12.9604 170.558 13.6116 170 14.164Z" fill="white"/>
<path d="M233.212 0H216.699L204.865 11.0357H199.368V0H186.791V32.3164H199.368V21.2807H204.865L216.699 32.3164H233.212L216.479 16.1582L233.212 0Z" fill="white"/>
<path d="M263.515 -4.19458e-05H236.463C235.424 -4.19458e-05 234.582 0.843045 234.582 1.88382V30.6825C234.582 31.7233 235.424 32.5664 236.463 32.5664H246.068L252.557 41.0496C253.126 42.1543 254.792 41.7473 254.792 40.503V32.5664H263.509C272.436 32.6885 279.064 25.1239 278.994 16.2803C279.07 7.38424 272.436 -0.127959 263.509 -0.00585634L263.515 -4.19458e-05ZM248.993 16.8384C246.916 16.8384 245.232 15.1523 245.232 13.0707C245.232 10.9892 246.916 9.30298 248.993 9.30298C251.071 9.30298 252.754 10.9892 252.754 13.0707C252.754 15.1523 251.071 16.8384 248.993 16.8384ZM261.536 16.8384C259.458 16.8384 257.775 15.1523 257.775 13.0707C257.775 10.9892 259.458 9.30298 261.536 9.30298C263.614 9.30298 265.297 10.9892 265.297 13.0707C265.297 15.1523 263.614 16.8384 261.536 16.8384Z" fill="url(#paint0_linear_339_6221)"/>
</g>
<defs>
<filter id="filter0_d_339_6221" x="0" y="0" width="283" height="49.7007" filterUnits="userSpaceOnUse" color-interpolation-filters="sRGB">
<feFlood flood-opacity="0" result="BackgroundImageFix"/>
<feColorMatrix in="SourceAlpha" type="matrix" values="0 0 0 0 0 0 0 0 0 0 0 0 0 0 0 0 0 0 127 0" result="hardAlpha"/>
<feOffset dy="4"/>
<feGaussianBlur stdDeviation="2"/>
<feComposite in2="hardAlpha" operator="out"/>
<feColorMatrix type="matrix" values="0 0 0 0 0 0 0 0 0 0 0 0 0 0 0 0 0 0 0.25 0"/>
<feBlend mode="normal" in2="BackgroundImageFix" result="effect1_dropShadow_339_6221"/>
<feBlend mode="normal" in="SourceGraphic" in2="effect1_dropShadow_339_6221" result="shape"/>
</filter>
<linearGradient id="paint0_linear_339_6221" x1="234.588" y1="20.8504" x2="279" y2="20.8504" gradientUnits="userSpaceOnUse">
<stop stop-color="#F47530"/>
<stop offset="1" stop-color="#F04D41"/>
</linearGradient>
<clipPath id="clip0_339_6221">
<rect width="275" height="41.7008" fill="white" transform="translate(4)"/>
</clipPath>
</defs>
</svg>
