<svg width="16" height="16" viewBox="0 0 16 16" fill="none" xmlns="http://www.w3.org/2000/svg">
<mask id="mask0_142_5945" style="mask-type:alpha" maskUnits="userSpaceOnUse" x="0" y="0" width="16" height="16">
<rect width="16" height="16" fill="#D9D9D9"/>
</mask>
<g mask="url(#mask0_142_5945)">
<path d="M7.33268 13.9665C5.98824 13.7998 4.87435 13.2137 3.99102 12.2082C3.10768 11.2026 2.66602 10.0221 2.66602 8.6665C2.66602 7.93317 2.81046 7.23039 3.09935 6.55817C3.38824 5.88595 3.79935 5.29984 4.33268 4.79984L5.28268 5.74984C4.86046 6.12761 4.54102 6.5665 4.32435 7.0665C4.10768 7.5665 3.99935 8.09984 3.99935 8.6665C3.99935 9.64428 4.31046 10.5082 4.93268 11.2582C5.5549 12.0082 6.3549 12.4665 7.33268 12.6332V13.9665ZM8.66602 13.9665V12.6332C9.63268 12.4554 10.4299 11.9943 11.0577 11.2498C11.6855 10.5054 11.9993 9.64428 11.9993 8.6665C11.9993 7.55539 11.6105 6.61095 10.8327 5.83317C10.0549 5.05539 9.11046 4.6665 7.99935 4.6665H7.94935L8.68268 5.39984L7.74935 6.33317L5.41602 3.99984L7.74935 1.6665L8.68268 2.59984L7.94935 3.33317H7.99935C9.48824 3.33317 10.7493 3.84984 11.7827 4.88317C12.816 5.9165 13.3327 7.17762 13.3327 8.6665C13.3327 10.0109 12.891 11.1859 12.0077 12.1915C11.1243 13.1971 10.0105 13.7887 8.66602 13.9665Z" fill="#464646"/>
</g>
</svg>
