<svg width="19" height="18" viewBox="0 0 19 18" fill="none" xmlns="http://www.w3.org/2000/svg">
<path d="M13.2559 11.2549H12.4659L12.1859 10.9849C13.1659 9.84488 13.7559 8.36488 13.7559 6.75488C13.7559 3.16488 10.8459 0.254883 7.25586 0.254883C3.66586 0.254883 0.755859 3.16488 0.755859 6.75488C0.755859 10.3449 3.66586 13.2549 7.25586 13.2549C8.86586 13.2549 10.3459 12.6649 11.4859 11.6849L11.7559 11.9649V12.7549L16.7559 17.7449L18.2459 16.2549L13.2559 11.2549ZM7.25586 11.2549C4.76586 11.2549 2.75586 9.24488 2.75586 6.75488C2.75586 4.26488 4.76586 2.25488 7.25586 2.25488C9.74586 2.25488 11.7559 4.26488 11.7559 6.75488C11.7559 9.24488 9.74586 11.2549 7.25586 11.2549Z" fill="#010101"/>
</svg>
