<svg width="48" height="48" viewBox="0 0 48 48" fill="none" xmlns="http://www.w3.org/2000/svg">
<path d="M35.8382 25.4641C35.4362 24.8221 34.9622 24.2581 34.5062 23.7061L34.4462 23.6401C34.9802 23.0581 35.4962 22.3981 36.0122 21.6241C39.5942 16.3021 40.2062 10.6021 37.8302 4.69807C37.5722 4.05607 37.2302 3.42007 36.4802 3.06607L36.3902 3.02407L35.5202 3.00607L35.5082 2.97607L35.3042 3.06607C33.7022 3.79207 32.2682 4.69807 31.0322 5.75407C27.8042 8.53207 25.8182 12.0901 25.1342 16.3261C25.0682 16.7161 25.0262 17.1121 24.9842 17.5141C24.9782 17.5981 24.9662 17.6821 24.9602 17.7721C24.9242 18.1621 24.9002 18.5521 24.8942 18.9421C24.8942 18.9601 24.8942 18.9721 24.8942 18.9901C24.7442 18.9781 24.5942 18.9661 24.4442 18.9601C24.4022 18.9601 24.3542 18.9601 24.3122 18.9601C24.2042 18.9601 24.1022 18.9601 24.0002 18.9661C23.8862 18.9601 23.7782 18.9601 23.6702 18.9601C23.6282 18.9601 23.5862 18.9601 23.5442 18.9601C23.3882 18.9601 23.2262 18.9721 23.0762 18.9841C23.0462 17.0161 22.7222 15.1441 22.1162 13.4041C22.0142 13.1101 21.9062 12.8221 21.7922 12.5401C21.7262 12.3721 21.6482 12.2041 21.5762 12.0361C21.5282 11.9281 21.4862 11.8141 21.4322 11.7061C19.9262 8.41207 17.5922 5.83807 14.4902 4.04407C13.9682 3.74407 13.4282 3.46207 12.8702 3.20407L12.6842 3.01807H11.7782L11.6222 3.06007C10.8182 3.36007 10.4582 4.00807 10.2602 4.47607C8.71219 8.02807 8.35219 11.7061 9.18619 15.4021C9.85819 18.3661 11.2862 21.0661 13.5482 23.6521C11.4542 26.0041 10.2722 28.7401 10.0262 31.8001C9.88219 33.5941 9.90619 35.3701 9.98419 37.4821C10.0982 40.4761 12.4682 43.0141 15.5042 43.3861C15.9782 43.4461 16.4942 43.4701 17.1302 43.4701C17.4242 43.4701 17.7122 43.4701 18.0002 43.4581H18.1202C18.4022 43.4521 18.6962 43.4461 19.0322 43.4461C20.2262 43.4461 21.3302 43.1221 22.3142 42.4801C22.9082 42.0961 23.4422 41.9101 24.0002 41.8921C24.5702 41.9101 25.1162 42.1081 25.7162 42.5041C26.4482 42.9901 27.2642 43.2841 28.1462 43.3861C28.6802 43.4461 29.2562 43.4761 29.9582 43.4761C30.3422 43.4761 30.7202 43.4701 31.1462 43.4581L31.8122 43.4461C35.1962 43.3921 37.9862 40.5901 38.0282 37.1941C38.0462 35.4841 38.0462 34.0681 38.0282 32.7481C37.9862 30.1621 37.2482 27.7141 35.8502 25.4821L35.8382 25.4641ZM11.3882 31.8901C11.6162 29.0641 12.7382 26.5321 14.7242 24.3721C15.1622 23.8981 15.1622 23.3941 14.7302 22.9081C12.5282 20.4481 11.1482 17.8861 10.5122 15.0841C9.74419 11.6761 10.0802 8.28607 11.5082 5.00407C11.6582 4.66207 11.8022 4.47607 12.0002 4.36807H12.1562C12.1562 4.36807 12.1742 4.37407 12.1802 4.38007C16.3862 6.28807 19.2902 9.47407 20.8142 13.8421C21.4082 15.5461 21.7082 17.3941 21.7022 19.3381C21.7022 19.4761 21.7022 19.8961 22.0322 20.1781C22.1042 20.2381 22.1882 20.2861 22.2782 20.3161C22.3022 20.3281 22.3262 20.3341 22.3502 20.3401C22.4402 20.3701 22.5362 20.3881 22.6442 20.3881C22.6442 20.3881 22.6442 20.3881 22.6502 20.3881C22.7582 20.3881 22.8422 20.3761 22.8902 20.3641C23.0222 20.3401 23.1662 20.3341 23.3102 20.3221V40.5721C22.7282 40.6861 22.1522 40.9261 21.5642 41.3101C20.8022 41.8021 19.9502 42.0541 19.0142 42.0541C18.6842 42.0541 18.3542 42.0601 18.0242 42.0661C17.2082 42.0841 16.4342 42.0961 15.6662 42.0061C13.2902 41.7121 11.4302 39.7381 11.3462 37.4041C11.2682 35.3341 11.2442 33.6061 11.3882 31.8781V31.8901ZM26.3222 17.9221C26.3282 17.8501 26.3342 17.7781 26.3462 17.7001C26.3822 17.3101 26.4302 16.9261 26.4902 16.5421C27.1202 12.6361 28.9502 9.35407 31.9322 6.79207C32.2142 6.54607 32.5082 6.31807 32.8082 6.09607C32.8982 6.03007 33.0002 5.96407 33.0902 5.89807C33.3062 5.74807 33.5162 5.59807 33.7382 5.45407C33.8642 5.37607 33.9962 5.30407 34.1282 5.22607C34.3322 5.10607 34.5302 4.98607 34.7402 4.87207C34.8902 4.79407 35.0462 4.72207 35.1962 4.64407C35.3822 4.55407 35.5622 4.45807 35.7482 4.37407H36.0242C36.2582 4.53007 36.4022 4.80607 36.5702 5.20807C38.7662 10.6741 38.1962 15.9361 34.8842 20.8621C34.4162 21.5581 33.9602 22.1461 33.4862 22.6681C33.3962 22.5901 33.3062 22.5181 33.2222 22.4401C32.2922 21.5821 31.2122 20.8801 29.8922 20.2681C29.4542 20.0641 28.9862 19.8721 28.4882 19.6921C28.2902 19.6201 28.0922 19.5541 27.8942 19.5001C27.8162 19.4761 27.7382 19.4581 27.6662 19.4401C27.5402 19.4101 27.4202 19.3741 27.2942 19.3441C27.2042 19.3261 27.1202 19.3081 27.0302 19.2901C26.9162 19.2661 26.8022 19.2421 26.6882 19.2181C26.5802 19.1941 26.4722 19.1761 26.3642 19.1581C26.3282 19.1521 26.2922 19.1461 26.2622 19.1401C26.2622 19.1161 26.2622 19.0861 26.2622 19.0621C26.2682 18.6841 26.2922 18.3061 26.3222 17.9341V17.9221ZM24.7982 20.3461C24.7982 20.3461 24.8102 20.3461 24.8162 20.3461C24.9362 20.3581 25.0622 20.3701 25.1822 20.3761C25.2842 20.3761 25.3922 20.3761 25.4942 20.3761L25.7582 20.4241C26.5502 20.5681 27.3002 20.7061 28.0142 20.9701C29.8262 21.6421 31.1822 22.4281 32.2922 23.4421C32.4782 23.6101 32.6642 23.7661 32.8502 23.9221L33.0482 24.0901C33.1742 24.2401 33.3002 24.3961 33.4502 24.5821C33.9002 25.1221 34.3202 25.6321 34.6742 26.1961C35.9402 28.2181 36.6062 30.4201 36.6422 32.7601C36.6662 34.0681 36.6662 35.4721 36.6422 37.1641C36.6122 39.8281 34.4282 42.0241 31.7762 42.0661L31.0982 42.0781C30.1682 42.1021 29.2082 42.1201 28.2842 42.0181C27.6182 41.9401 27.0002 41.7181 26.4542 41.3521C25.8542 40.9561 25.2662 40.7041 24.6722 40.5841V20.3401C24.7142 20.3401 24.7502 20.3401 24.7922 20.3521L24.7982 20.3461Z" fill="#F47530"/>
<path d="M14.7663 32.712C14.7663 32.874 14.7663 33.036 14.7663 33.204C14.8203 35.226 16.3023 36.93 18.2883 37.254C18.6603 37.314 19.0623 37.344 19.5723 37.344C19.7763 37.344 19.9803 37.344 20.1783 37.338C20.5383 37.332 20.8743 37.32 21.2163 37.338C21.5343 37.35 21.7923 37.266 21.9783 37.08C22.2603 36.798 22.2423 36.42 22.2363 36.294C22.2243 36.108 22.2303 35.916 22.2363 35.712C22.2363 35.556 22.2363 35.4 22.2363 35.244C22.1943 33.204 20.7543 31.518 18.7323 31.146C18.3303 31.074 17.9463 31.074 17.6043 31.08C17.4363 31.08 17.2803 31.08 17.1003 31.08H16.6263C16.3203 31.086 16.0563 31.092 15.7923 31.08C15.4743 31.062 15.2103 31.152 15.0243 31.338C14.7423 31.62 14.7603 31.998 14.7663 32.118C14.7783 32.304 14.7723 32.496 14.7723 32.718L14.7663 32.712ZM16.3803 32.448C16.4643 32.448 16.5543 32.448 16.6563 32.448H17.0703C17.2443 32.454 17.4243 32.448 17.6163 32.448C17.9043 32.448 18.2043 32.442 18.4803 32.49C19.8543 32.742 20.8383 33.888 20.8683 35.268C20.8683 35.412 20.8683 35.55 20.8683 35.694C20.8683 35.778 20.8683 35.868 20.8683 35.952C20.6283 35.952 20.3883 35.952 20.1423 35.958C19.5723 35.97 19.0323 35.982 18.5103 35.898C17.1723 35.676 16.1763 34.53 16.1343 33.162C16.1343 33.012 16.1343 32.862 16.1343 32.706C16.1343 32.622 16.1343 32.538 16.1343 32.454C16.2123 32.454 16.2963 32.454 16.3803 32.454V32.448Z" fill="#F47530"/>
<path d="M16.8122 22.146C16.8962 22.176 16.9862 22.188 17.0762 22.188C17.3402 22.188 17.5442 22.062 17.6222 22.014C18.0542 21.744 18.5222 21.51 19.0082 21.318C19.5842 21.09 19.7882 20.616 19.5722 20.028C19.1522 18.894 18.7322 17.742 18.3242 16.614L17.5682 14.538C17.2922 13.782 17.0102 13.002 16.7222 12.234C16.4042 11.394 15.5582 10.908 14.7062 11.082C13.8122 11.262 13.2482 11.976 13.2422 12.984V13.05C13.2542 13.14 13.2722 13.314 13.3382 13.494L14.6282 17.046C15.1742 18.546 15.7202 20.046 16.2602 21.54C16.3742 21.846 16.5602 22.05 16.8182 22.14L16.8122 22.146ZM14.6162 13.008C14.6162 13.008 14.6162 12.972 14.6102 12.936C14.6102 12.936 14.6102 12.936 14.6102 12.93C14.6102 12.864 14.6222 12.816 14.6342 12.768C14.6342 12.744 14.6342 12.708 14.6462 12.69C14.6582 12.654 14.6762 12.63 14.6942 12.6C14.7062 12.582 14.7122 12.552 14.7302 12.54C14.7422 12.522 14.7602 12.516 14.7782 12.504C14.8382 12.462 14.9042 12.438 14.9702 12.42C15.1562 12.384 15.3602 12.51 15.4382 12.714C15.7262 13.476 16.0082 14.256 16.2842 15.006L17.0402 17.094C17.4062 18.108 17.7842 19.152 18.1682 20.178C17.8922 20.298 17.6222 20.43 17.3642 20.574C16.8722 19.206 16.3742 17.838 15.8762 16.47L15.8402 16.368C15.4322 15.252 15.0302 14.136 14.6222 13.02C14.6222 13.02 14.6222 13.008 14.6222 12.996L14.6162 13.008Z" fill="#F47530"/>
<path d="M25.7517 36.4801C25.7517 36.7921 25.8777 36.9901 25.9917 37.0981C26.0997 37.2001 26.2137 37.2541 26.3217 37.2841C26.3397 37.2841 26.3577 37.2961 26.3757 37.3021C26.3937 37.3021 26.4057 37.3021 26.4237 37.3081C26.5257 37.3261 26.6157 37.3261 26.6757 37.3261C26.9157 37.3261 27.1557 37.3261 27.4377 37.3321C27.6777 37.3321 27.9177 37.3381 28.1577 37.3381C28.5777 37.3381 28.9197 37.3261 29.2377 37.3021C30.9597 37.1761 32.2377 36.2461 32.9277 34.6201C33.2517 33.8641 33.2397 33.1261 33.2277 32.3701C33.2277 32.2141 33.2277 32.0641 33.2277 31.9201C33.2277 31.8421 33.2217 31.7701 33.2097 31.7041C33.1677 31.5121 33.0717 31.3801 32.9877 31.2961C32.8017 31.1161 32.5797 31.0741 32.4357 31.0681C32.3877 31.0681 32.3457 31.0681 32.3157 31.0681H31.3617H30.8457H30.6897C30.4377 31.0681 30.1797 31.0621 29.9157 31.0681C28.1817 31.1521 26.9097 31.9861 26.1417 33.5521C25.7337 34.3801 25.7457 35.2021 25.7517 36.0001C25.7517 36.1561 25.7517 36.3121 25.7517 36.4681V36.4801ZM30.6657 32.4481H31.8597C31.8657 33.0481 31.8717 33.6061 31.6677 34.0981C31.1757 35.2561 30.3477 35.8621 29.1357 35.9461C28.8657 35.9641 28.5957 35.9761 28.3197 35.9761C28.0437 35.9761 27.7557 35.9761 27.4617 35.9701H27.1257C27.1197 35.3161 27.1137 34.6981 27.3777 34.1701C27.9177 33.0721 28.7697 32.5081 29.9877 32.4481C30.2097 32.4361 30.4317 32.4421 30.6777 32.4481H30.6657Z" fill="#F47530"/>
</svg>
