<svg width="15" height="14" viewBox="0 0 15 14" fill="none" xmlns="http://www.w3.org/2000/svg">
<path d="M3.99935 0H11.3327V8.66667L6.66602 13.3333L5.83268 12.5C5.7549 12.4222 5.69102 12.3167 5.64102 12.1833C5.59102 12.05 5.56602 11.9222 5.56602 11.8V11.5667L6.29935 8.66667H1.99935C1.64379 8.66667 1.33268 8.53333 1.06602 8.26667C0.799349 8 0.666016 7.68889 0.666016 7.33333V6C0.666016 5.92222 0.677127 5.83889 0.699349 5.75C0.721571 5.66111 0.743793 5.57778 0.766016 5.5L2.76602 0.8C2.86602 0.577778 3.03268 0.388889 3.26602 0.233333C3.49935 0.0777778 3.74379 0 3.99935 0ZM9.99935 1.33333H3.99935L1.99935 6V7.33333H7.99935L7.09935 11L9.99935 8.1V1.33333ZM11.3327 8.66667V7.33333H13.3327V1.33333H11.3327V0H14.666V8.66667H11.3327Z" fill="#464646"/>
</svg>
